{
.appVersion = "1230";
customParameters = (
{
name = description;
value = "Created with Calligraphr.com";
},
{
name = vendorID;
value = CLGR;
},
{
name = panose;
value = (
2,
0,
5,
3,
0,
0,
0,
0,
0,
0
);
},
{
name = unicodeRanges;
value = (
0,
1
);
},
{
name = codePageRanges;
value = (
1252,
1250
);
},
{
name = glyphOrder;
value = (
.notdef,
.null,
CR,
CR.001,
space,
exclam,
quotedbl,
quotesingle,
comma,
period,
colon,
semicolon,
question,
A,
B,
C,
D,
E,
F,
G,
H,
I,
J,
K,
L,
M,
N,
O,
P,
Q,
R,
S,
T,
U,
V,
W,
X,
Y,
Z,
a,
b,
c,
d,
e,
f,
g,
h,
i,
j,
k,
l,
m,
n,
o,
p,
q,
r,
s,
t,
u,
v,
w,
x,
y,
z,
nbsp,
aacute,
eacute,
iacute,
ntilde,
oacute,
uacute
);
}
);
date = "2019-08-01 05:11:39 +0000";
disablesNiceNames = 1;
familyName = Thiccletters;
fontMaster = (
{
ascender = 800;
capHeight = 709;
customParameters = (
{
name = typoAscender;
value = 800;
},
{
name = typoDescender;
value = -200;
},
{
name = typoLineGap;
value = 90;
},
{
name = winAscent;
value = 740;
},
{
name = winDescent;
value = 114;
},
{
name = hheaAscender;
value = 740;
},
{
name = hheaDescender;
value = -114;
},
{
name = strikeoutPosition;
value = 258;
},
{
name = strikeoutSize;
value = 49;
},
{
name = "Prep Table Assembly";
value = "PUSHW[ ]	/* 1 value pushed */\012511 \012SCANCTRL[ ]	/* ScanConversionControl */\012PUSHB[ ]	/* 1 value pushed */\0124 \012SCANTYPE[ ]	/* ScanType */";
},
{
name = "CVT Table";
value = (
33,
633
);
}
);
descender = -200;
id = "E500A8E6-E294-45A2-B471-DD4095F9D5BF";
weightValue = 400;
widthValue = 5;
xHeight = 491;
}
);
glyphs = (
{
glyphname = .notdef;
lastChange = "2019-08-01 17:43:18 +0000";
layers = (
{
layerId = "E500A8E6-E294-45A2-B471-DD4095F9D5BF";
paths = (
{
closed = 1;
nodes = (
"343 -106 LINE",
"343 660 LINE",
"38 660 LINE",
"38 -106 LINE"
);
},
{
closed = 1;
nodes = (
"76 622 LINE",
"305 622 LINE",
"305 -68 LINE",
"76 -68 LINE"
);
}
);
width = 419;
}
);
note = .notdef;
changeCount = 1;
},
{
glyphname = exclam;
lastChange = "2019-08-01 17:43:18 +0000";
layers = (
{
layerId = "E500A8E6-E294-45A2-B471-DD4095F9D5BF";
paths = (
{
closed = 1;
nodes = (
"64 93 OFFCURVE",
"55 58 OFFCURVE",
"67 48 QCURVE SMOOTH",
"83 34 OFFCURVE",
"97 33 QCURVE",
"101 32 OFFCURVE",
"108 32 QCURVE SMOOTH",
"117 32 OFFCURVE",
"129 43 QCURVE SMOOTH",
"141 56 OFFCURVE",
"139 74 QCURVE SMOOTH",
"135 105 OFFCURVE",
"112 105 QCURVE SMOOTH",
"99 105 OFFCURVE",
"81 98 QCURVE SMOOTH"
);
},
{
closed = 1;
nodes = (
"95 691 OFFCURVE",
"85 607 OFFCURVE",
"81 455 QCURVE SMOOTH",
"76 318 OFFCURVE",
"76 240 QCURVE SMOOTH",
"76 186 OFFCURVE",
"79 172 QCURVE SMOOTH",
"84 156 OFFCURVE",
"116 156 QCURVE SMOOTH",
"135 156 OFFCURVE",
"145 182 OFFCURVE",
"152 247 QCURVE SMOOTH",
"156 288 OFFCURVE",
"178 435 OFFCURVE",
"182 488 QCURVE SMOOTH",
"184 522 OFFCURVE",
"195 592 OFFCURVE",
"195 640 QCURVE SMOOTH",
"195 685 OFFCURVE",
"192 703 OFFCURVE",
"183 708 QCURVE",
"169 714 OFFCURVE",
"154 714 QCURVE SMOOTH",
"128 714 OFFCURVE",
"110 702 QCURVE"
);
}
);
width = 256;
}
);
note = exclam;
unicode = 0021;
changeCount = 1;
},
{
glyphname = quotedbl;
lastChange = "2019-08-01 17:43:18 +0000";
layers = (
{
layerId = "E500A8E6-E294-45A2-B471-DD4095F9D5BF";
paths = (
{
closed = 1;
nodes = (
"57 684 OFFCURVE",
"57 658 QCURVE SMOOTH",
"57 619 OFFCURVE",
"72 519 OFFCURVE",
"81 511 QCURVE SMOOTH",
"85 507 OFFCURVE",
"99 511 QCURVE",
"112 517 LINE",
"110 592 LINE",
"110 623 LINE SMOOTH",
"110 670 OFFCURVE",
"114 679 QCURVE",
"116 686 OFFCURVE",
"116 689 QCURVE SMOOTH",
"116 703 OFFCURVE",
"86 703 QCURVE SMOOTH",
"67 703 OFFCURVE",
"61 691 QCURVE"
);
},
{
closed = 1;
nodes = (
"162 683 OFFCURVE",
"162 656 QCURVE SMOOTH",
"162 631 OFFCURVE",
"163 612 QCURVE SMOOTH",
"168 549 OFFCURVE",
"174 520 QCURVE SMOOTH",
"178 500 OFFCURVE",
"184 489 OFFCURVE",
"192 489 QCURVE SMOOTH",
"205 489 LINE",
"207 587 LINE SMOOTH",
"209 685 OFFCURVE",
"214 692 QCURVE",
"215 693 OFFCURVE",
"215 695 QCURVE SMOOTH",
"215 701 OFFCURVE",
"198 714 OFFCURVE",
"189 714 QCURVE SMOOTH",
"175 714 OFFCURVE",
"168 695 QCURVE"
);
}
);
width = 271;
}
);
note = quotedbl;
unicode = 0022;
changeCount = 1;
},
{
glyphname = quotesingle;
lastChange = "2019-08-01 17:43:18 +0000";
layers = (
{
layerId = "E500A8E6-E294-45A2-B471-DD4095F9D5BF";
paths = (
{
closed = 1;
nodes = (
"68 702 OFFCURVE",
"62 692 QCURVE",
"57 686 OFFCURVE",
"57 671 QCURVE SMOOTH",
"57 645 OFFCURVE",
"75 589 QCURVE SMOOTH",
"86 553 OFFCURVE",
"97 553 QCURVE SMOOTH",
"103 553 OFFCURVE",
"112 565 QCURVE SMOOTH",
"118 577 OFFCURVE",
"118 595 QCURVE SMOOTH",
"118 610 OFFCURVE",
"117 622 QCURVE SMOOTH",
"116 632 OFFCURVE",
"114 657 OFFCURVE",
"112 673 OFFCURVE",
"112 676 QCURVE",
"109 687 OFFCURVE",
"109 691 QCURVE SMOOTH",
"109 695 OFFCURVE",
"90 704 OFFCURVE",
"82 704 QCURVE SMOOTH",
"78 704 LINE"
);
}
);
width = 176;
}
);
note = quotesingle;
unicode = 0027;
changeCount = 1;
},
{
glyphname = comma;
lastChange = "2019-08-01 17:43:18 +0000";
layers = (
{
layerId = "E500A8E6-E294-45A2-B471-DD4095F9D5BF";
paths = (
{
closed = 1;
nodes = (
"92 81 OFFCURVE",
"72 66 QCURVE SMOOTH",
"59 56 OFFCURVE",
"59 45 QCURVE SMOOTH",
"59 36 OFFCURVE",
"72 24 QCURVE",
"79 18 OFFCURVE",
"82 9 OFFCURVE",
"77 -4 QCURVE SMOOTH",
"72 -18 OFFCURVE",
"72 -25 QCURVE SMOOTH",
"72 -30 OFFCURVE",
"87 -30 QCURVE SMOOTH",
"118 -30 OFFCURVE",
"145 25 QCURVE",
"153 45 OFFCURVE",
"153 55 QCURVE SMOOTH",
"153 85 OFFCURVE",
"118 85 QCURVE SMOOTH",
"106 85 OFFCURVE",
"99 82 QCURVE"
);
}
);
width = 210;
}
);
note = comma;
unicode = 002C;
changeCount = 1;
},
{
glyphname = period;
lastChange = "2019-08-01 17:43:18 +0000";
layers = (
{
layerId = "E500A8E6-E294-45A2-B471-DD4095F9D5BF";
paths = (
{
closed = 1;
nodes = (
"61 41 OFFCURVE",
"68 36 QCURVE",
"74 31 OFFCURVE",
"100 31 QCURVE SMOOTH",
"125 31 OFFCURVE",
"136 43 QCURVE",
"145 56 OFFCURVE",
"145 63 QCURVE SMOOTH",
"145 72 OFFCURVE",
"115 100 OFFCURVE",
"101 100 QCURVE SMOOTH",
"89 100 OFFCURVE",
"61 72 OFFCURVE",
"61 52 QCURVE SMOOTH"
);
}
);
width = 205;
}
);
note = period;
unicode = 002E;
changeCount = 1;
},
{
glyphname = colon;
lastChange = "2019-08-01 17:43:18 +0000";
layers = (
{
layerId = "E500A8E6-E294-45A2-B471-DD4095F9D5BF";
paths = (
{
closed = 1;
nodes = (
"68 166 OFFCURVE",
"90 150 OFFCURVE",
"106 150 QCURVE SMOOTH",
"116 150 OFFCURVE",
"130 156 QCURVE",
"139 162 OFFCURVE",
"155 190 OFFCURVE",
"155 203 QCURVE SMOOTH",
"155 206 OFFCURVE",
"153 213 QCURVE SMOOTH",
"148 226 OFFCURVE",
"129 226 QCURVE SMOOTH",
"112 226 OFFCURVE",
"89 217 OFFCURVE",
"68 188 OFFCURVE",
"68 178 QCURVE SMOOTH"
);
},
{
closed = 1;
nodes = (
"57 410 OFFCURVE",
"57 384 QCURVE SMOOTH",
"57 372 OFFCURVE",
"86 351 OFFCURVE",
"101 351 QCURVE SMOOTH",
"117 351 OFFCURVE",
"148 378 OFFCURVE",
"148 392 QCURVE SMOOTH",
"148 407 OFFCURVE",
"143 420 QCURVE",
"135 442 OFFCURVE",
"120 442 QCURVE SMOOTH",
"110 442 OFFCURVE",
"94 433 QCURVE"
);
}
);
width = 212;
}
);
note = colon;
unicode = 003A;
changeCount = 1;
},
{
glyphname = semicolon;
lastChange = "2019-08-01 17:43:18 +0000";
layers = (
{
layerId = "E500A8E6-E294-45A2-B471-DD4095F9D5BF";
paths = (
{
closed = 1;
nodes = (
"84 171 OFFCURVE",
"93 165 QCURVE SMOOTH",
"103 158 OFFCURVE",
"103 125 QCURVE SMOOTH",
"103 90 OFFCURVE",
"113 90 QCURVE SMOOTH",
"126 90 OFFCURVE",
"143 113 QCURVE SMOOTH",
"155 131 OFFCURVE",
"162 187 QCURVE",
"163 203 OFFCURVE",
"161 212 OFFCURVE",
"153 218 QCURVE",
"140 226 OFFCURVE",
"133 226 QCURVE SMOOTH",
"123 226 OFFCURVE",
"84 187 OFFCURVE",
"84 178 QCURVE SMOOTH"
);
},
{
closed = 1;
nodes = (
"61 349 OFFCURVE",
"61 331 QCURVE SMOOTH",
"61 327 OFFCURVE",
"63 323 QCURVE",
"74 309 OFFCURVE",
"94 309 QCURVE SMOOTH",
"113 309 OFFCURVE",
"144 330 OFFCURVE",
"144 344 QCURVE SMOOTH",
"144 358 OFFCURVE",
"124 376 OFFCURVE",
"110 376 QCURVE SMOOTH",
"92 376 OFFCURVE",
"79 364 QCURVE"
);
}
);
width = 222;
}
);
note = semicolon;
unicode = 003B;
changeCount = 1;
},
{
glyphname = question;
lastChange = "2019-08-01 17:43:18 +0000";
layers = (
{
layerId = "E500A8E6-E294-45A2-B471-DD4095F9D5BF";
paths = (
{
closed = 1;
nodes = (
"186 68 OFFCURVE",
"186 45 QCURVE SMOOTH",
"186 24 LINE",
"212 27 LINE",
"237 29 OFFCURVE",
"253 44 OFFCURVE",
"253 65 QCURVE SMOOTH",
"253 90 OFFCURVE",
"231 90 QCURVE SMOOTH",
"218 90 OFFCURVE",
"202 80 QCURVE"
);
},
{
closed = 1;
nodes = (
"189 699 OFFCURVE",
"117 649 OFFCURVE",
"92 594 QCURVE SMOOTH",
"76 557 OFFCURVE",
"71 509 QCURVE SMOOTH",
"67 457 OFFCURVE",
"63 442 QCURVE",
"63 440 OFFCURVE",
"62 435 OFFCURVE",
"62 434 QCURVE SMOOTH",
"62 412 OFFCURVE",
"81 412 QCURVE SMOOTH",
"86 412 OFFCURVE",
"89 413 QCURVE",
"101 417 OFFCURVE",
"112 449 OFFCURVE",
"115 496 QCURVE SMOOTH",
"120 550 OFFCURVE",
"133 580 QCURVE",
"139 591 OFFCURVE",
"150 618 OFFCURVE",
"155 629 OFFCURVE",
"173 641 OFFCURVE",
"189 647 QCURVE SMOOTH",
"209 654 OFFCURVE",
"225 654 QCURVE SMOOTH",
"271 654 OFFCURVE",
"281 600 QCURVE SMOOTH",
"283 586 OFFCURVE",
"283 581 QCURVE SMOOTH",
"283 570 OFFCURVE",
"276 550 QCURVE SMOOTH",
"268 526 OFFCURVE",
"262 524 QCURVE",
"258 523 OFFCURVE",
"215 466 OFFCURVE",
"202 446 QCURVE",
"192 427 OFFCURVE",
"187 427 QCURVE SMOOTH",
"170 427 OFFCURVE",
"170 338 QCURVE SMOOTH",
"170 226 OFFCURVE",
"186 226 QCURVE SMOOTH",
"198 226 OFFCURVE",
"216 252 OFFCURVE",
"216 270 QCURVE SMOOTH",
"216 319 OFFCURVE",
"246 357 QCURVE SMOOTH",
"262 378 OFFCURVE",
"262 381 QCURVE SMOOTH",
"262 386 OFFCURVE",
"293 422 QCURVE SMOOTH",
"359 495 OFFCURVE",
"375 523 QCURVE SMOOTH",
"398 563 OFFCURVE",
"398 600 QCURVE SMOOTH",
"398 653 OFFCURVE",
"353 684 QCURVE SMOOTH",
"330 699 OFFCURVE",
"321 699 QCURVE SMOOTH",
"311 699 OFFCURVE",
"309 702 QCURVE",
"304 709 OFFCURVE",
"284 709 QCURVE SMOOTH",
"277 709 OFFCURVE",
"254 707 QCURVE SMOOTH"
);
}
);
width = 461;
}
);
note = question;
unicode = 003F;
changeCount = 1;
},
{
glyphname = A;
lastChange = "2019-08-01 17:43:18 +0000";
layers = (
{
layerId = "E500A8E6-E294-45A2-B471-DD4095F9D5BF";
paths = (
{
closed = 1;
nodes = (
"385 594 OFFCURVE",
"393 580 QCURVE SMOOTH",
"404 562 OFFCURVE",
"421 478 QCURVE SMOOTH",
"425 458 OFFCURVE",
"443 415 OFFCURVE",
"448 387 QCURVE SMOOTH",
"455 349 OFFCURVE",
"468 312 QCURVE SMOOTH",
"478 279 OFFCURVE",
"478 257 QCURVE SMOOTH",
"478 234 LINE",
"396 233 LINE SMOOTH",
"296 232 OFFCURVE",
"247 224 QCURVE",
"225 219 OFFCURVE",
"225 224 QCURVE SMOOTH",
"225 240 OFFCURVE",
"245 289 QCURVE",
"252 300 OFFCURVE",
"292 420 OFFCURVE",
"296 427 QCURVE",
"340 534 OFFCURVE",
"340 550 OFFCURVE",
"365 601 QCURVE",
"371 617 OFFCURVE",
"379 612 QCURVE",
"385 607 OFFCURVE",
"385 601 QCURVE SMOOTH"
);
},
{
closed = 1;
nodes = (
"498 179 OFFCURVE",
"505 147 QCURVE SMOOTH",
"513 109 OFFCURVE",
"524 85 QCURVE",
"535 60 OFFCURVE",
"535 50 QCURVE SMOOTH",
"535 42 OFFCURVE",
"528 42 QCURVE SMOOTH",
"527 42 OFFCURVE",
"526 43 QCURVE",
"523 43 LINE",
"514 45 OFFCURVE",
"501 35 QCURVE",
"492 28 OFFCURVE",
"492 24 QCURVE SMOOTH",
"492 17 OFFCURVE",
"522 17 QCURVE SMOOTH",
"530 17 OFFCURVE",
"567 19 QCURVE SMOOTH",
"601 21 OFFCURVE",
"679 21 QCURVE SMOOTH",
"705 21 LINE SMOOTH",
"720 21 OFFCURVE",
"727 25 OFFCURVE",
"727 32 QCURVE SMOOTH",
"727 42 OFFCURVE",
"691 56 OFFCURVE",
"665 56 QCURVE SMOOTH",
"642 56 OFFCURVE",
"639 64 QCURVE",
"622 104 OFFCURVE",
"622 120 OFFCURVE",
"612 159 QCURVE SMOOTH",
"600 202 OFFCURVE",
"597 226 QCURVE SMOOTH",
"592 257 OFFCURVE",
"588 267 QCURVE SMOOTH",
"582 281 OFFCURVE",
"582 316 OFFCURVE",
"576 330 QCURVE",
"575 333 OFFCURVE",
"549 450 OFFCURVE",
"543 459 QCURVE",
"537 470 OFFCURVE",
"531 493 QCURVE",
"516 564 OFFCURVE",
"492 618 QCURVE SMOOTH",
"480 645 OFFCURVE",
"478 660 QCURVE",
"471 696 OFFCURVE",
"421 701 QCURVE",
"419 701 OFFCURVE",
"385 708 OFFCURVE",
"377 708 QCURVE SMOOTH",
"367 708 OFFCURVE",
"363 703 QCURVE",
"362 699 OFFCURVE",
"329 699 QCURVE SMOOTH",
"275 699 OFFCURVE",
"275 669 OFFCURVE",
"306 669 QCURVE SMOOTH",
"311 669 LINE",
"334 671 OFFCURVE",
"334 665 QCURVE SMOOTH",
"334 656 OFFCURVE",
"300 558 OFFCURVE",
"286 527 QCURVE SMOOTH",
"277 505 OFFCURVE",
"262 469 OFFCURVE",
"244 419 OFFCURVE",
"236 397 QCURVE SMOOTH",
"179 249 OFFCURVE",
"156 179 QCURVE SMOOTH",
"150 157 OFFCURVE",
"135 121 OFFCURVE",
"124 87 OFFCURVE",
"116 52 QCURVE",
"113 41 OFFCURVE",
"90 41 OFFCURVE",
"64 29 OFFCURVE",
"64 24 QCURVE SMOOTH",
"64 19 OFFCURVE",
"95 8 OFFCURVE",
"108 8 QCURVE SMOOTH",
"115 8 OFFCURVE",
"120 10 QCURVE",
"129 16 OFFCURVE",
"184 16 QCURVE SMOOTH",
"269 16 OFFCURVE",
"269 50 OFFCURVE",
"212 50 QCURVE SMOOTH",
"175 50 OFFCURVE",
"175 63 QCURVE SMOOTH",
"175 65 OFFCURVE",
"179 77 QCURVE",
"184 85 OFFCURVE",
"195 134 QCURVE SMOOTH",
"206 180 OFFCURVE",
"214 180 QCURVE SMOOTH",
"229 180 OFFCURVE",
"247 185 QCURVE SMOOTH",
"273 190 OFFCURVE",
"275 188 QCURVE",
"496 179 LINE"
);
}
);
width = 792;
}
);
note = A;
unicode = 0041;
changeCount = 1;
},
{
glyphname = B;
lastChange = "2019-08-01 17:43:18 +0000";
layers = (
{
layerId = "E500A8E6-E294-45A2-B471-DD4095F9D5BF";
paths = (
{
closed = 1;
nodes = (
"399 238 OFFCURVE",
"399 151 QCURVE SMOOTH",
"399 83 OFFCURVE",
"374 59 OFFCURVE",
"304 57 QCURVE SMOOTH",
"276 57 LINE SMOOTH",
"237 57 OFFCURVE",
"232 59 QCURVE",
"229 63 OFFCURVE",
"229 74 QCURVE SMOOTH",
"229 87 OFFCURVE",
"232 124 QCURVE SMOOTH",
"239 188 OFFCURVE",
"239 216 QCURVE SMOOTH",
"240 256 OFFCURVE",
"244 271 OFFCURVE",
"253 273 QCURVE",
"259 274 OFFCURVE",
"313 274 QCURVE SMOOTH",
"362 273 OFFCURVE",
"374 262 QCURVE SMOOTH"
);
},
{
closed = 1;
nodes = (
"327 647 OFFCURVE",
"400 601 OFFCURVE",
"408 580 QCURVE",
"414 569 OFFCURVE",
"414 540 QCURVE SMOOTH",
"414 512 OFFCURVE",
"408 507 QCURVE SMOOTH",
"405 503 OFFCURVE",
"400 486 QCURVE",
"396 471 OFFCURVE",
"377 453 OFFCURVE",
"367 432 QCURVE SMOOTH",
"339 378 OFFCURVE",
"279 349 QCURVE SMOOTH",
"251 335 OFFCURVE",
"241 335 QCURVE SMOOTH",
"238 335 OFFCURVE",
"238 338 QCURVE SMOOTH",
"238 340 OFFCURVE",
"241 344 QCURVE SMOOTH",
"247 353 OFFCURVE",
"247 410 QCURVE SMOOTH",
"247 656 OFFCURVE",
"251 666 QCURVE",
"252 669 OFFCURVE",
"285 660 QCURVE SMOOTH"
);
},
{
closed = 1;
nodes = (
"482 436 OFFCURVE",
"494 456 QCURVE SMOOTH",
"520 496 OFFCURVE",
"520 553 QCURVE SMOOTH",
"520 581 OFFCURVE",
"511 600 QCURVE SMOOTH",
"498 625 OFFCURVE",
"452 665 OFFCURVE",
"405 691 QCURVE SMOOTH",
"350 722 OFFCURVE",
"246 722 QCURVE SMOOTH",
"218 722 OFFCURVE",
"193 718 QCURVE SMOOTH",
"173 715 OFFCURVE",
"145 707 QCURVE",
"121 698 OFFCURVE",
"105 695 QCURVE SMOOTH",
"82 692 OFFCURVE",
"82 680 QCURVE SMOOTH",
"82 673 OFFCURVE",
"101 663 OFFCURVE",
"116 663 QCURVE SMOOTH",
"135 663 LINE",
"138 637 LINE SMOOTH",
"143 596 OFFCURVE",
"143 427 QCURVE SMOOTH",
"143 256 OFFCURVE",
"138 201 QCURVE SMOOTH",
"132 129 OFFCURVE",
"130 83 QCURVE SMOOTH",
"129 48 LINE",
"109 44 LINE SMOOTH",
"95 42 OFFCURVE",
"66 26 OFFCURVE",
"66 21 QCURVE SMOOTH",
"66 18 OFFCURVE",
"79 10 QCURVE",
"93 3 OFFCURVE",
"122 3 QCURVE SMOOTH",
"136 3 LINE SMOOTH",
"147 3 OFFCURVE",
"262 6 OFFCURVE",
"297 8 QCURVE SMOOTH",
"414 10 LINE",
"446 26 LINE SMOOTH",
"480 43 OFFCURVE",
"507 86 OFFCURVE",
"518 137 QCURVE SMOOTH",
"526 177 OFFCURVE",
"526 190 QCURVE SMOOTH",
"526 197 OFFCURVE",
"523 202 QCURVE",
"518 210 OFFCURVE",
"518 220 QCURVE SMOOTH",
"518 233 OFFCURVE",
"496 286 OFFCURVE",
"486 295 QCURVE SMOOTH",
"476 305 OFFCURVE",
"442 323 QCURVE SMOOTH",
"408 340 LINE",
"428 359 LINE SMOOTH",
"447 379 OFFCURVE",
"447 384 QCURVE SMOOTH",
"447 386 OFFCURVE",
"482 430 OFFCURVE",
"482 432 QCURVE SMOOTH"
);
}
);
width = 590;
}
);
note = B;
unicode = 0042;
changeCount = 1;
},
{
glyphname = C;
lastChange = "2019-08-01 17:43:18 +0000";
layers = (
{
layerId = "E500A8E6-E294-45A2-B471-DD4095F9D5BF";
paths = (
{
closed = 1;
nodes = (
"230 693 OFFCURVE",
"225 693 QCURVE SMOOTH",
"223 693 OFFCURVE",
"212 684 QCURVE",
"210 683 OFFCURVE",
"164 646 OFFCURVE",
"124 610 OFFCURVE",
"124 606 QCURVE SMOOTH",
"124 600 OFFCURVE",
"117 593 QCURVE",
"110 587 OFFCURVE",
"82 525 QCURVE SMOOTH",
"62 480 OFFCURVE",
"62 389 QCURVE SMOOTH",
"62 238 OFFCURVE",
"102 159 QCURVE SMOOTH",
"124 114 OFFCURVE",
"251 52 OFFCURVE",
"317 48 QCURVE",
"328 47 OFFCURVE",
"344 47 QCURVE SMOOTH",
"363 47 OFFCURVE",
"399 60 QCURVE SMOOTH",
"493 97 OFFCURVE",
"512 150 QCURVE SMOOTH",
"516 163 OFFCURVE",
"537 172 QCURVE",
"555 179 OFFCURVE",
"555 187 QCURVE SMOOTH",
"555 206 OFFCURVE",
"473 206 QCURVE SMOOTH",
"466 206 LINE SMOOTH",
"414 206 OFFCURVE",
"404 195 QCURVE SMOOTH",
"397 187 OFFCURVE",
"398 182 OFFCURVE",
"404 178 QCURVE SMOOTH",
"413 171 OFFCURVE",
"427 171 QCURVE SMOOTH",
"439 171 OFFCURVE",
"439 157 OFFCURVE",
"424 143 QCURVE SMOOTH",
"382 105 OFFCURVE",
"350 105 QCURVE SMOOTH",
"306 105 OFFCURVE",
"258 139 QCURVE SMOOTH",
"238 151 OFFCURVE",
"235 151 QCURVE SMOOTH",
"230 151 OFFCURVE",
"230 157 QCURVE SMOOTH",
"230 159 OFFCURVE",
"222 178 QCURVE SMOOTH",
"213 198 OFFCURVE",
"212 218 QCURVE",
"209 234 OFFCURVE",
"202 257 OFFCURVE",
"199 281 OFFCURVE",
"197 307 QCURVE SMOOTH",
"192 367 OFFCURVE",
"187 385 QCURVE SMOOTH",
"184 400 OFFCURVE",
"184 420 QCURVE SMOOTH",
"184 462 OFFCURVE",
"194 481 QCURVE",
"200 491 OFFCURVE",
"200 507 QCURVE SMOOTH",
"200 555 OFFCURVE",
"250 607 QCURVE SMOOTH",
"277 637 OFFCURVE",
"315 655 OFFCURVE",
"348 656 QCURVE SMOOTH",
"365 656 LINE SMOOTH",
"385 656 OFFCURVE",
"394 647 QCURVE",
"416 623 OFFCURVE",
"425 574 QCURVE",
"427 565 OFFCURVE",
"428 557 OFFCURVE",
"425 550 OFFCURVE",
"422 548 OFFCURVE",
"416 546 QCURVE SMOOTH",
"405 541 OFFCURVE",
"381 522 OFFCURVE",
"381 512 OFFCURVE",
"400 507 QCURVE SMOOTH",
"421 501 OFFCURVE",
"432 512 OFFCURVE",
"455 512 QCURVE SMOOTH",
"476 512 OFFCURVE",
"506 522 QCURVE SMOOTH",
"534 530 OFFCURVE",
"535 541 QCURVE",
"537 553 OFFCURVE",
"530 553 QCURVE SMOOTH",
"529 553 OFFCURVE",
"512 555 OFFCURVE",
"506 555 QCURVE",
"488 557 OFFCURVE",
"486 557 QCURVE",
"498 581 LINE SMOOTH",
"509 606 OFFCURVE",
"509 618 QCURVE SMOOTH",
"509 630 OFFCURVE",
"496 660 QCURVE",
"483 684 OFFCURVE",
"421 714 OFFCURVE",
"382 714 QCURVE SMOOTH",
"378 714 LINE SMOOTH",
"359 714 OFFCURVE",
"347 717 QCURVE SMOOTH",
"344 718 OFFCURVE",
"336 718 QCURVE SMOOTH",
"316 718 OFFCURVE",
"255 704 OFFCURVE",
"244 699 QCURVE"
);
}
);
width = 620;
}
);
note = C;
unicode = 0043;
changeCount = 1;
},
{
glyphname = D;
lastChange = "2019-08-01 17:43:18 +0000";
layers = (
{
layerId = "E500A8E6-E294-45A2-B471-DD4095F9D5BF";
paths = (
{
closed = 1;
nodes = (
"521 624 OFFCURVE",
"528 339 QCURVE SMOOTH",
"528 295 OFFCURVE",
"523 269 QCURVE SMOOTH",
"513 208 OFFCURVE",
"488 148 OFFCURVE",
"454 125 QCURVE SMOOTH",
"416 98 OFFCURVE",
"369 82 OFFCURVE",
"334 82 QCURVE SMOOTH",
"323 82 LINE",
"274 83 LINE",
"276 173 LINE SMOOTH",
"277 217 OFFCURVE",
"277 341 QCURVE SMOOTH",
"277 569 OFFCURVE",
"274 614 QCURVE SMOOTH",
"270 652 LINE",
"297 655 LINE SMOOTH",
"367 666 OFFCURVE",
"416 672 QCURVE SMOOTH",
"425 673 OFFCURVE",
"445 676 OFFCURVE",
"457 678 OFFCURVE",
"458 678 QCURVE SMOOTH",
"460 678 OFFCURVE",
"477 663 QCURVE SMOOTH"
);
},
{
closed = 1;
nodes = (
"615 177 OFFCURVE",
"623 201 QCURVE SMOOTH",
"630 221 OFFCURVE",
"639 278 QCURVE SMOOTH",
"646 317 OFFCURVE",
"646 344 QCURVE SMOOTH",
"646 367 OFFCURVE",
"643 413 QCURVE SMOOTH",
"634 551 OFFCURVE",
"608 608 QCURVE",
"603 619 OFFCURVE",
"595 643 QCURVE SMOOTH",
"585 675 OFFCURVE",
"528 703 QCURVE SMOOTH",
"497 719 LINE",
"408 721 LINE SMOOTH",
"357 721 OFFCURVE",
"282 716 QCURVE SMOOTH",
"263 715 OFFCURVE",
"231 709 OFFCURVE",
"215 709 QCURVE SMOOTH",
"198 709 OFFCURVE",
"178 703 QCURVE",
"168 700 OFFCURVE",
"113 695 QCURVE SMOOTH",
"81 693 OFFCURVE",
"66 687 OFFCURVE",
"66 677 QCURVE SMOOTH",
"66 657 OFFCURVE",
"105 655 QCURVE SMOOTH",
"121 654 OFFCURVE",
"129 648 OFFCURVE",
"133 635 QCURVE",
"139 617 OFFCURVE",
"144 533 QCURVE SMOOTH",
"146 491 OFFCURVE",
"146 339 QCURVE SMOOTH",
"146 131 OFFCURVE",
"141 103 QCURVE SMOOTH",
"139 87 OFFCURVE",
"132 78 OFFCURVE",
"122 75 QCURVE",
"113 74 OFFCURVE",
"101 68 QCURVE SMOOTH",
"97 66 OFFCURVE",
"101 45 OFFCURVE",
"107 42 QCURVE",
"115 40 OFFCURVE",
"169 37 QCURVE",
"221 37 OFFCURVE",
"288 33 QCURVE SMOOTH",
"339 29 OFFCURVE",
"371 29 QCURVE SMOOTH",
"427 29 OFFCURVE",
"468 43 QCURVE SMOOTH",
"505 56 OFFCURVE",
"519 70 OFFCURVE",
"530 72 QCURVE",
"538 74 OFFCURVE",
"587 118 OFFCURVE",
"587 124 QCURVE SMOOTH",
"587 127 OFFCURVE",
"613 159 OFFCURVE",
"613 160 QCURVE"
);
}
);
width = 708;
}
);
note = D;
unicode = 0044;
changeCount = 1;
},
{
glyphname = E;
lastChange = "2019-08-01 17:43:18 +0000";
layers = (
{
layerId = "E500A8E6-E294-45A2-B471-DD4095F9D5BF";
paths = (
{
closed = 1;
nodes = (
"288 719 OFFCURVE",
"105 702 QCURVE",
"91 698 OFFCURVE",
"84 696 QCURVE",
"68 693 OFFCURVE",
"68 680 QCURVE SMOOTH",
"68 672 OFFCURVE",
"82 658 OFFCURVE",
"107 658 OFFCURVE",
"116 645 OFFCURVE",
"117 619 QCURVE SMOOTH",
"120 573 OFFCURVE",
"120 471 QCURVE SMOOTH",
"120 74 OFFCURVE",
"113 63 QCURVE",
"108 56 OFFCURVE",
"83 49 OFFCURVE",
"64 35 OFFCURVE",
"64 29 QCURVE SMOOTH",
"64 25 OFFCURVE",
"71 25 QCURVE SMOOTH",
"77 25 OFFCURVE",
"84 18 QCURVE",
"90 11 OFFCURVE",
"108 11 QCURVE SMOOTH",
"125 11 OFFCURVE",
"139 16 QCURVE",
"148 18 OFFCURVE",
"156 18 QCURVE SMOOTH",
"166 18 OFFCURVE",
"186 16 QCURVE",
"191 14 OFFCURVE",
"215 14 QCURVE SMOOTH",
"260 14 OFFCURVE",
"501 25 OFFCURVE",
"509 25 QCURVE SMOOTH",
"557 25 OFFCURVE",
"566 44 QCURVE SMOOTH",
"568 49 OFFCURVE",
"568 70 QCURVE SMOOTH",
"568 74 OFFCURVE",
"567 93 OFFCURVE",
"567 98 QCURVE",
"565 132 OFFCURVE",
"560 143 OFFCURVE",
"550 144 QCURVE",
"545 144 LINE SMOOTH",
"516 144 OFFCURVE",
"516 105 QCURVE SMOOTH",
"516 81 LINE",
"475 79 LINE SMOOTH",
"385 74 OFFCURVE",
"331 74 QCURVE SMOOTH",
"299 74 LINE",
"250 75 LINE",
"250 156 LINE",
"250 178 LINE SMOOTH",
"250 221 OFFCURVE",
"261 247 OFFCURVE",
"289 247 QCURVE SMOOTH",
"297 247 OFFCURVE",
"352 242 QCURVE",
"377 241 OFFCURVE",
"393 235 OFFCURVE",
"396 227 QCURVE",
"399 219 OFFCURVE",
"419 215 OFFCURVE",
"423 221 QCURVE",
"430 233 OFFCURVE",
"430 304 QCURVE SMOOTH",
"430 321 OFFCURVE",
"429 325 QCURVE SMOOTH",
"425 336 OFFCURVE",
"414 336 QCURVE SMOOTH",
"396 336 OFFCURVE",
"396 304 QCURVE SMOOTH",
"396 287 LINE",
"324 289 LINE",
"253 290 LINE",
"254 473 LINE SMOOTH",
"256 655 OFFCURVE",
"259 660 QCURVE",
"260 663 OFFCURVE",
"383 663 QCURVE SMOOTH",
"506 662 LINE",
"511 633 LINE",
"523 574 OFFCURVE",
"532 570 QCURVE",
"534 569 OFFCURVE",
"537 569 QCURVE SMOOTH",
"546 569 OFFCURVE",
"566 595 OFFCURVE",
"570 612 QCURVE",
"576 638 OFFCURVE",
"584 648 QCURVE",
"592 656 OFFCURVE",
"587 661 QCURVE",
"581 664 OFFCURVE",
"583 681 QCURVE",
"584 685 OFFCURVE",
"584 689 QCURVE SMOOTH",
"584 703 OFFCURVE",
"539 714 OFFCURVE",
"467 716 QCURVE SMOOTH",
"329 719 OFFCURVE",
"300 719 QCURVE SMOOTH",
"289 719 LINE SMOOTH"
);
}
);
width = 653;
}
);
note = E;
unicode = 0045;
changeCount = 1;
},
{
glyphname = F;
lastChange = "2019-08-01 17:43:18 +0000";
layers = (
{
layerId = "E500A8E6-E294-45A2-B471-DD4095F9D5BF";
paths = (
{
closed = 1;
nodes = (
"123 700 OFFCURVE",
"98 698 QCURVE SMOOTH",
"66 694 OFFCURVE",
"66 680 QCURVE SMOOTH",
"66 668 OFFCURVE",
"95 668 QCURVE SMOOTH",
"121 668 OFFCURVE",
"124 657 QCURVE SMOOTH",
"140 614 OFFCURVE",
"143 289 QCURVE SMOOTH",
"143 80 OFFCURVE",
"147 66 QCURVE",
"151 57 OFFCURVE",
"146 55 OFFCURVE",
"133 57 QCURVE",
"115 59 OFFCURVE",
"107 52 QCURVE",
"100 48 OFFCURVE",
"101 41 OFFCURVE",
"112 33 QCURVE SMOOTH",
"126 21 OFFCURVE",
"179 16 QCURVE SMOOTH",
"223 10 OFFCURVE",
"247 10 QCURVE SMOOTH",
"269 10 OFFCURVE",
"285 12 QCURVE",
"302 13 OFFCURVE",
"324 26 OFFCURVE",
"324 33 QCURVE SMOOTH",
"324 43 OFFCURVE",
"301 43 QCURVE SMOOTH",
"298 43 OFFCURVE",
"274 44 OFFCURVE",
"268 44 QCURVE",
"256 45 OFFCURVE",
"255 52 QCURVE",
"260 57 OFFCURVE",
"262 124 QCURVE SMOOTH",
"263 188 LINE",
"291 188 OFFCURVE",
"399 190 OFFCURVE",
"425 190 QCURVE",
"428 171 LINE SMOOTH",
"431 148 OFFCURVE",
"445 148 QCURVE SMOOTH",
"450 148 OFFCURVE",
"457 151 QCURVE",
"467 157 OFFCURVE",
"467 216 QCURVE SMOOTH",
"467 257 OFFCURVE",
"461 285 OFFCURVE",
"452 285 QCURVE SMOOTH",
"450 285 OFFCURVE",
"440 282 QCURVE",
"428 278 OFFCURVE",
"423 256 QCURVE SMOOTH",
"419 235 LINE",
"392 234 OFFCURVE",
"291 231 OFFCURVE",
"265 231 QCURVE",
"267 250 LINE SMOOTH",
"270 278 OFFCURVE",
"274 370 QCURVE SMOOTH",
"276 469 OFFCURVE",
"278 479 QCURVE",
"279 481 OFFCURVE",
"278 502 OFFCURVE",
"276 511 QCURVE",
"271 539 OFFCURVE",
"269 600 QCURVE SMOOTH",
"267 663 LINE",
"393 661 LINE SMOOTH",
"531 658 OFFCURVE",
"532 658 QCURVE SMOOTH",
"541 658 OFFCURVE",
"546 652 OFFCURVE",
"549 639 QCURVE",
"552 611 OFFCURVE",
"565 611 QCURVE SMOOTH",
"569 611 OFFCURVE",
"574 616 QCURVE SMOOTH",
"582 624 OFFCURVE",
"582 631 QCURVE SMOOTH",
"582 642 OFFCURVE",
"569 689 OFFCURVE",
"562 694 OFFCURVE",
"482 696 QCURVE SMOOTH",
"459 696 OFFCURVE",
"300 701 OFFCURVE",
"266 701 QCURVE SMOOTH",
"176 703 OFFCURVE",
"155 703 QCURVE SMOOTH",
"137 703 OFFCURVE",
"125 702 QCURVE"
);
}
);
width = 647;
}
);
note = F;
unicode = 0046;
changeCount = 1;
},
{
glyphname = G;
lastChange = "2019-08-01 17:43:18 +0000";
layers = (
{
layerId = "E500A8E6-E294-45A2-B471-DD4095F9D5BF";
paths = (
{
closed = 1;
nodes = (
"518 141 OFFCURVE",
"518 226 QCURVE SMOOTH",
"518 239 LINE",
"515 279 LINE",
"503 278 LINE",
"489 275 OFFCURVE",
"482 286 QCURVE",
"469 303 OFFCURVE",
"459 289 QCURVE",
"452 282 OFFCURVE",
"365 282 OFFCURVE",
"351 275 QCURVE SMOOTH",
"342 271 OFFCURVE",
"329 252 OFFCURVE",
"334 248 QCURVE SMOOTH",
"336 246 OFFCURVE",
"381 246 QCURVE SMOOTH",
"421 244 OFFCURVE",
"442 241 OFFCURVE",
"442 232 QCURVE SMOOTH",
"442 231 OFFCURVE",
"439 219 QCURVE",
"436 196 OFFCURVE",
"411 126 OFFCURVE",
"400 110 QCURVE SMOOTH",
"388 91 OFFCURVE",
"360 78 QCURVE SMOOTH",
"337 66 OFFCURVE",
"323 66 QCURVE SMOOTH",
"320 66 OFFCURVE",
"297 68 QCURVE SMOOTH",
"235 74 OFFCURVE",
"201 111 QCURVE SMOOTH",
"170 146 OFFCURVE",
"170 311 QCURVE SMOOTH",
"170 328 LINE SMOOTH",
"170 425 OFFCURVE",
"174 432 QCURVE",
"177 440 OFFCURVE",
"179 476 QCURVE SMOOTH",
"181 504 OFFCURVE",
"192 546 QCURVE",
"201 573 OFFCURVE",
"201 587 QCURVE SMOOTH",
"201 596 OFFCURVE",
"227 624 QCURVE SMOOTH",
"251 650 LINE",
"290 649 LINE SMOOTH",
"358 649 OFFCURVE",
"384 619 QCURVE SMOOTH",
"398 604 OFFCURVE",
"446 516 OFFCURVE",
"453 493 QCURVE SMOOTH",
"455 485 OFFCURVE",
"462 466 OFFCURVE",
"467 454 OFFCURVE",
"467 453 QCURVE",
"468 449 OFFCURVE",
"467 448 QCURVE",
"467 448 OFFCURVE",
"466 449 QCURVE",
"465 449 LINE SMOOTH",
"459 449 OFFCURVE",
"438 430 OFFCURVE",
"438 425 QCURVE SMOOTH",
"438 419 OFFCURVE",
"483 413 QCURVE SMOOTH",
"507 410 OFFCURVE",
"521 410 QCURVE SMOOTH",
"550 410 OFFCURVE",
"554 427 QCURVE SMOOTH",
"559 445 OFFCURVE",
"534 445 QCURVE SMOOTH",
"526 445 OFFCURVE",
"520 450 OFFCURVE",
"520 459 QCURVE",
"519 492 OFFCURVE",
"491 576 OFFCURVE",
"480 584 QCURVE SMOOTH",
"473 588 OFFCURVE",
"473 595 QCURVE SMOOTH",
"473 603 OFFCURVE",
"467 609 QCURVE SMOOTH",
"460 616 OFFCURVE",
"454 629 QCURVE",
"450 640 OFFCURVE",
"404 672 OFFCURVE",
"402 673 QCURVE",
"393 686 OFFCURVE",
"317 686 QCURVE SMOOTH",
"289 686 OFFCURVE",
"268 683 QCURVE SMOOTH",
"250 679 OFFCURVE",
"160 633 OFFCURVE",
"138 615 QCURVE SMOOTH",
"102 586 OFFCURVE",
"78 495 QCURVE SMOOTH",
"66 449 OFFCURVE",
"63 340 QCURVE SMOOTH",
"63 331 OFFCURVE",
"62 296 OFFCURVE",
"62 288 QCURVE SMOOTH",
"62 160 OFFCURVE",
"94 112 QCURVE SMOOTH",
"113 86 OFFCURVE",
"168 41 OFFCURVE",
"184 41 QCURVE SMOOTH",
"192 41 OFFCURVE",
"192 36 QCURVE SMOOTH",
"192 31 OFFCURVE",
"237 14 OFFCURVE",
"263 12 QCURVE",
"270 11 OFFCURVE",
"289 11 QCURVE SMOOTH",
"324 11 OFFCURVE",
"399 22 OFFCURVE",
"400 28 QCURVE",
"402 35 OFFCURVE",
"412 35 QCURVE SMOOTH",
"416 35 OFFCURVE",
"459 60 OFFCURVE",
"466 60 OFFCURVE",
"497 95 OFFCURVE",
"501 103 QCURVE"
);
}
);
width = 620;
}
);
note = G;
unicode = 0047;
changeCount = 1;
},
{
glyphname = H;
lastChange = "2019-08-01 17:43:18 +0000";
layers = (
{
layerId = "E500A8E6-E294-45A2-B471-DD4095F9D5BF";
paths = (
{
closed = 1;
nodes = (
"559 338 LINE",
"559 350 OFFCURVE",
"559 388 OFFCURVE",
"559 405 QCURVE SMOOTH",
"559 478 OFFCURVE",
"558 480 QCURVE",
"555 486 OFFCURVE",
"551 520 QCURVE SMOOTH",
"537 633 OFFCURVE",
"530 664 QCURVE SMOOTH",
"527 683 LINE",
"545 679 LINE",
"550 678 OFFCURVE",
"559 678 QCURVE SMOOTH",
"590 678 OFFCURVE",
"608 694 QCURVE",
"614 700 OFFCURVE",
"614 707 QCURVE SMOOTH",
"614 718 OFFCURVE",
"597 718 QCURVE SMOOTH",
"595 718 OFFCURVE",
"573 716 OFFCURVE",
"537 714 OFFCURVE",
"522 712 QCURVE SMOOTH",
"458 709 OFFCURVE",
"445 698 QCURVE",
"436 687 OFFCURVE",
"434 680 QCURVE SMOOTH",
"432 677 OFFCURVE",
"438 680 QCURVE",
"443 683 OFFCURVE",
"460 676 QCURVE",
"473 670 OFFCURVE",
"478 660 OFFCURVE",
"481 637 QCURVE SMOOTH",
"491 540 OFFCURVE",
"491 409 QCURVE SMOOTH",
"491 373 LINE SMOOTH",
"489 271 OFFCURVE",
"486 269 QCURVE SMOOTH",
"483 265 OFFCURVE",
"401 259 OFFCURVE",
"300 252 OFFCURVE",
"282 249 QCURVE SMOOTH",
"263 246 LINE",
"265 290 LINE SMOOTH",
"267 336 OFFCURVE",
"270 342 QCURVE",
"273 346 OFFCURVE",
"273 489 QCURVE SMOOTH",
"273 638 OFFCURVE",
"270 649 QCURVE SMOOTH",
"268 662 OFFCURVE",
"270 668 OFFCURVE",
"279 668 QCURVE SMOOTH",
"285 668 OFFCURVE",
"299 671 QCURVE",
"306 673 OFFCURVE",
"307 696 OFFCURVE",
"301 701 QCURVE",
"293 706 OFFCURVE",
"179 706 QCURVE SMOOTH",
"129 706 OFFCURVE",
"116 704 QCURVE",
"95 703 OFFCURVE",
"67 688 OFFCURVE",
"67 679 QCURVE SMOOTH",
"67 675 OFFCURVE",
"95 672 QCURVE",
"124 671 LINE",
"128 650 LINE SMOOTH",
"132 620 OFFCURVE",
"132 390 QCURVE SMOOTH",
"132 220 OFFCURVE",
"129 144 QCURVE SMOOTH",
"125 51 LINE",
"109 48 LINE",
"92 43 OFFCURVE",
"79 31 QCURVE",
"66 16 LINE",
"82 12 LINE",
"109 9 OFFCURVE",
"125 9 QCURVE SMOOTH",
"152 9 OFFCURVE",
"152 -3 OFFCURVE",
"178 2 QCURVE SMOOTH",
"184 3 OFFCURVE",
"258 9 OFFCURVE",
"302 21 OFFCURVE",
"302 33 QCURVE SMOOTH",
"302 35 OFFCURVE",
"301 37 QCURVE",
"299 44 OFFCURVE",
"274 56 OFFCURVE",
"260 56 QCURVE SMOOTH",
"247 56 LINE",
"250 106 LINE",
"253 149 OFFCURVE",
"253 179 QCURVE SMOOTH",
"253 200 OFFCURVE",
"256 205 QCURVE",
"265 217 OFFCURVE",
"439 223 QCURVE SMOOTH",
"486 224 LINE",
"486 135 LINE SMOOTH",
"486 72 OFFCURVE",
"483 48 OFFCURVE",
"475 47 QCURVE SMOOTH",
"466 45 OFFCURVE",
"450 28 OFFCURVE",
"450 21 QCURVE SMOOTH",
"450 12 OFFCURVE",
"529 -9 OFFCURVE",
"555 -9 QCURVE SMOOTH",
"558 -9 OFFCURVE",
"565 -7 OFFCURVE",
"566 -7 QCURVE",
"598 -1 OFFCURVE",
"598 16 QCURVE SMOOTH",
"598 26 OFFCURVE",
"581 33 QCURVE",
"564 41 OFFCURVE",
"564 49 QCURVE SMOOTH",
"564 51 OFFCURVE",
"558 325 OFFCURVE",
"558 326 QCURVE"
);
}
);
width = 682;
}
);
note = H;
unicode = 0048;
changeCount = 1;
},
{
glyphname = I;
lastChange = "2019-08-01 17:43:18 +0000";
layers = (
{
layerId = "E500A8E6-E294-45A2-B471-DD4095F9D5BF";
paths = (
{
closed = 1;
nodes = (
"67 677 OFFCURVE",
"108 677 QCURVE SMOOTH",
"115 677 OFFCURVE",
"140 678 OFFCURVE",
"146 678 QCURVE SMOOTH",
"173 678 OFFCURVE",
"173 672 QCURVE SMOOTH",
"173 662 OFFCURVE",
"178 627 QCURVE",
"184 579 OFFCURVE",
"190 354 QCURVE SMOOTH",
"194 209 OFFCURVE",
"197 201 QCURVE",
"199 196 OFFCURVE",
"199 166 QCURVE SMOOTH",
"199 159 OFFCURVE",
"198 128 OFFCURVE",
"198 120 QCURVE SMOOTH",
"197 45 LINE",
"183 45 LINE SMOOTH",
"144 45 OFFCURVE",
"130 27 QCURVE",
"126 24 OFFCURVE",
"126 19 QCURVE SMOOTH",
"126 5 OFFCURVE",
"168 5 QCURVE SMOOTH",
"197 5 OFFCURVE",
"199 1 QCURVE SMOOTH",
"200 -2 OFFCURVE",
"248 -2 QCURVE SMOOTH",
"339 -2 OFFCURVE",
"360 3 QCURVE",
"392 13 OFFCURVE",
"392 27 QCURVE SMOOTH",
"392 34 OFFCURVE",
"385 39 QCURVE",
"377 45 OFFCURVE",
"359 45 QCURVE SMOOTH",
"348 45 OFFCURVE",
"342 44 QCURVE",
"308 41 LINE",
"307 57 LINE",
"307 317 LINE SMOOTH",
"307 612 OFFCURVE",
"292 683 QCURVE",
"291 687 OFFCURVE",
"297 691 OFFCURVE",
"305 691 QCURVE SMOOTH",
"379 693 OFFCURVE",
"379 716 QCURVE SMOOTH",
"379 719 OFFCURVE",
"376 725 QCURVE",
"371 731 OFFCURVE",
"359 731 QCURVE SMOOTH",
"358 731 OFFCURVE",
"321 729 QCURVE",
"305 726 OFFCURVE",
"281 726 QCURVE SMOOTH",
"263 726 OFFCURVE",
"259 729 QCURVE",
"246 732 OFFCURVE",
"236 732 QCURVE SMOOTH",
"217 732 OFFCURVE",
"146 708 OFFCURVE",
"112 708 OFFCURVE",
"67 693 OFFCURVE",
"67 687 QCURVE SMOOTH"
);
}
);
width = 459;
}
);
note = I;
unicode = 0049;
changeCount = 1;
},
{
glyphname = J;
lastChange = "2019-08-01 17:43:18 +0000";
layers = (
{
layerId = "E500A8E6-E294-45A2-B471-DD4095F9D5BF";
paths = (
{
closed = 1;
nodes = (
"455 723 OFFCURVE",
"386 721 QCURVE SMOOTH",
"185 714 OFFCURVE",
"170 698 QCURVE",
"164 691 OFFCURVE",
"164 685 OFFCURVE",
"170 679 QCURVE SMOOTH",
"178 671 OFFCURVE",
"228 671 QCURVE SMOOTH",
"277 671 LINE",
"276 515 LINE SMOOTH",
"276 205 OFFCURVE",
"265 149 QCURVE SMOOTH",
"260 127 OFFCURVE",
"240 82 OFFCURVE",
"233 78 QCURVE",
"231 77 OFFCURVE",
"228 77 QCURVE SMOOTH",
"213 77 OFFCURVE",
"183 103 QCURVE SMOOTH",
"158 126 OFFCURVE",
"155 127 QCURVE",
"150 129 OFFCURVE",
"129 166 OFFCURVE",
"129 174 QCURVE SMOOTH",
"129 186 OFFCURVE",
"109 201 OFFCURVE",
"98 201 QCURVE SMOOTH",
"85 201 OFFCURVE",
"76 192 QCURVE",
"64 179 OFFCURVE",
"64 159 QCURVE SMOOTH",
"64 139 OFFCURVE",
"77 114 QCURVE SMOOTH",
"103 63 OFFCURVE",
"171 18 OFFCURVE",
"224 18 QCURVE SMOOTH",
"267 18 OFFCURVE",
"294 33 QCURVE SMOOTH",
"338 56 OFFCURVE",
"359 96 QCURVE SMOOTH",
"385 149 OFFCURVE",
"388 201 QCURVE",
"400 343 OFFCURVE",
"400 510 QCURVE SMOOTH",
"402 671 LINE",
"440 677 LINE SMOOTH",
"505 687 OFFCURVE",
"505 702 QCURVE SMOOTH",
"505 712 OFFCURVE",
"488 729 OFFCURVE",
"476 729 QCURVE SMOOTH",
"461 729 OFFCURVE",
"459 726 QCURVE SMOOTH"
);
}
);
width = 569;
}
);
note = J;
unicode = 004A;
changeCount = 1;
},
{
glyphname = K;
lastChange = "2019-08-01 17:43:18 +0000";
layers = (
{
layerId = "E500A8E6-E294-45A2-B471-DD4095F9D5BF";
paths = (
{
closed = 1;
nodes = (
"169 729 OFFCURVE",
"132 729 QCURVE SMOOTH",
"69 727 OFFCURVE",
"66 707 QCURVE",
"66 706 OFFCURVE",
"64 703 OFFCURVE",
"64 702 QCURVE SMOOTH",
"64 688 OFFCURVE",
"107 688 QCURVE SMOOTH",
"126 688 OFFCURVE",
"136 685 OFFCURVE",
"136 677 QCURVE SMOOTH",
"136 670 OFFCURVE",
"143 654 OFFCURVE",
"143 649 QCURVE SMOOTH",
"143 643 OFFCURVE",
"141 640 QCURVE SMOOTH",
"137 625 OFFCURVE",
"141 610 QCURVE",
"146 593 OFFCURVE",
"148 453 QCURVE SMOOTH",
"154 127 OFFCURVE",
"169 89 QCURVE SMOOTH",
"178 65 OFFCURVE",
"167 65 QCURVE SMOOTH",
"158 65 OFFCURVE",
"136 47 OFFCURVE",
"136 39 QCURVE SMOOTH",
"136 35 OFFCURVE",
"141 31 OFFCURVE",
"161 26 OFFCURVE",
"195 24 OFFCURVE",
"224 22 QCURVE",
"238 21 OFFCURVE",
"258 21 QCURVE SMOOTH",
"281 21 OFFCURVE",
"288 28 QCURVE SMOOTH",
"296 36 OFFCURVE",
"296 45 QCURVE SMOOTH",
"296 56 OFFCURVE",
"283 59 QCURVE",
"282 59 LINE",
"276 62 OFFCURVE",
"274 64 QCURVE",
"268 71 OFFCURVE",
"263 166 QCURVE",
"262 179 OFFCURVE",
"262 186 QCURVE",
"258 273 LINE",
"285 309 LINE SMOOTH",
"313 344 OFFCURVE",
"315 346 QCURVE",
"319 346 OFFCURVE",
"340 305 OFFCURVE",
"362 263 OFFCURVE",
"363 262 QCURVE SMOOTH",
"366 259 OFFCURVE",
"394 206 QCURVE SMOOTH",
"474 58 OFFCURVE",
"474 45 QCURVE SMOOTH",
"474 41 OFFCURVE",
"460 41 QCURVE SMOOTH",
"450 41 OFFCURVE",
"437 28 OFFCURVE",
"440 22 QCURVE",
"444 18 OFFCURVE",
"498 18 QCURVE SMOOTH",
"580 18 OFFCURVE",
"601 25 QCURVE",
"614 29 OFFCURVE",
"622 36 OFFCURVE",
"621 42 QCURVE",
"620 54 OFFCURVE",
"603 55 QCURVE SMOOTH",
"588 56 OFFCURVE",
"574 73 OFFCURVE",
"558 111 QCURVE",
"549 131 OFFCURVE",
"526 174 OFFCURVE",
"519 188 QCURVE SMOOTH",
"499 227 OFFCURVE",
"493 234 QCURVE SMOOTH",
"482 248 OFFCURVE",
"482 257 QCURVE SMOOTH",
"482 265 OFFCURVE",
"475 267 QCURVE",
"462 273 OFFCURVE",
"421 370 QCURVE SMOOTH",
"415 382 OFFCURVE",
"384 407 OFFCURVE",
"373 407 QCURVE SMOOTH",
"359 407 OFFCURVE",
"359 413 QCURVE SMOOTH",
"359 422 OFFCURVE",
"384 470 OFFCURVE",
"398 487 QCURVE SMOOTH",
"412 503 OFFCURVE",
"412 509 QCURVE SMOOTH",
"412 512 OFFCURVE",
"446 564 QCURVE",
"465 589 OFFCURVE",
"498 646 QCURVE SMOOTH",
"511 668 OFFCURVE",
"523 677 OFFCURVE",
"538 678 QCURVE SMOOTH",
"572 680 OFFCURVE",
"572 695 QCURVE SMOOTH",
"572 698 OFFCURVE",
"569 702 QCURVE",
"565 710 OFFCURVE",
"532 714 QCURVE",
"499 716 OFFCURVE",
"498 712 QCURVE",
"496 708 OFFCURVE",
"477 708 QCURVE SMOOTH",
"448 708 OFFCURVE",
"448 691 QCURVE SMOOTH",
"448 684 OFFCURVE",
"457 676 QCURVE SMOOTH",
"467 665 LINE",
"444 632 LINE SMOOTH",
"412 584 OFFCURVE",
"330 468 QCURVE SMOOTH",
"265 372 OFFCURVE",
"260 372 QCURVE SMOOTH",
"251 372 OFFCURVE",
"251 488 QCURVE SMOOTH",
"251 548 OFFCURVE",
"239 673 OFFCURVE",
"233 683 QCURVE",
"233 687 OFFCURVE",
"245 689 QCURVE",
"256 691 OFFCURVE",
"274 706 QCURVE SMOOTH",
"284 715 OFFCURVE",
"286 719 OFFCURVE",
"279 724 QCURVE",
"268 731 OFFCURVE",
"252 731 QCURVE",
"228 734 OFFCURVE",
"208 734 QCURVE SMOOTH",
"194 734 OFFCURVE",
"187 733 QCURVE"
);
}
);
width = 688;
}
);
note = K;
unicode = 004B;
changeCount = 1;
},
{
glyphname = L;
lastChange = "2019-08-01 17:43:18 +0000";
layers = (
{
layerId = "E500A8E6-E294-45A2-B471-DD4095F9D5BF";
paths = (
{
closed = 1;
nodes = (
"182 703 OFFCURVE",
"131 701 QCURVE SMOOTH",
"82 699 OFFCURVE",
"71 688 QCURVE",
"66 680 OFFCURVE",
"66 677 QCURVE SMOOTH",
"66 666 OFFCURVE",
"97 665 QCURVE",
"118 665 OFFCURVE",
"125 658 QCURVE SMOOTH",
"136 648 OFFCURVE",
"136 560 QCURVE SMOOTH",
"136 528 OFFCURVE",
"135 512 QCURVE",
"135 505 OFFCURVE",
"133 464 OFFCURVE",
"133 441 OFFCURVE",
"135 399 OFFCURVE",
"135 389 QCURVE",
"137 348 OFFCURVE",
"137 285 QCURVE SMOOTH",
"137 269 OFFCURVE",
"136 204 OFFCURVE",
"136 188 QCURVE SMOOTH",
"135 52 LINE",
"117 52 LINE SMOOTH",
"85 52 OFFCURVE",
"85 32 QCURVE SMOOTH",
"85 29 LINE",
"86 27 OFFCURVE",
"86 26 QCURVE",
"91 11 OFFCURVE",
"191 11 QCURVE SMOOTH",
"235 11 LINE SMOOTH",
"269 11 OFFCURVE",
"382 12 OFFCURVE",
"402 12 QCURVE SMOOTH",
"429 12 OFFCURVE",
"494 11 OFFCURVE",
"499 11 QCURVE SMOOTH",
"507 11 LINE SMOOTH",
"530 11 OFFCURVE",
"545 19 QCURVE SMOOTH",
"564 28 LINE",
"565 66 LINE SMOOTH",
"565 105 OFFCURVE",
"546 121 OFFCURVE",
"532 116 QCURVE SMOOTH",
"522 111 OFFCURVE",
"522 93 OFFCURVE",
"523 85 QCURVE SMOOTH",
"527 58 LINE",
"481 57 OFFCURVE",
"297 57 OFFCURVE",
"251 56 QCURVE",
"248 70 LINE",
"247 74 OFFCURVE",
"247 100 QCURVE SMOOTH",
"247 254 OFFCURVE",
"255 264 QCURVE SMOOTH",
"259 269 OFFCURVE",
"256 279 QCURVE SMOOTH",
"253 296 OFFCURVE",
"253 462 QCURVE SMOOTH",
"253 634 OFFCURVE",
"248 646 QCURVE",
"244 656 OFFCURVE",
"256 663 QCURVE",
"268 669 OFFCURVE",
"275 666 QCURVE",
"278 663 OFFCURVE",
"298 670 QCURVE",
"315 677 OFFCURVE",
"315 689 QCURVE SMOOTH",
"315 699 OFFCURVE",
"304 700 QCURVE",
"278 706 OFFCURVE",
"198 706 QCURVE SMOOTH",
"189 706 OFFCURVE",
"183 704 QCURVE"
);
}
);
width = 629;
}
);
note = L;
unicode = 004C;
changeCount = 1;
},
{
glyphname = M;
lastChange = "2019-08-01 17:43:18 +0000";
layers = (
{
layerId = "E500A8E6-E294-45A2-B471-DD4095F9D5BF";
paths = (
{
closed = 1;
nodes = (
"66 708 OFFCURVE",
"66 695 QCURVE SMOOTH",
"66 680 OFFCURVE",
"110 677 QCURVE SMOOTH",
"131 675 OFFCURVE",
"138 668 QCURVE SMOOTH",
"144 662 OFFCURVE",
"145 367 QCURVE SMOOTH",
"145 67 OFFCURVE",
"144 62 QCURVE",
"140 50 OFFCURVE",
"129 50 QCURVE SMOOTH",
"120 50 OFFCURVE",
"101 32 OFFCURVE",
"101 22 QCURVE SMOOTH",
"101 14 OFFCURVE",
"151 8 OFFCURVE",
"235 4 OFFCURVE",
"240 3 QCURVE",
"268 1 OFFCURVE",
"273 1 QCURVE SMOOTH",
"289 1 OFFCURVE",
"299 8 QCURVE",
"312 17 OFFCURVE",
"312 25 QCURVE SMOOTH",
"312 45 OFFCURVE",
"275 45 QCURVE SMOOTH",
"254 45 LINE",
"255 100 LINE SMOOTH",
"267 578 OFFCURVE",
"273 578 QCURVE SMOOTH",
"274 578 OFFCURVE",
"276 572 QCURVE SMOOTH",
"285 549 OFFCURVE",
"305 509 QCURVE SMOOTH",
"332 451 OFFCURVE",
"412 273 OFFCURVE",
"412 269 QCURVE SMOOTH",
"412 263 OFFCURVE",
"416 261 QCURVE",
"423 258 OFFCURVE",
"465 148 QCURVE SMOOTH",
"494 71 OFFCURVE",
"504 56 QCURVE",
"509 50 OFFCURVE",
"518 50 QCURVE SMOOTH",
"532 50 OFFCURVE",
"547 65 QCURVE SMOOTH",
"576 95 OFFCURVE",
"593 192 QCURVE SMOOTH",
"611 275 OFFCURVE",
"616 287 QCURVE",
"622 305 OFFCURVE",
"628 340 QCURVE SMOOTH",
"631 364 OFFCURVE",
"652 445 OFFCURVE",
"656 464 QCURVE SMOOTH",
"658 479 OFFCURVE",
"668 509 OFFCURVE",
"670 524 QCURVE SMOOTH",
"674 542 OFFCURVE",
"676 542 QCURVE SMOOTH",
"687 542 OFFCURVE",
"687 459 QCURVE SMOOTH",
"687 455 OFFCURVE",
"685 431 OFFCURVE",
"685 425 QCURVE",
"684 393 OFFCURVE",
"674 235 OFFCURVE",
"668 102 OFFCURVE",
"668 57 QCURVE SMOOTH",
"668 47 OFFCURVE",
"653 43 QCURVE SMOOTH",
"636 39 OFFCURVE",
"633 31 QCURVE",
"630 26 OFFCURVE",
"630 24 QCURVE SMOOTH",
"630 10 OFFCURVE",
"703 9 QCURVE SMOOTH",
"764 9 OFFCURVE",
"775 17 QCURVE SMOOTH",
"788 26 OFFCURVE",
"788 40 OFFCURVE",
"774 43 QCURVE",
"752 48 OFFCURVE",
"737 89 OFFCURVE",
"737 154 QCURVE SMOOTH",
"737 202 OFFCURVE",
"741 290 QCURVE SMOOTH",
"746 425 OFFCURVE",
"746 473 QCURVE SMOOTH",
"746 482 LINE SMOOTH",
"746 488 OFFCURVE",
"744 519 OFFCURVE",
"742 569 OFFCURVE",
"741 587 QCURVE SMOOTH",
"737 671 LINE",
"750 679 LINE SMOOTH",
"761 686 OFFCURVE",
"761 693 QCURVE SMOOTH",
"761 710 OFFCURVE",
"699 710 QCURVE SMOOTH",
"681 710 LINE",
"613 707 OFFCURVE",
"598 691 QCURVE",
"596 686 OFFCURVE",
"596 685 QCURVE SMOOTH",
"596 679 OFFCURVE",
"608 670 OFFCURVE",
"616 670 QCURVE SMOOTH",
"621 670 LINE",
"624 671 OFFCURVE",
"629 671 QCURVE SMOOTH",
"636 671 OFFCURVE",
"636 662 QCURVE SMOOTH",
"636 646 OFFCURVE",
"613 565 QCURVE SMOOTH",
"555 365 OFFCURVE",
"538 264 QCURVE SMOOTH",
"515 143 OFFCURVE",
"508 143 OFFCURVE",
"498 175 QCURVE",
"488 212 OFFCURVE",
"482 215 QCURVE",
"477 217 OFFCURVE",
"477 227 QCURVE SMOOTH",
"477 242 OFFCURVE",
"447 292 QCURVE",
"440 301 OFFCURVE",
"422 353 QCURVE SMOOTH",
"415 372 OFFCURVE",
"412 374 QCURVE",
"407 379 OFFCURVE",
"407 386 QCURVE SMOOTH",
"407 394 OFFCURVE",
"394 419 QCURVE SMOOTH",
"346 519 OFFCURVE",
"323 565 QCURVE SMOOTH",
"301 612 OFFCURVE",
"297 625 QCURVE SMOOTH",
"288 653 OFFCURVE",
"284 660 QCURVE",
"279 668 OFFCURVE",
"296 671 QCURVE SMOOTH",
"348 683 OFFCURVE",
"351 692 QCURVE",
"352 694 OFFCURVE",
"352 696 QCURVE SMOOTH",
"352 712 OFFCURVE",
"297 712 QCURVE SMOOTH",
"284 712 LINE SMOOTH",
"238 712 OFFCURVE",
"181 715 QCURVE",
"168 716 OFFCURVE",
"144 716 QCURVE SMOOTH",
"116 716 OFFCURVE",
"110 715 QCURVE"
);
}
);
width = 853;
}
);
note = M;
unicode = 004D;
changeCount = 1;
},
{
glyphname = N;
lastChange = "2019-08-01 17:43:18 +0000";
layers = (
{
layerId = "E500A8E6-E294-45A2-B471-DD4095F9D5BF";
paths = (
{
closed = 1;
nodes = (
"145 687 OFFCURVE",
"118 687 QCURVE SMOOTH",
"107 687 LINE",
"86 687 LINE SMOOTH",
"69 687 OFFCURVE",
"68 681 QCURVE",
"68 680 OFFCURVE",
"67 679 QCURVE",
"67 678 LINE SMOOTH",
"67 668 OFFCURVE",
"110 661 QCURVE",
"139 657 LINE",
"143 634 LINE SMOOTH",
"145 620 OFFCURVE",
"145 602 QCURVE SMOOTH",
"145 588 OFFCURVE",
"143 556 QCURVE SMOOTH",
"139 497 OFFCURVE",
"139 303 QCURVE SMOOTH",
"139 142 OFFCURVE",
"143 100 QCURVE SMOOTH",
"145 52 LINE",
"130 44 LINE SMOOTH",
"114 36 OFFCURVE",
"114 25 QCURVE SMOOTH",
"114 18 OFFCURVE",
"132 14 OFFCURVE",
"176 14 QCURVE SMOOTH",
"240 14 OFFCURVE",
"275 8 OFFCURVE",
"291 12 QCURVE SMOOTH",
"300 14 OFFCURVE",
"305 21 OFFCURVE",
"304 29 QCURVE SMOOTH",
"302 39 OFFCURVE",
"297 43 OFFCURVE",
"288 42 QCURVE",
"278 42 LINE SMOOTH",
"263 42 OFFCURVE",
"256 63 OFFCURVE",
"255 101 QCURVE SMOOTH",
"254 125 OFFCURVE",
"251 163 OFFCURVE",
"251 171 QCURVE SMOOTH",
"251 187 OFFCURVE",
"255 238 QCURVE",
"260 323 OFFCURVE",
"260 372 QCURVE SMOOTH",
"260 427 OFFCURVE",
"265 459 QCURVE SMOOTH",
"268 489 LINE",
"279 459 LINE",
"288 441 OFFCURVE",
"345 280 OFFCURVE",
"355 258 QCURVE",
"359 250 OFFCURVE",
"425 100 OFFCURVE",
"439 75 QCURVE",
"454 47 OFFCURVE",
"454 42 QCURVE SMOOTH",
"454 39 OFFCURVE",
"443 22 OFFCURVE",
"443 20 QCURVE SMOOTH",
"443 13 OFFCURVE",
"486 10 OFFCURVE",
"557 8 QCURVE SMOOTH",
"611 8 OFFCURVE",
"611 22 QCURVE SMOOTH",
"611 29 OFFCURVE",
"593 37 QCURVE",
"573 45 OFFCURVE",
"561 43 QCURVE SMOOTH",
"549 41 OFFCURVE",
"541 52 OFFCURVE",
"549 60 QCURVE",
"557 70 OFFCURVE",
"557 139 QCURVE SMOOTH",
"557 512 OFFCURVE",
"549 633 QCURVE SMOOTH",
"547 666 LINE",
"569 666 LINE",
"600 669 OFFCURVE",
"600 677 QCURVE SMOOTH",
"600 680 OFFCURVE",
"593 686 QCURVE",
"590 688 OFFCURVE",
"580 696 OFFCURVE",
"578 696 QCURVE",
"575 700 OFFCURVE",
"513 702 QCURVE",
"485 702 LINE SMOOTH",
"450 702 OFFCURVE",
"440 694 QCURVE SMOOTH",
"432 687 OFFCURVE",
"432 683 QCURVE SMOOTH",
"432 675 OFFCURVE",
"458 671 QCURVE SMOOTH",
"481 668 LINE",
"477 609 LINE SMOOTH",
"474 512 OFFCURVE",
"474 335 QCURVE SMOOTH",
"474 131 OFFCURVE",
"467 131 QCURVE SMOOTH",
"465 131 OFFCURVE",
"453 160 QCURVE SMOOTH",
"429 228 OFFCURVE",
"407 272 QCURVE SMOOTH",
"379 327 OFFCURVE",
"365 385 QCURVE SMOOTH",
"361 399 OFFCURVE",
"353 419 QCURVE",
"347 432 OFFCURVE",
"320 509 OFFCURVE",
"313 524 QCURVE SMOOTH",
"300 551 OFFCURVE",
"300 568 OFFCURVE",
"296 570 QCURVE",
"292 572 OFFCURVE",
"285 596 QCURVE SMOOTH",
"278 623 OFFCURVE",
"269 638 QCURVE",
"258 655 OFFCURVE",
"268 662 QCURVE SMOOTH",
"276 668 OFFCURVE",
"286 668 QCURVE SMOOTH",
"292 668 OFFCURVE",
"297 675 OFFCURVE",
"292 686 OFFCURVE",
"288 691 QCURVE SMOOTH",
"281 698 OFFCURVE",
"265 692 QCURVE",
"248 687 OFFCURVE",
"244 692 QCURVE",
"232 701 OFFCURVE",
"193 701 QCURVE SMOOTH",
"159 701 OFFCURVE",
"150 692 QCURVE SMOOTH"
);
}
);
width = 676;
}
);
note = N;
unicode = 004E;
changeCount = 1;
},
{
glyphname = O;
lastChange = "2019-08-01 17:43:18 +0000";
layers = (
{
layerId = "E500A8E6-E294-45A2-B471-DD4095F9D5BF";
paths = (
{
closed = 1;
nodes = (
"430 629 OFFCURVE",
"448 604 OFFCURVE",
"461 578 QCURVE SMOOTH",
"477 545 OFFCURVE",
"503 453 OFFCURVE",
"503 428 QCURVE SMOOTH",
"503 411 OFFCURVE",
"507 393 QCURVE SMOOTH",
"509 384 OFFCURVE",
"509 376 QCURVE SMOOTH",
"509 366 OFFCURVE",
"507 348 QCURVE SMOOTH",
"497 275 LINE SMOOTH",
"493 244 OFFCURVE",
"471 170 OFFCURVE",
"463 159 QCURVE",
"459 155 OFFCURVE",
"450 136 QCURVE SMOOTH",
"442 119 OFFCURVE",
"397 73 OFFCURVE",
"383 67 QCURVE",
"369 63 OFFCURVE",
"362 63 QCURVE SMOOTH",
"360 63 OFFCURVE",
"328 67 QCURVE SMOOTH",
"288 74 OFFCURVE",
"273 82 QCURVE",
"255 90 OFFCURVE",
"201 154 OFFCURVE",
"195 172 QCURVE SMOOTH",
"185 206 LINE SMOOTH",
"178 227 OFFCURVE",
"178 264 QCURVE SMOOTH",
"178 319 OFFCURVE",
"195 436 QCURVE SMOOTH",
"210 535 OFFCURVE",
"248 574 QCURVE",
"268 596 OFFCURVE",
"282 616 QCURVE SMOOTH",
"307 650 OFFCURVE",
"330 668 OFFCURVE",
"353 668 QCURVE SMOOTH",
"371 668 OFFCURVE",
"390 661 OFFCURVE",
"411 645 QCURVE SMOOTH"
);
},
{
closed = 1;
nodes = (
"552 627 OFFCURVE",
"529 648 QCURVE SMOOTH",
"521 655 OFFCURVE",
"497 677 OFFCURVE",
"494 679 QCURVE",
"483 688 OFFCURVE",
"476 688 OFFCURVE",
"455 699 QCURVE",
"432 709 OFFCURVE",
"375 710 QCURVE SMOOTH",
"368 710 OFFCURVE",
"348 711 OFFCURVE",
"345 711 QCURVE SMOOTH",
"319 711 OFFCURVE",
"277 693 OFFCURVE",
"269 693 QCURVE SMOOTH",
"245 693 OFFCURVE",
"141 597 OFFCURVE",
"121 557 QCURVE SMOOTH",
"63 441 OFFCURVE",
"63 286 QCURVE SMOOTH",
"63 258 OFFCURVE",
"64 225 OFFCURVE",
"70 198 OFFCURVE",
"75 187 OFFCURVE",
"89 158 OFFCURVE",
"92 148 QCURVE",
"116 95 OFFCURVE",
"199 54 QCURVE SMOOTH",
"252 27 OFFCURVE",
"344 27 QCURVE SMOOTH",
"373 27 OFFCURVE",
"399 31 QCURVE SMOOTH",
"429 35 OFFCURVE",
"452 43 OFFCURVE",
"468 56 QCURVE SMOOTH",
"491 74 OFFCURVE",
"508 82 QCURVE",
"521 87 OFFCURVE",
"542 109 OFFCURVE",
"565 143 QCURVE SMOOTH",
"595 187 OFFCURVE",
"619 277 OFFCURVE",
"621 351 QCURVE SMOOTH",
"622 371 OFFCURVE",
"622 397 QCURVE SMOOTH",
"622 428 OFFCURVE",
"614 462 QCURVE SMOOTH",
"611 478 OFFCURVE",
"606 501 OFFCURVE",
"605 510 OFFCURVE",
"603 523 OFFCURVE",
"595 541 OFFCURVE",
"587 558 QCURVE SMOOTH",
"583 565 OFFCURVE",
"583 573 QCURVE SMOOTH",
"583 577 OFFCURVE",
"552 616 OFFCURVE",
"552 620 QCURVE SMOOTH"
);
}
);
width = 684;
}
);
note = O;
unicode = 004F;
changeCount = 1;
},
{
glyphname = P;
lastChange = "2019-08-01 17:43:18 +0000";
layers = (
{
layerId = "E500A8E6-E294-45A2-B471-DD4095F9D5BF";
paths = (
{
closed = 1;
nodes = (
"413 646 OFFCURVE",
"455 612 OFFCURVE",
"467 578 QCURVE SMOOTH",
"476 551 OFFCURVE",
"476 477 QCURVE SMOOTH",
"476 419 OFFCURVE",
"470 402 QCURVE",
"460 365 OFFCURVE",
"399 326 QCURVE SMOOTH",
"383 316 OFFCURVE",
"315 290 OFFCURVE",
"305 290 QCURVE SMOOTH",
"301 290 OFFCURVE",
"301 292 QCURVE",
"296 298 OFFCURVE",
"291 457 QCURVE SMOOTH",
"288 569 OFFCURVE",
"282 630 QCURVE SMOOTH",
"277 668 LINE",
"300 668 LINE SMOOTH",
"323 668 OFFCURVE",
"365 657 QCURVE SMOOTH"
);
},
{
closed = 1;
nodes = (
"170 729 OFFCURVE",
"162 729 QCURVE SMOOTH",
"136 729 OFFCURVE",
"70 707 OFFCURVE",
"67 696 QCURVE",
"66 694 OFFCURVE",
"66 692 QCURVE SMOOTH",
"66 681 OFFCURVE",
"89 681 QCURVE SMOOTH",
"101 681 LINE",
"109 683 OFFCURVE",
"123 683 QCURVE SMOOTH",
"140 683 OFFCURVE",
"153 672 OFFCURVE",
"155 660 QCURVE SMOOTH",
"160 634 OFFCURVE",
"174 432 QCURVE SMOOTH",
"192 152 OFFCURVE",
"192 148 QCURVE SMOOTH",
"194 68 LINE",
"174 60 LINE SMOOTH",
"151 52 OFFCURVE",
"151 34 OFFCURVE",
"189 27 OFFCURVE",
"256 22 QCURVE SMOOTH",
"270 21 OFFCURVE",
"290 21 QCURVE SMOOTH",
"316 21 OFFCURVE",
"340 28 QCURVE SMOOTH",
"370 36 OFFCURVE",
"371 40 QCURVE",
"373 41 OFFCURVE",
"373 44 QCURVE SMOOTH",
"373 58 OFFCURVE",
"335 64 QCURVE",
"307 66 LINE",
"305 162 LINE",
"304 256 LINE",
"328 258 LINE SMOOTH",
"340 259 OFFCURVE",
"368 270 QCURVE SMOOTH",
"389 278 OFFCURVE",
"421 281 QCURVE SMOOTH",
"446 285 OFFCURVE",
"529 318 OFFCURVE",
"547 332 QCURVE SMOOTH",
"557 339 OFFCURVE",
"581 371 OFFCURVE",
"581 378 QCURVE SMOOTH",
"581 386 OFFCURVE",
"585 390 QCURVE SMOOTH",
"591 396 OFFCURVE",
"593 442 QCURVE",
"593 446 OFFCURVE",
"595 459 OFFCURVE",
"595 463 QCURVE SMOOTH",
"595 542 OFFCURVE",
"570 595 QCURVE",
"559 618 OFFCURVE",
"478 699 OFFCURVE",
"459 707 QCURVE SMOOTH",
"408 729 OFFCURVE",
"353 729 QCURVE SMOOTH",
"336 729 OFFCURVE",
"329 735 OFFCURVE",
"283 735 QCURVE SMOOTH",
"236 735 OFFCURVE",
"212 732 QCURVE"
);
}
);
width = 659;
}
);
note = P;
unicode = 0050;
changeCount = 1;
},
{
glyphname = Q;
lastChange = "2019-08-01 17:43:18 +0000";
layers = (
{
layerId = "E500A8E6-E294-45A2-B471-DD4095F9D5BF";
paths = (
{
closed = 1;
nodes = (
"430 647 OFFCURVE",
"444 631 OFFCURVE",
"457 606 QCURVE",
"474 566 OFFCURVE",
"474 553 OFFCURVE",
"478 553 QCURVE SMOOTH",
"482 553 OFFCURVE",
"489 526 QCURVE SMOOTH",
"494 503 OFFCURVE",
"500 494 QCURVE",
"503 492 OFFCURVE",
"503 477 QCURVE SMOOTH",
"503 435 OFFCURVE",
"494 425 QCURVE",
"490 418 OFFCURVE",
"490 392 QCURVE",
"489 370 OFFCURVE",
"475 271 OFFCURVE",
"471 262 QCURVE",
"471 261 OFFCURVE",
"463 233 OFFCURVE",
"455 211 OFFCURVE",
"452 211 QCURVE SMOOTH",
"444 211 OFFCURVE",
"419 223 QCURVE SMOOTH",
"397 233 OFFCURVE",
"373 233 QCURVE SMOOTH",
"359 233 LINE",
"329 231 OFFCURVE",
"314 226 OFFCURVE",
"314 218 QCURVE SMOOTH",
"314 212 LINE",
"315 203 OFFCURVE",
"325 196 OFFCURVE",
"340 193 QCURVE",
"361 187 OFFCURVE",
"373 174 OFFCURVE",
"381 148 QCURVE SMOOTH",
"388 126 OFFCURVE",
"388 114 QCURVE SMOOTH",
"388 101 OFFCURVE",
"367 88 QCURVE SMOOTH",
"345 75 OFFCURVE",
"329 75 QCURVE SMOOTH",
"314 75 OFFCURVE",
"292 85 QCURVE SMOOTH",
"277 90 OFFCURVE",
"223 142 OFFCURVE",
"223 150 QCURVE SMOOTH",
"223 154 OFFCURVE",
"213 164 QCURVE SMOOTH",
"193 185 OFFCURVE",
"166 321 OFFCURVE",
"166 385 QCURVE SMOOTH",
"166 430 OFFCURVE",
"174 453 QCURVE SMOOTH",
"183 478 OFFCURVE",
"183 492 QCURVE SMOOTH",
"183 507 OFFCURVE",
"195 532 QCURVE SMOOTH",
"207 555 OFFCURVE",
"207 561 QCURVE",
"202 574 OFFCURVE",
"224 603 QCURVE SMOOTH",
"237 620 OFFCURVE",
"262 639 QCURVE SMOOTH",
"288 658 OFFCURVE",
"320 663 QCURVE SMOOTH",
"347 666 OFFCURVE",
"352 671 QCURVE SMOOTH",
"353 672 OFFCURVE",
"358 672 QCURVE SMOOTH",
"379 672 OFFCURVE",
"414 655 QCURVE SMOOTH"
);
},
{
closed = 1;
nodes = (
"313 701 OFFCURVE",
"277 692 QCURVE",
"260 688 OFFCURVE",
"232 678 OFFCURVE",
"197 660 OFFCURVE",
"190 656 QCURVE",
"169 645 OFFCURVE",
"112 588 OFFCURVE",
"109 576 QCURVE",
"107 558 OFFCURVE",
"99 542 QCURVE",
"63 463 OFFCURVE",
"63 341 QCURVE SMOOTH",
"63 336 OFFCURVE",
"64 318 OFFCURVE",
"64 315 QCURVE",
"68 247 OFFCURVE",
"81 213 QCURVE SMOOTH",
"106 148 OFFCURVE",
"166 89 QCURVE SMOOTH",
"182 73 OFFCURVE",
"197 64 QCURVE",
"265 26 OFFCURVE",
"307 26 QCURVE SMOOTH",
"319 26 OFFCURVE",
"351 31 QCURVE SMOOTH",
"378 35 OFFCURVE",
"381 35 QCURVE SMOOTH",
"384 35 OFFCURVE",
"389 34 OFFCURVE",
"393 31 OFFCURVE",
"396 28 OFFCURVE",
"399 20 OFFCURVE",
"401 16 OFFCURVE",
"406 3 OFFCURVE",
"408 -1 QCURVE",
"417 -22 OFFCURVE",
"457 -61 OFFCURVE",
"477 -67 QCURVE SMOOTH",
"523 -79 OFFCURVE",
"576 -79 QCURVE SMOOTH",
"599 -79 OFFCURVE",
"599 -73 QCURVE SMOOTH",
"599 -66 OFFCURVE",
"569 -44 OFFCURVE",
"554 -42 QCURVE",
"539 -38 OFFCURVE",
"524 -14 OFFCURVE",
"519 18 QCURVE SMOOTH",
"513 51 OFFCURVE",
"508 58 QCURVE",
"504 64 OFFCURVE",
"506 72 QCURVE",
"509 77 OFFCURVE",
"505 105 QCURVE SMOOTH",
"500 132 LINE",
"524 163 LINE SMOOTH",
"559 209 OFFCURVE",
"581 279 QCURVE SMOOTH",
"607 362 OFFCURVE",
"607 478 QCURVE SMOOTH",
"607 526 OFFCURVE",
"591 558 OFFCURVE",
"584 581 QCURVE SMOOTH",
"578 600 OFFCURVE",
"561 624 OFFCURVE",
"554 640 QCURVE SMOOTH",
"531 692 OFFCURVE",
"497 692 QCURVE SMOOTH",
"493 692 LINE SMOOTH",
"480 692 OFFCURVE",
"475 695 QCURVE",
"470 698 OFFCURVE",
"413 706 OFFCURVE",
"401 706 QCURVE SMOOTH",
"398 706 LINE",
"389 701 OFFCURVE",
"350 701 QCURVE SMOOTH",
"330 701 OFFCURVE",
"325 703 QCURVE",
"320 708 OFFCURVE",
"315 703 QCURVE SMOOTH"
);
}
);
width = 669;
}
);
note = Q;
unicode = 0051;
changeCount = 1;
},
{
glyphname = R;
lastChange = "2019-08-01 17:43:18 +0000";
layers = (
{
layerId = "E500A8E6-E294-45A2-B471-DD4095F9D5BF";
paths = (
{
closed = 1;
nodes = (
"408 632 OFFCURVE",
"430 616 QCURVE SMOOTH",
"453 600 OFFCURVE",
"470 551 OFFCURVE",
"470 504 QCURVE SMOOTH",
"470 448 OFFCURVE",
"439 388 OFFCURVE",
"394 354 QCURVE SMOOTH",
"335 308 OFFCURVE",
"292 298 QCURVE SMOOTH",
"276 295 LINE",
"279 397 LINE SMOOTH",
"282 501 OFFCURVE",
"282 503 QCURVE SMOOTH",
"282 535 OFFCURVE",
"277 550 QCURVE",
"273 568 OFFCURVE",
"270 601 QCURVE SMOOTH",
"267 638 LINE",
"283 639 LINE",
"299 641 OFFCURVE",
"327 641 QCURVE SMOOTH",
"346 641 OFFCURVE",
"374 638 QCURVE"
);
},
{
closed = 1;
nodes = (
"131 698 OFFCURVE",
"116 698 QCURVE SMOOTH",
"109 698 LINE SMOOTH",
"66 698 OFFCURVE",
"66 686 QCURVE SMOOTH",
"66 678 OFFCURVE",
"82 662 OFFCURVE",
"91 661 QCURVE SMOOTH",
"99 660 OFFCURVE",
"106 658 OFFCURVE",
"108 657 OFFCURVE",
"120 653 OFFCURVE",
"129 650 QCURVE",
"140 648 OFFCURVE",
"147 638 OFFCURVE",
"151 619 QCURVE",
"156 594 OFFCURVE",
"156 568 QCURVE SMOOTH",
"156 542 OFFCURVE",
"161 541 QCURVE",
"167 539 OFFCURVE",
"167 293 QCURVE SMOOTH",
"167 152 LINE SMOOTH",
"167 77 OFFCURVE",
"161 41 OFFCURVE",
"150 41 QCURVE SMOOTH",
"140 41 LINE SMOOTH",
"129 41 OFFCURVE",
"106 31 OFFCURVE",
"106 25 QCURVE SMOOTH",
"106 12 OFFCURVE",
"159 12 QCURVE SMOOTH",
"166 12 LINE",
"173 12 LINE SMOOTH",
"194 12 OFFCURVE",
"229 5 QCURVE",
"255 -2 OFFCURVE",
"276 -2 QCURVE SMOOTH",
"311 -2 OFFCURVE",
"311 12 QCURVE SMOOTH",
"311 19 OFFCURVE",
"260 40 OFFCURVE",
"260 48 QCURVE SMOOTH",
"260 52 OFFCURVE",
"266 58 QCURVE SMOOTH",
"270 63 OFFCURVE",
"273 144 QCURVE SMOOTH",
"275 227 OFFCURVE",
"278 229 QCURVE",
"281 232 OFFCURVE",
"313 236 QCURVE SMOOTH",
"344 241 OFFCURVE",
"367 247 QCURVE SMOOTH",
"388 251 OFFCURVE",
"399 251 QCURVE SMOOTH",
"404 251 LINE",
"413 249 OFFCURVE",
"422 238 OFFCURVE",
"430 216 QCURVE",
"439 186 OFFCURVE",
"446 136 QCURVE SMOOTH",
"451 97 OFFCURVE",
"468 62 OFFCURVE",
"493 37 QCURVE SMOOTH",
"527 5 OFFCURVE",
"569 5 QCURVE SMOOTH",
"589 5 OFFCURVE",
"618 20 OFFCURVE",
"618 29 QCURVE SMOOTH",
"618 36 OFFCURVE",
"607 41 QCURVE SMOOTH",
"595 47 OFFCURVE",
"573 87 OFFCURVE",
"573 104 QCURVE SMOOTH",
"573 133 OFFCURVE",
"554 216 OFFCURVE",
"542 240 QCURVE SMOOTH",
"526 271 OFFCURVE",
"501 287 QCURVE SMOOTH",
"478 303 LINE",
"507 331 LINE SMOOTH",
"536 358 OFFCURVE",
"549 397 QCURVE SMOOTH",
"551 405 OFFCURVE",
"558 428 OFFCURVE",
"561 441 OFFCURVE",
"561 442 QCURVE SMOOTH",
"561 453 OFFCURVE",
"567 479 QCURVE SMOOTH",
"570 494 OFFCURVE",
"570 514 QCURVE SMOOTH",
"570 547 OFFCURVE",
"562 550 QCURVE",
"560 551 OFFCURVE",
"555 572 QCURVE",
"553 591 OFFCURVE",
"542 602 QCURVE",
"532 614 OFFCURVE",
"532 618 QCURVE SMOOTH",
"532 627 OFFCURVE",
"506 663 OFFCURVE",
"491 671 QCURVE",
"447 700 OFFCURVE",
"320 701 QCURVE SMOOTH",
"224 703 OFFCURVE",
"212 704 QCURVE",
"208 704 OFFCURVE",
"193 706 OFFCURVE",
"190 706 QCURVE SMOOTH",
"169 706 OFFCURVE",
"156 702 QCURVE"
);
}
);
width = 683;
}
);
note = R;
unicode = 0052;
changeCount = 1;
},
{
glyphname = S;
lastChange = "2019-08-01 17:43:18 +0000";
layers = (
{
layerId = "E500A8E6-E294-45A2-B471-DD4095F9D5BF";
paths = (
{
closed = 1;
nodes = (
"233 668 OFFCURVE",
"230 668 QCURVE SMOOTH",
"224 668 OFFCURVE",
"173 626 OFFCURVE",
"155 608 QCURVE SMOOTH",
"138 591 OFFCURVE",
"131 574 OFFCURVE",
"129 545 QCURVE SMOOTH",
"126 519 OFFCURVE",
"126 515 QCURVE SMOOTH",
"126 501 OFFCURVE",
"139 477 QCURVE SMOOTH",
"175 410 OFFCURVE",
"197 397 QCURVE SMOOTH",
"220 384 OFFCURVE",
"332 330 QCURVE SMOOTH",
"371 311 OFFCURVE",
"401 284 OFFCURVE",
"409 255 QCURVE",
"414 241 OFFCURVE",
"414 221 QCURVE SMOOTH",
"414 192 OFFCURVE",
"393 134 OFFCURVE",
"378 123 QCURVE SMOOTH",
"359 108 OFFCURVE",
"288 78 OFFCURVE",
"267 77 QCURVE SMOOTH",
"238 74 OFFCURVE",
"237 73 QCURVE",
"235 73 LINE SMOOTH",
"227 73 OFFCURVE",
"182 89 OFFCURVE",
"171 95 QCURVE",
"162 101 OFFCURVE",
"103 136 OFFCURVE",
"94 141 QCURVE SMOOTH",
"92 142 OFFCURVE",
"91 143 QCURVE",
"66 159 OFFCURVE",
"66 147 QCURVE SMOOTH",
"66 140 OFFCURVE",
"144 79 OFFCURVE",
"170 65 QCURVE SMOOTH",
"200 49 OFFCURVE",
"230 49 QCURVE SMOOTH",
"256 49 LINE SMOOTH",
"308 49 OFFCURVE",
"329 57 QCURVE",
"362 67 OFFCURVE",
"366 67 QCURVE",
"399 73 OFFCURVE",
"484 135 OFFCURVE",
"499 165 QCURVE SMOOTH",
"501 170 OFFCURVE",
"516 195 OFFCURVE",
"519 202 OFFCURVE",
"526 223 OFFCURVE",
"527 246 OFFCURVE",
"527 263 QCURVE SMOOTH",
"528 309 LINE",
"507 331 LINE SMOOTH",
"486 351 OFFCURVE",
"482 351 QCURVE SMOOTH",
"478 351 OFFCURVE",
"471 358 QCURVE SMOOTH",
"466 364 OFFCURVE",
"296 447 OFFCURVE",
"289 447 QCURVE SMOOTH",
"286 447 OFFCURVE",
"268 459 QCURVE SMOOTH",
"227 487 OFFCURVE",
"224 538 QCURVE",
"222 565 OFFCURVE",
"218 578 QCURVE",
"217 581 OFFCURVE",
"217 588 QCURVE SMOOTH",
"217 614 OFFCURVE",
"251 637 QCURVE SMOOTH",
"276 654 OFFCURVE",
"315 656 QCURVE",
"320 656 OFFCURVE",
"335 657 OFFCURVE",
"338 657 QCURVE SMOOTH",
"359 657 OFFCURVE",
"401 643 QCURVE SMOOTH",
"448 627 OFFCURVE",
"475 627 QCURVE SMOOTH",
"489 627 OFFCURVE",
"493 632 QCURVE",
"498 638 OFFCURVE",
"491 653 OFFCURVE",
"482 658 QCURVE",
"458 671 OFFCURVE",
"376 698 OFFCURVE",
"361 698 QCURVE SMOOTH",
"360 698 LINE SMOOTH",
"342 698 OFFCURVE",
"269 685 OFFCURVE",
"256 679 QCURVE"
);
}
);
width = 592;
}
);
note = S;
unicode = 0053;
changeCount = 1;
},
{
glyphname = T;
lastChange = "2019-08-01 17:43:18 +0000";
layers = (
{
layerId = "E500A8E6-E294-45A2-B471-DD4095F9D5BF";
paths = (
{
closed = 1;
nodes = (
"467 721 OFFCURVE",
"352 716 OFFCURVE",
"210 709 OFFCURVE",
"186 706 QCURVE",
"150 699 OFFCURVE",
"125 699 QCURVE SMOOTH",
"99 699 OFFCURVE",
"85 694 QCURVE SMOOTH",
"63 686 OFFCURVE",
"63 650 QCURVE SMOOTH",
"63 640 OFFCURVE",
"67 630 QCURVE",
"70 615 OFFCURVE",
"77 608 OFFCURVE",
"100 610 OFFCURVE",
"105 617 OFFCURVE",
"106 633 QCURVE SMOOTH",
"107 656 LINE",
"136 657 LINE",
"155 657 OFFCURVE",
"190 663 QCURVE SMOOTH",
"212 666 OFFCURVE",
"271 671 QCURVE SMOOTH",
"311 673 OFFCURVE",
"312 673 QCURVE SMOOTH",
"327 673 OFFCURVE",
"331 663 QCURVE",
"345 625 OFFCURVE",
"360 232 OFFCURVE",
"360 139 QCURVE SMOOTH",
"360 43 LINE",
"328 41 LINE",
"271 40 OFFCURVE",
"266 20 QCURVE",
"265 18 LINE",
"265 16 LINE SMOOTH",
"265 1 OFFCURVE",
"317 1 QCURVE SMOOTH",
"328 1 OFFCURVE",
"378 3 QCURVE SMOOTH",
"471 6 OFFCURVE",
"490 6 QCURVE SMOOTH",
"516 6 OFFCURVE",
"535 5 QCURVE",
"543 5 LINE SMOOTH",
"580 5 OFFCURVE",
"580 21 QCURVE SMOOTH",
"580 35 OFFCURVE",
"557 47 OFFCURVE",
"524 51 QCURVE SMOOTH",
"490 56 OFFCURVE",
"483 63 OFFCURVE",
"481 259 QCURVE SMOOTH",
"478 459 OFFCURVE",
"475 485 QCURVE",
"470 549 OFFCURVE",
"470 550 QCURVE SMOOTH",
"470 556 OFFCURVE",
"468 589 OFFCURVE",
"467 619 OFFCURVE",
"466 630 QCURVE SMOOTH",
"462 673 LINE",
"476 673 LINE SMOOTH",
"481 673 OFFCURVE",
"498 675 OFFCURVE",
"500 675 QCURVE SMOOTH",
"501 675 OFFCURVE",
"529 673 OFFCURVE",
"572 673 OFFCURVE",
"591 673 QCURVE SMOOTH",
"673 672 LINE",
"676 658 LINE",
"684 618 OFFCURVE",
"707 618 QCURVE SMOOTH",
"716 618 OFFCURVE",
"722 625 OFFCURVE",
"722 637 QCURVE SMOOTH",
"722 652 OFFCURVE",
"721 663 QCURVE SMOOTH",
"719 688 OFFCURVE",
"713 702 OFFCURVE",
"690 718 OFFCURVE",
"657 721 OFFCURVE",
"577 722 QCURVE SMOOTH",
"467 722 LINE"
);
}
);
width = 788;
}
);
note = T;
unicode = 0054;
changeCount = 1;
},
{
glyphname = U;
lastChange = "2019-08-01 17:43:18 +0000";
layers = (
{
layerId = "E500A8E6-E294-45A2-B471-DD4095F9D5BF";
paths = (
{
closed = 1;
nodes = (
"507 285 OFFCURVE",
"493 239 QCURVE",
"486 206 OFFCURVE",
"484 185 QCURVE SMOOTH",
"482 158 OFFCURVE",
"473 158 OFFCURVE",
"473 152 QCURVE SMOOTH",
"473 146 OFFCURVE",
"432 100 OFFCURVE",
"415 88 QCURVE",
"396 73 OFFCURVE",
"354 73 OFFCURVE",
"336 89 QCURVE SMOOTH",
"319 104 OFFCURVE",
"307 104 OFFCURVE",
"307 113 OFFCURVE",
"297 128 QCURVE",
"262 172 OFFCURVE",
"246 269 OFFCURVE",
"245 439 QCURVE",
"245 589 OFFCURVE",
"240 622 QCURVE",
"236 641 OFFCURVE",
"236 657 QCURVE SMOOTH",
"236 676 OFFCURVE",
"252 688 QCURVE SMOOTH",
"266 699 OFFCURVE",
"266 707 QCURVE SMOOTH",
"266 714 OFFCURVE",
"252 714 QCURVE SMOOTH",
"246 714 OFFCURVE",
"228 707 OFFCURVE",
"223 707 QCURVE SMOOTH",
"217 707 OFFCURVE",
"212 711 QCURVE",
"201 718 OFFCURVE",
"179 718 QCURVE SMOOTH",
"163 718 OFFCURVE",
"158 714 QCURVE",
"151 709 OFFCURVE",
"121 709 QCURVE SMOOTH",
"66 709 OFFCURVE",
"66 692 QCURVE SMOOTH",
"66 683 OFFCURVE",
"84 678 QCURVE",
"106 671 OFFCURVE",
"107 670 QCURVE SMOOTH",
"110 666 OFFCURVE",
"110 634 QCURVE SMOOTH",
"117 385 OFFCURVE",
"132 213 OFFCURVE",
"150 179 QCURVE SMOOTH",
"177 125 OFFCURVE",
"204 98 QCURVE SMOOTH",
"255 44 OFFCURVE",
"315 35 QCURVE SMOOTH",
"334 32 OFFCURVE",
"353 32 QCURVE SMOOTH",
"434 32 OFFCURVE",
"568 128 OFFCURVE",
"587 201 QCURVE",
"588 204 OFFCURVE",
"600 250 OFFCURVE",
"611 293 OFFCURVE",
"611 304 QCURVE SMOOTH",
"611 325 OFFCURVE",
"615 342 QCURVE",
"620 357 OFFCURVE",
"624 415 QCURVE",
"626 449 OFFCURVE",
"638 580 OFFCURVE",
"639 616 QCURVE SMOOTH",
"641 670 OFFCURVE",
"650 675 QCURVE",
"658 679 OFFCURVE",
"657 689 OFFCURVE",
"645 702 QCURVE",
"635 712 OFFCURVE",
"630 712 QCURVE SMOOTH",
"628 712 OFFCURVE",
"598 701 OFFCURVE",
"580 701 QCURVE SMOOTH",
"573 701 LINE SMOOTH",
"570 701 OFFCURVE",
"560 702 OFFCURVE",
"557 702 QCURVE SMOOTH",
"492 702 OFFCURVE",
"480 685 QCURVE SMOOTH",
"476 680 OFFCURVE",
"476 677 QCURVE SMOOTH",
"476 668 OFFCURVE",
"494 668 QCURVE SMOOTH",
"501 668 LINE SMOOTH",
"522 668 OFFCURVE",
"523 664 QCURVE",
"528 657 OFFCURVE",
"528 631 QCURVE SMOOTH",
"528 609 OFFCURVE",
"524 584 QCURVE SMOOTH",
"521 553 OFFCURVE",
"521 531 QCURVE SMOOTH",
"521 520 OFFCURVE",
"507 335 OFFCURVE",
"507 326 QCURVE SMOOTH"
);
}
);
width = 721;
}
);
note = U;
unicode = 0055;
changeCount = 1;
},
{
glyphname = V;
lastChange = "2019-08-01 17:43:18 +0000";
layers = (
{
layerId = "E500A8E6-E294-45A2-B471-DD4095F9D5BF";
paths = (
{
closed = 1;
nodes = (
"330 119 OFFCURVE",
"340 94 QCURVE SMOOTH",
"351 68 LINE",
"336 68 LINE SMOOTH",
"321 68 OFFCURVE",
"313 63 QCURVE",
"306 57 OFFCURVE",
"308 52 OFFCURVE",
"317 44 QCURVE",
"328 36 OFFCURVE",
"352 33 OFFCURVE",
"405 32 QCURVE SMOOTH",
"414 32 OFFCURVE",
"465 25 OFFCURVE",
"476 25 QCURVE SMOOTH",
"496 25 OFFCURVE",
"503 31 QCURVE",
"516 39 OFFCURVE",
"516 47 QCURVE SMOOTH",
"516 59 OFFCURVE",
"488 59 QCURVE SMOOTH",
"469 59 OFFCURVE",
"465 68 OFFCURVE",
"477 91 QCURVE",
"491 113 OFFCURVE",
"488 124 QCURVE",
"484 133 OFFCURVE",
"489 140 QCURVE",
"492 144 OFFCURVE",
"516 216 OFFCURVE",
"519 231 QCURVE SMOOTH",
"522 252 OFFCURVE",
"560 372 OFFCURVE",
"616 534 OFFCURVE",
"626 565 QCURVE SMOOTH",
"647 633 OFFCURVE",
"650 635 QCURVE",
"652 639 OFFCURVE",
"657 655 QCURVE SMOOTH",
"660 669 OFFCURVE",
"688 669 OFFCURVE",
"710 684 OFFCURVE",
"710 691 QCURVE SMOOTH",
"710 699 OFFCURVE",
"697 699 QCURVE SMOOTH",
"688 699 OFFCURVE",
"656 700 OFFCURVE",
"647 700 QCURVE SMOOTH",
"539 700 OFFCURVE",
"528 688 QCURVE SMOOTH",
"526 686 OFFCURVE",
"526 683 QCURVE SMOOTH",
"526 677 OFFCURVE",
"542 665 OFFCURVE",
"552 664 QCURVE",
"569 663 OFFCURVE",
"569 656 QCURVE SMOOTH",
"569 654 OFFCURVE",
"565 642 OFFCURVE",
"564 638 QCURVE",
"550 566 OFFCURVE",
"545 561 QCURVE",
"542 557 OFFCURVE",
"535 528 QCURVE",
"534 525 OFFCURVE",
"496 388 QCURVE SMOOTH",
"454 251 OFFCURVE",
"447 235 QCURVE",
"440 217 OFFCURVE",
"440 198 OFFCURVE",
"437 198 QCURVE SMOOTH",
"430 198 OFFCURVE",
"415 243 QCURVE SMOOTH",
"404 281 OFFCURVE",
"397 288 QCURVE",
"391 292 OFFCURVE",
"389 304 QCURVE",
"381 330 OFFCURVE",
"370 378 QCURVE SMOOTH",
"363 412 OFFCURVE",
"347 461 QCURVE SMOOTH",
"324 532 OFFCURVE",
"322 539 QCURVE",
"319 554 OFFCURVE",
"288 652 QCURVE SMOOTH",
"284 662 OFFCURVE",
"283 665 OFFCURVE",
"285 673 OFFCURVE",
"290 675 OFFCURVE",
"296 678 QCURVE",
"309 683 OFFCURVE",
"309 692 QCURVE SMOOTH",
"309 699 OFFCURVE",
"293 704 QCURVE",
"273 710 OFFCURVE",
"210 710 QCURVE SMOOTH",
"187 710 OFFCURVE",
"183 708 QCURVE SMOOTH",
"181 707 OFFCURVE",
"153 707 OFFCURVE",
"145 708 QCURVE",
"140 708 OFFCURVE",
"124 709 OFFCURVE",
"121 709 QCURVE SMOOTH",
"103 709 OFFCURVE",
"90 707 QCURVE",
"66 701 OFFCURVE",
"66 692 QCURVE SMOOTH",
"66 679 OFFCURVE",
"97 679 QCURVE SMOOTH",
"115 679 OFFCURVE",
"124 675 QCURVE SMOOTH",
"131 671 OFFCURVE",
"184 540 OFFCURVE",
"189 514 QCURVE SMOOTH",
"190 505 OFFCURVE",
"195 492 QCURVE SMOOTH",
"212 456 OFFCURVE",
"233 384 QCURVE SMOOTH",
"238 366 OFFCURVE",
"271 263 OFFCURVE",
"275 249 QCURVE SMOOTH",
"292 183 OFFCURVE",
"301 183 QCURVE SMOOTH",
"305 183 OFFCURVE",
"305 173 QCURVE SMOOTH",
"305 166 OFFCURVE",
"330 137 OFFCURVE",
"330 131 QCURVE SMOOTH"
);
}
);
width = 774;
}
);
note = V;
unicode = 0056;
changeCount = 1;
},
{
glyphname = W;
lastChange = "2019-08-01 17:43:18 +0000";
layers = (
{
layerId = "E500A8E6-E294-45A2-B471-DD4095F9D5BF";
paths = (
{
closed = 1;
nodes = (
"85 726 OFFCURVE",
"76 717 QCURVE SMOOTH",
"66 707 OFFCURVE",
"66 700 OFFCURVE",
"94 693 OFFCURVE",
"107 693 QCURVE SMOOTH",
"112 693 LINE",
"120 694 OFFCURVE",
"126 687 OFFCURVE",
"132 673 QCURVE SMOOTH",
"140 653 OFFCURVE",
"140 634 OFFCURVE",
"150 630 OFFCURVE",
"154 595 OFFCURVE",
"168 531 OFFCURVE",
"171 514 QCURVE SMOOTH",
"178 474 OFFCURVE",
"192 424 QCURVE SMOOTH",
"201 390 OFFCURVE",
"216 315 OFFCURVE",
"224 288 QCURVE SMOOTH",
"230 269 OFFCURVE",
"260 116 OFFCURVE",
"266 97 QCURVE SMOOTH",
"273 75 OFFCURVE",
"273 60 QCURVE SMOOTH",
"273 55 OFFCURVE",
"256 51 QCURVE SMOOTH",
"231 45 OFFCURVE",
"231 33 QCURVE SMOOTH",
"231 31 OFFCURVE",
"232 29 QCURVE",
"235 26 OFFCURVE",
"308 26 QCURVE SMOOTH",
"396 26 OFFCURVE",
"399 31 QCURVE",
"404 35 OFFCURVE",
"392 58 OFFCURVE",
"385 58 QCURVE SMOOTH",
"376 58 OFFCURVE",
"376 72 OFFCURVE",
"415 142 QCURVE SMOOTH",
"455 215 OFFCURVE",
"455 216 QCURVE SMOOTH",
"455 219 OFFCURVE",
"477 256 QCURVE",
"488 272 OFFCURVE",
"513 318 QCURVE",
"516 315 OFFCURVE",
"545 196 QCURVE SMOOTH",
"573 86 OFFCURVE",
"581 68 QCURVE",
"591 49 OFFCURVE",
"580 49 QCURVE SMOOTH",
"576 49 OFFCURVE",
"564 39 OFFCURVE",
"555 28 OFFCURVE",
"557 27 QCURVE",
"576 13 OFFCURVE",
"642 13 QCURVE SMOOTH",
"679 13 OFFCURVE",
"693 20 QCURVE",
"706 25 OFFCURVE",
"706 34 QCURVE SMOOTH",
"706 45 OFFCURVE",
"684 48 QCURVE SMOOTH",
"672 49 OFFCURVE",
"666 54 OFFCURVE",
"668 60 QCURVE SMOOTH",
"679 94 OFFCURVE",
"700 212 QCURVE SMOOTH",
"710 264 OFFCURVE",
"737 388 OFFCURVE",
"769 527 OFFCURVE",
"775 553 QCURVE SMOOTH",
"787 602 OFFCURVE",
"793 615 QCURVE",
"800 631 OFFCURVE",
"800 648 QCURVE SMOOTH",
"800 666 OFFCURVE",
"811 680 OFFCURVE",
"826 681 QCURVE",
"843 684 OFFCURVE",
"850 691 QCURVE SMOOTH",
"853 694 OFFCURVE",
"856 698 OFFCURVE",
"854 701 OFFCURVE",
"852 704 OFFCURVE",
"849 708 QCURVE SMOOTH",
"842 715 OFFCURVE",
"806 715 QCURVE SMOOTH",
"777 715 LINE SMOOTH",
"692 715 OFFCURVE",
"680 693 QCURVE",
"677 688 OFFCURVE",
"677 687 QCURVE SMOOTH",
"677 675 OFFCURVE",
"708 675 QCURVE SMOOTH",
"720 675 OFFCURVE",
"727 676 QCURVE",
"757 679 LINE",
"749 665 LINE",
"738 646 OFFCURVE",
"725 549 QCURVE SMOOTH",
"706 423 OFFCURVE",
"652 197 QCURVE SMOOTH",
"643 163 OFFCURVE",
"638 163 QCURVE SMOOTH",
"635 163 OFFCURVE",
"630 188 OFFCURVE",
"624 217 OFFCURVE",
"621 220 QCURVE",
"618 226 OFFCURVE",
"613 251 QCURVE SMOOTH",
"610 270 OFFCURVE",
"595 312 OFFCURVE",
"591 328 QCURVE SMOOTH",
"587 347 OFFCURVE",
"569 384 OFFCURVE",
"566 396 QCURVE SMOOTH",
"557 427 OFFCURVE",
"535 427 QCURVE SMOOTH",
"516 427 OFFCURVE",
"506 401 QCURVE",
"500 384 OFFCURVE",
"445 266 OFFCURVE",
"442 264 QCURVE",
"435 257 OFFCURVE",
"419 223 QCURVE SMOOTH",
"381 143 OFFCURVE",
"371 143 QCURVE SMOOTH",
"365 143 OFFCURVE",
"355 209 QCURVE SMOOTH",
"353 224 OFFCURVE",
"343 273 QCURVE SMOOTH",
"330 334 LINE",
"325 367 OFFCURVE",
"319 399 QCURVE SMOOTH",
"313 422 OFFCURVE",
"313 428 QCURVE SMOOTH",
"313 441 OFFCURVE",
"307 455 QCURVE SMOOTH",
"297 481 OFFCURVE",
"283 599 QCURVE",
"283 608 OFFCURVE",
"279 618 QCURVE SMOOTH",
"266 662 OFFCURVE",
"266 684 QCURVE SMOOTH",
"266 689 OFFCURVE",
"270 694 OFFCURVE",
"275 693 QCURVE",
"278 693 LINE SMOOTH",
"288 693 OFFCURVE",
"315 709 OFFCURVE",
"315 716 QCURVE SMOOTH",
"315 724 OFFCURVE",
"274 738 OFFCURVE",
"254 738 QCURVE SMOOTH",
"227 738 OFFCURVE",
"160 732 QCURVE SMOOTH"
);
}
);
width = 921;
}
);
note = W;
unicode = 0057;
changeCount = 1;
},
{
glyphname = X;
lastChange = "2019-08-01 17:43:18 +0000";
layers = (
{
layerId = "E500A8E6-E294-45A2-B471-DD4095F9D5BF";
paths = (
{
closed = 1;
nodes = (
"376 17 OFFCURVE",
"468 17 QCURVE SMOOTH",
"488 17 LINE SMOOTH",
"581 18 OFFCURVE",
"581 36 QCURVE SMOOTH",
"581 49 OFFCURVE",
"568 58 OFFCURVE",
"551 58 QCURVE SMOOTH",
"528 58 LINE",
"506 103 LINE SMOOTH",
"485 147 OFFCURVE",
"485 160 OFFCURVE",
"474 177 OFFCURVE",
"473 181 QCURVE SMOOTH",
"468 201 OFFCURVE",
"452 246 QCURVE SMOOTH",
"445 266 OFFCURVE",
"445 278 OFFCURVE",
"436 292 QCURVE",
"428 302 OFFCURVE",
"419 346 OFFCURVE",
"408 362 QCURVE",
"388 389 OFFCURVE",
"388 412 QCURVE SMOOTH",
"388 423 OFFCURVE",
"392 427 QCURVE",
"400 438 OFFCURVE",
"419 478 OFFCURVE",
"428 492 QCURVE",
"448 527 OFFCURVE",
"493 618 QCURVE SMOOTH",
"514 661 LINE",
"537 662 LINE",
"570 662 OFFCURVE",
"570 677 QCURVE SMOOTH",
"570 678 LINE",
"569 680 OFFCURVE",
"569 681 QCURVE",
"568 687 OFFCURVE",
"550 691 OFFCURVE",
"512 691 QCURVE SMOOTH",
"459 691 OFFCURVE",
"437 680 QCURVE SMOOTH",
"416 670 OFFCURVE",
"416 661 QCURVE SMOOTH",
"416 654 OFFCURVE",
"428 654 QCURVE SMOOTH",
"440 654 OFFCURVE",
"440 652 QCURVE SMOOTH",
"440 641 OFFCURVE",
"366 484 OFFCURVE",
"361 484 QCURVE SMOOTH",
"358 484 OFFCURVE",
"351 501 QCURVE",
"345 517 OFFCURVE",
"338 524 QCURVE SMOOTH",
"330 532 OFFCURVE",
"330 540 QCURVE SMOOTH",
"330 553 OFFCURVE",
"324 558 QCURVE",
"319 566 OFFCURVE",
"309 588 OFFCURVE",
"300 618 OFFCURVE",
"297 627 QCURVE SMOOTH",
"286 653 LINE",
"299 661 LINE",
"312 670 OFFCURVE",
"309 680 QCURVE",
"308 692 OFFCURVE",
"288 693 QCURVE",
"273 693 OFFCURVE",
"214 714 OFFCURVE",
"204 714 QCURVE SMOOTH",
"200 714 OFFCURVE",
"140 704 OFFCURVE",
"115 704 QCURVE SMOOTH",
"95 704 OFFCURVE",
"66 692 OFFCURVE",
"66 684 QCURVE SMOOTH",
"66 679 OFFCURVE",
"103 669 OFFCURVE",
"118 669 QCURVE SMOOTH",
"129 669 OFFCURVE",
"139 660 OFFCURVE",
"148 642 QCURVE SMOOTH",
"156 627 OFFCURVE",
"193 545 OFFCURVE",
"202 528 QCURVE SMOOTH",
"213 509 OFFCURVE",
"230 463 OFFCURVE",
"238 445 QCURVE SMOOTH",
"255 405 LINE",
"270 373 LINE SMOOTH",
"285 341 OFFCURVE",
"285 334 QCURVE SMOOTH",
"285 319 OFFCURVE",
"243 251 QCURVE SMOOTH",
"229 228 OFFCURVE",
"183 135 OFFCURVE",
"166 106 QCURVE SMOOTH",
"143 65 OFFCURVE",
"129 49 OFFCURVE",
"116 49 QCURVE SMOOTH",
"99 49 OFFCURVE",
"87 35 QCURVE",
"75 21 LINE",
"89 16 LINE SMOOTH",
"114 5 OFFCURVE",
"189 5 QCURVE SMOOTH",
"214 5 OFFCURVE",
"220 9 QCURVE",
"230 13 OFFCURVE",
"230 39 OFFCURVE",
"218 43 QCURVE",
"207 49 OFFCURVE",
"195 49 QCURVE SMOOTH",
"186 49 OFFCURVE",
"186 58 QCURVE SMOOTH",
"186 70 OFFCURVE",
"202 93 QCURVE",
"237 151 OFFCURVE",
"269 206 QCURVE SMOOTH",
"276 218 OFFCURVE",
"299 251 OFFCURVE",
"300 255 QCURVE",
"306 264 OFFCURVE",
"313 270 OFFCURVE",
"317 266 OFFCURVE",
"321 258 QCURVE SMOOTH",
"396 73 OFFCURVE",
"396 62 QCURVE SMOOTH",
"396 58 OFFCURVE",
"376 35 OFFCURVE",
"376 31 QCURVE SMOOTH"
);
}
);
width = 646;
}
);
note = X;
unicode = 0058;
changeCount = 1;
},
{
glyphname = Y;
lastChange = "2019-08-01 17:43:18 +0000";
layers = (
{
layerId = "E500A8E6-E294-45A2-B471-DD4095F9D5BF";
paths = (
{
closed = 1;
nodes = (
"284 361 OFFCURVE",
"328 309 OFFCURVE",
"335 309 QCURVE SMOOTH",
"344 309 OFFCURVE",
"344 288 OFFCURVE",
"289 57 OFFCURVE",
"284 48 QCURVE",
"279 40 OFFCURVE",
"260 37 QCURVE",
"243 36 OFFCURVE",
"231 27 QCURVE",
"227 21 OFFCURVE",
"228 18 OFFCURVE",
"235 12 QCURVE",
"244 6 OFFCURVE",
"279 6 QCURVE SMOOTH",
"285 6 OFFCURVE",
"316 8 OFFCURVE",
"328 8 QCURVE SMOOTH",
"411 10 OFFCURVE",
"429 19 OFFCURVE",
"429 32 QCURVE SMOOTH",
"429 39 OFFCURVE",
"428 40 QCURVE",
"425 44 OFFCURVE",
"377 45 QCURVE SMOOTH",
"363 45 OFFCURVE",
"353 49 OFFCURVE",
"354 54 QCURVE",
"354 59 OFFCURVE",
"363 89 QCURVE",
"371 124 OFFCURVE",
"371 133 QCURVE SMOOTH",
"371 147 OFFCURVE",
"377 152 QCURVE",
"386 158 OFFCURVE",
"413 228 OFFCURVE",
"448 341 OFFCURVE",
"452 351 QCURVE",
"480 424 OFFCURVE",
"494 503 QCURVE SMOOTH",
"511 586 OFFCURVE",
"520 638 QCURVE",
"523 663 OFFCURVE",
"531 680 OFFCURVE",
"542 683 QCURVE SMOOTH",
"577 689 OFFCURVE",
"598 699 OFFCURVE",
"598 709 QCURVE SMOOTH",
"598 723 OFFCURVE",
"570 723 QCURVE SMOOTH",
"557 723 OFFCURVE",
"532 719 QCURVE SMOOTH",
"506 716 OFFCURVE",
"480 716 QCURVE SMOOTH",
"468 716 LINE SMOOTH",
"467 716 OFFCURVE",
"462 717 OFFCURVE",
"460 717 QCURVE SMOOTH",
"443 717 OFFCURVE",
"412 702 OFFCURVE",
"412 694 QCURVE SMOOTH",
"412 685 OFFCURVE",
"428 679 QCURVE",
"444 672 OFFCURVE",
"444 663 QCURVE SMOOTH",
"444 655 OFFCURVE",
"437 640 QCURVE",
"424 602 OFFCURVE",
"416 569 QCURVE SMOOTH",
"389 457 OFFCURVE",
"385 457 QCURVE SMOOTH",
"384 457 OFFCURVE",
"379 462 QCURVE SMOOTH",
"374 468 OFFCURVE",
"339 538 OFFCURVE",
"298 626 OFFCURVE",
"286 645 QCURVE SMOOTH",
"269 672 OFFCURVE",
"269 677 QCURVE SMOOTH",
"269 680 OFFCURVE",
"290 693 QCURVE",
"309 703 OFFCURVE",
"309 709 QCURVE SMOOTH",
"309 719 OFFCURVE",
"244 721 QCURVE SMOOTH",
"206 721 LINE SMOOTH",
"66 721 OFFCURVE",
"66 689 QCURVE SMOOTH",
"66 685 OFFCURVE",
"92 676 OFFCURVE",
"102 676 QCURVE SMOOTH",
"103 676 OFFCURVE",
"106 676 QCURVE",
"108 677 LINE",
"110 677 LINE SMOOTH",
"118 677 OFFCURVE",
"147 631 OFFCURVE",
"190 553 QCURVE SMOOTH",
"220 495 OFFCURVE",
"222 488 QCURVE SMOOTH",
"228 470 OFFCURVE",
"237 458 QCURVE",
"250 441 OFFCURVE",
"250 438 QCURVE SMOOTH",
"250 436 OFFCURVE",
"284 370 OFFCURVE",
"284 369 QCURVE SMOOTH"
);
}
);
width = 664;
}
);
note = Y;
unicode = 0059;
changeCount = 1;
},
{
glyphname = Z;
lastChange = "2019-08-01 17:43:18 +0000";
layers = (
{
layerId = "E500A8E6-E294-45A2-B471-DD4095F9D5BF";
paths = (
{
closed = 1;
nodes = (
"139 714 LINE SMOOTH",
"97 706 OFFCURVE",
"68 692 OFFCURVE",
"68 681 QCURVE SMOOTH",
"68 656 OFFCURVE",
"66 647 QCURVE SMOOTH",
"62 634 OFFCURVE",
"64 624 OFFCURVE",
"75 616 QCURVE",
"90 603 OFFCURVE",
"99 603 QCURVE SMOOTH",
"110 603 OFFCURVE",
"128 631 OFFCURVE",
"130 649 QCURVE",
"131 664 OFFCURVE",
"136 671 OFFCURVE",
"144 672 QCURVE SMOOTH",
"158 675 OFFCURVE",
"167 684 OFFCURVE",
"368 691 OFFCURVE",
"453 691 QCURVE SMOOTH",
"528 691 OFFCURVE",
"531 687 QCURVE",
"532 687 OFFCURVE",
"532 685 QCURVE SMOOTH",
"532 677 OFFCURVE",
"494 619 OFFCURVE",
"448 554 OFFCURVE",
"443 543 QCURVE",
"437 531 OFFCURVE",
"379 456 OFFCURVE",
"369 447 QCURVE",
"359 436 OFFCURVE",
"359 425 OFFCURVE",
"355 423 QCURVE",
"354 423 OFFCURVE",
"308 366 OFFCURVE",
"285 338 QCURVE SMOOTH",
"262 308 LINE",
"224 269 OFFCURVE",
"141 166 OFFCURVE",
"109 134 QCURVE SMOOTH",
"66 88 OFFCURVE",
"62 70 QCURVE",
"60 50 OFFCURVE",
"67 43 QCURVE SMOOTH",
"78 32 OFFCURVE",
"140 32 QCURVE SMOOTH",
"154 32 OFFCURVE",
"163 34 QCURVE",
"167 35 OFFCURVE",
"200 35 QCURVE SMOOTH",
"396 35 OFFCURVE",
"494 26 QCURVE SMOOTH",
"532 22 OFFCURVE",
"552 22 QCURVE SMOOTH",
"581 22 OFFCURVE",
"598 31 QCURVE SMOOTH",
"619 40 LINE",
"618 74 LINE SMOOTH",
"616 100 OFFCURVE",
"601 134 OFFCURVE",
"591 134 QCURVE SMOOTH",
"582 134 OFFCURVE",
"572 79 QCURVE SMOOTH",
"568 63 LINE",
"527 66 LINE SMOOTH",
"399 77 OFFCURVE",
"233 86 QCURVE",
"228 86 OFFCURVE",
"228 89 QCURVE SMOOTH",
"228 95 OFFCURVE",
"254 121 QCURVE SMOOTH",
"336 206 OFFCURVE",
"345 225 QCURVE",
"355 243 OFFCURVE",
"361 243 QCURVE SMOOTH",
"365 243 OFFCURVE",
"389 271 OFFCURVE",
"389 275 QCURVE SMOOTH",
"389 278 OFFCURVE",
"412 301 QCURVE SMOOTH",
"434 323 OFFCURVE",
"452 350 QCURVE",
"469 379 OFFCURVE",
"478 386 QCURVE",
"489 396 OFFCURVE",
"489 403 OFFCURVE",
"519 440 QCURVE SMOOTH",
"539 465 OFFCURVE",
"624 594 OFFCURVE",
"624 600 QCURVE SMOOTH",
"624 603 OFFCURVE",
"639 625 QCURVE SMOOTH",
"654 648 OFFCURVE",
"654 660 QCURVE SMOOTH",
"654 675 OFFCURVE",
"629 699 QCURVE SMOOTH",
"604 724 LINE",
"547 725 LINE SMOOTH",
"536 725 OFFCURVE",
"391 726 OFFCURVE",
"345 726 QCURVE SMOOTH",
"265 726 OFFCURVE",
"193 725 QCURVE"
);
}
);
width = 719;
}
);
note = Z;
unicode = 005A;
changeCount = 1;
},
{
glyphname = a;
lastChange = "2019-08-01 17:43:18 +0000";
layers = (
{
layerId = "E500A8E6-E294-45A2-B471-DD4095F9D5BF";
paths = (
{
closed = 1;
nodes = (
"347 279 OFFCURVE",
"350 212 QCURVE SMOOTH",
"352 147 LINE",
"323 123 LINE SMOOTH",
"262 73 OFFCURVE",
"216 73 QCURVE SMOOTH",
"191 73 OFFCURVE",
"164 89 QCURVE",
"139 106 OFFCURVE",
"132 123 QCURVE",
"129 133 OFFCURVE",
"118 154 QCURVE",
"114 165 OFFCURVE",
"114 172 QCURVE SMOOTH",
"114 190 OFFCURVE",
"129 212 QCURVE",
"137 226 OFFCURVE",
"176 254 OFFCURVE",
"185 254 QCURVE SMOOTH",
"195 254 OFFCURVE",
"209 262 QCURVE SMOOTH",
"255 287 OFFCURVE",
"296 287 QCURVE SMOOTH",
"308 287 LINE",
"342 285 OFFCURVE",
"345 281 QCURVE SMOOTH"
);
},
{
closed = 1;
nodes = (
"151 430 OFFCURVE",
"98 380 OFFCURVE",
"98 367 QCURVE SMOOTH",
"98 354 OFFCURVE",
"110 354 QCURVE SMOOTH",
"121 354 OFFCURVE",
"128 366 QCURVE",
"144 400 OFFCURVE",
"195 400 QCURVE SMOOTH",
"253 399 OFFCURVE",
"304 386 OFFCURVE",
"317 370 QCURVE SMOOTH",
"324 362 OFFCURVE",
"338 331 OFFCURVE",
"338 324 QCURVE SMOOTH",
"338 321 OFFCURVE",
"337 321 QCURVE",
"334 319 OFFCURVE",
"314 321 QCURVE",
"304 321 LINE SMOOTH",
"261 321 OFFCURVE",
"221 304 QCURVE",
"216 303 OFFCURVE",
"178 287 OFFCURVE",
"168 284 QCURVE SMOOTH",
"140 274 OFFCURVE",
"131 265 QCURVE SMOOTH",
"124 258 OFFCURVE",
"115 258 OFFCURVE",
"78 221 OFFCURVE",
"72 211 QCURVE",
"63 193 OFFCURVE",
"63 175 QCURVE SMOOTH",
"63 163 OFFCURVE",
"69 143 QCURVE SMOOTH",
"74 128 OFFCURVE",
"85 104 OFFCURVE",
"89 93 QCURVE",
"91 80 OFFCURVE",
"133 39 OFFCURVE",
"151 31 QCURVE SMOOTH",
"167 24 OFFCURVE",
"185 24 QCURVE SMOOTH",
"202 24 OFFCURVE",
"254 33 QCURVE SMOOTH",
"305 43 OFFCURVE",
"324 58 QCURVE SMOOTH",
"345 73 OFFCURVE",
"357 62 OFFCURVE",
"357 55 QCURVE SMOOTH",
"357 45 OFFCURVE",
"377 26 OFFCURVE",
"386 26 QCURVE SMOOTH",
"405 26 OFFCURVE",
"431 22 QCURVE SMOOTH",
"450 20 OFFCURVE",
"453 20 QCURVE SMOOTH",
"466 20 OFFCURVE",
"482 29 QCURVE",
"500 41 OFFCURVE",
"500 50 QCURVE SMOOTH",
"500 60 OFFCURVE",
"477 64 QCURVE",
"454 66 LINE",
"455 111 LINE SMOOTH",
"455 152 OFFCURVE",
"459 159 QCURVE",
"460 160 OFFCURVE",
"460 171 QCURVE SMOOTH",
"460 202 OFFCURVE",
"440 341 OFFCURVE",
"435 349 QCURVE",
"425 358 OFFCURVE",
"421 370 QCURVE",
"415 382 OFFCURVE",
"355 428 OFFCURVE",
"337 428 OFFCURVE",
"335 433 QCURVE",
"330 438 OFFCURVE",
"244 438 QCURVE SMOOTH",
"182 438 OFFCURVE",
"169 434 QCURVE SMOOTH"
);
}
);
width = 566;
}
);
note = a;
unicode = 0061;
changeCount = 1;
},
{
glyphname = b;
lastChange = "2019-08-01 17:43:18 +0000";
layers = (
{
layerId = "E500A8E6-E294-45A2-B471-DD4095F9D5BF";
paths = (
{
closed = 1;
nodes = (
"393 355 OFFCURVE",
"409 323 QCURVE SMOOTH",
"425 292 OFFCURVE",
"428 232 QCURVE",
"428 226 OFFCURVE",
"429 208 OFFCURVE",
"429 203 QCURVE SMOOTH",
"429 135 OFFCURVE",
"404 96 QCURVE",
"388 74 OFFCURVE",
"368 74 QCURVE SMOOTH",
"361 74 OFFCURVE",
"355 78 QCURVE",
"348 81 OFFCURVE",
"332 88 QCURVE SMOOTH",
"317 95 OFFCURVE",
"300 116 QCURVE SMOOTH",
"290 128 OFFCURVE",
"263 148 OFFCURVE",
"254 163 QCURVE SMOOTH",
"246 175 OFFCURVE",
"243 200 OFFCURVE",
"243 250 QCURVE SMOOTH",
"243 319 LINE",
"265 341 LINE SMOOTH",
"301 379 OFFCURVE",
"343 379 QCURVE SMOOTH",
"369 379 OFFCURVE",
"381 367 QCURVE SMOOTH"
);
},
{
closed = 1;
nodes = (
"66 688 OFFCURVE",
"66 673 QCURVE SMOOTH",
"66 666 OFFCURVE",
"85 652 OFFCURVE",
"92 652 QCURVE SMOOTH",
"94 652 OFFCURVE",
"97 654 QCURVE SMOOTH",
"101 658 OFFCURVE",
"124 658 OFFCURVE",
"124 648 QCURVE SMOOTH",
"124 646 OFFCURVE",
"126 608 OFFCURVE",
"129 541 OFFCURVE",
"130 511 QCURVE SMOOTH",
"139 281 OFFCURVE",
"139 211 QCURVE SMOOTH",
"139 174 OFFCURVE",
"136 172 QCURVE",
"130 169 OFFCURVE",
"130 114 QCURVE SMOOTH",
"129 62 LINE",
"109 52 LINE SMOOTH",
"91 44 OFFCURVE",
"91 35 QCURVE SMOOTH",
"91 28 OFFCURVE",
"112 14 OFFCURVE",
"133 19 QCURVE SMOOTH",
"156 24 OFFCURVE",
"178 24 QCURVE SMOOTH",
"183 24 LINE SMOOTH",
"201 24 OFFCURVE",
"233 37 OFFCURVE",
"237 47 QCURVE",
"238 49 OFFCURVE",
"238 55 QCURVE SMOOTH",
"238 58 OFFCURVE",
"237 73 OFFCURVE",
"237 77 QCURVE SMOOTH",
"237 86 OFFCURVE",
"239 89 QCURVE",
"244 97 OFFCURVE",
"258 83 QCURVE",
"291 54 OFFCURVE",
"336 42 QCURVE SMOOTH",
"353 37 OFFCURVE",
"365 37 QCURVE SMOOTH",
"374 37 OFFCURVE",
"401 44 QCURVE",
"421 50 OFFCURVE",
"453 58 QCURVE",
"496 71 OFFCURVE",
"519 118 QCURVE SMOOTH",
"532 147 OFFCURVE",
"534 206 QCURVE SMOOTH",
"534 226 LINE SMOOTH",
"534 301 OFFCURVE",
"508 334 QCURVE",
"501 344 OFFCURVE",
"469 395 OFFCURVE",
"430 416 OFFCURVE",
"384 423 QCURVE SMOOTH",
"361 426 OFFCURVE",
"351 419 QCURVE SMOOTH",
"343 413 OFFCURVE",
"328 416 QCURVE",
"323 416 LINE SMOOTH",
"294 416 OFFCURVE",
"258 385 QCURVE SMOOTH",
"244 373 OFFCURVE",
"239 378 OFFCURVE",
"237 482 QCURVE SMOOTH",
"235 641 OFFCURVE",
"230 696 OFFCURVE",
"217 707 QCURVE SMOOTH",
"202 718 OFFCURVE",
"185 718 QCURVE SMOOTH",
"170 718 OFFCURVE",
"114 698 OFFCURVE",
"108 696 QCURVE SMOOTH"
);
}
);
width = 597;
}
);
note = b;
unicode = 0062;
changeCount = 1;
},
{
glyphname = c;
lastChange = "2019-08-01 17:43:18 +0000";
layers = (
{
layerId = "E500A8E6-E294-45A2-B471-DD4095F9D5BF";
paths = (
{
closed = 1;
nodes = (
"265 453 OFFCURVE",
"236 440 QCURVE SMOOTH",
"208 428 OFFCURVE",
"206 428 QCURVE SMOOTH",
"198 428 OFFCURVE",
"177 416 QCURVE",
"159 405 OFFCURVE",
"132 393 QCURVE SMOOTH",
"112 382 OFFCURVE",
"87 346 OFFCURVE",
"77 307 QCURVE",
"63 262 OFFCURVE",
"63 180 QCURVE SMOOTH",
"63 139 OFFCURVE",
"68 120 QCURVE SMOOTH",
"77 79 OFFCURVE",
"101 50 QCURVE SMOOTH",
"133 11 OFFCURVE",
"218 -13 QCURVE SMOOTH",
"232 -17 OFFCURVE",
"256 -17 QCURVE SMOOTH",
"320 -17 OFFCURVE",
"332 -4 QCURVE SMOOTH",
"340 4 OFFCURVE",
"352 4 OFFCURVE",
"392 49 OFFCURVE",
"397 59 QCURVE",
"401 73 OFFCURVE",
"388 83 QCURVE",
"373 94 OFFCURVE",
"361 94 OFFCURVE",
"339 74 QCURVE SMOOTH",
"305 43 OFFCURVE",
"281 43 QCURVE SMOOTH",
"270 43 OFFCURVE",
"256 47 QCURVE SMOOTH",
"213 57 OFFCURVE",
"177 109 OFFCURVE",
"175 169 QCURVE",
"175 173 OFFCURVE",
"174 194 OFFCURVE",
"174 200 QCURVE SMOOTH",
"174 229 OFFCURVE",
"177 243 QCURVE SMOOTH",
"179 254 OFFCURVE",
"184 285 OFFCURVE",
"189 305 OFFCURVE",
"194 316 QCURVE SMOOTH",
"202 330 OFFCURVE",
"202 346 OFFCURVE",
"243 386 OFFCURVE",
"261 396 QCURVE SMOOTH",
"284 410 OFFCURVE",
"313 410 QCURVE SMOOTH",
"357 410 OFFCURVE",
"369 384 QCURVE",
"375 369 OFFCURVE",
"385 369 QCURVE SMOOTH",
"397 369 OFFCURVE",
"397 389 QCURVE SMOOTH",
"397 405 OFFCURVE",
"378 446 OFFCURVE",
"367 451 QCURVE",
"354 458 OFFCURVE",
"325 458 QCURVE SMOOTH",
"308 458 OFFCURVE",
"278 454 QCURVE"
);
}
);
width = 463;
}
);
note = c;
unicode = 0063;
changeCount = 1;
},
{
glyphname = d;
lastChange = "2019-08-01 17:43:18 +0000";
layers = (
{
layerId = "E500A8E6-E294-45A2-B471-DD4095F9D5BF";
paths = (
{
closed = 1;
nodes = (
"377 351 LINE",
"379 274 LINE SMOOTH",
"381 232 OFFCURVE",
"381 169 QCURVE",
"378 137 LINE",
"331 116 LINE SMOOTH",
"289 96 OFFCURVE",
"274 96 QCURVE SMOOTH",
"263 96 OFFCURVE",
"256 97 QCURVE SMOOTH",
"227 102 OFFCURVE",
"212 118 QCURVE SMOOTH",
"177 155 OFFCURVE",
"171 194 QCURVE SMOOTH",
"169 208 OFFCURVE",
"163 219 QCURVE",
"160 227 OFFCURVE",
"160 243 QCURVE SMOOTH",
"160 281 OFFCURVE",
"177 321 QCURVE SMOOTH",
"189 347 OFFCURVE",
"236 396 OFFCURVE",
"258 407 QCURVE SMOOTH",
"278 416 OFFCURVE",
"282 422 QCURVE",
"289 430 OFFCURVE",
"306 430 QCURVE SMOOTH",
"315 430 OFFCURVE",
"320 428 QCURVE SMOOTH",
"334 425 OFFCURVE",
"354 388 QCURVE"
);
},
{
closed = 1;
nodes = (
"314 710 OFFCURVE",
"314 694 QCURVE SMOOTH",
"314 688 OFFCURVE",
"317 681 QCURVE",
"321 673 OFFCURVE",
"345 673 QCURVE SMOOTH",
"359 673 OFFCURVE",
"369 672 QCURVE",
"370 664 LINE",
"370 657 OFFCURVE",
"371 629 OFFCURVE",
"374 594 OFFCURVE",
"376 546 OFFCURVE",
"377 523 QCURVE SMOOTH",
"378 504 OFFCURVE",
"378 482 QCURVE SMOOTH",
"378 473 OFFCURVE",
"376 465 OFFCURVE",
"373 464 OFFCURVE",
"368 464 QCURVE SMOOTH",
"358 464 OFFCURVE",
"344 469 QCURVE",
"339 470 OFFCURVE",
"329 470 QCURVE SMOOTH",
"273 470 OFFCURVE",
"207 439 QCURVE SMOOTH",
"150 412 OFFCURVE",
"91 354 OFFCURVE",
"75 308 QCURVE SMOOTH",
"64 277 OFFCURVE",
"64 248 QCURVE SMOOTH",
"64 187 OFFCURVE",
"110 109 QCURVE SMOOTH",
"135 66 OFFCURVE",
"183 58 QCURVE SMOOTH",
"214 52 OFFCURVE",
"276 52 QCURVE SMOOTH",
"315 52 OFFCURVE",
"320 56 QCURVE",
"327 60 OFFCURVE",
"334 63 QCURVE",
"340 63 OFFCURVE",
"369 82 OFFCURVE",
"375 82 QCURVE SMOOTH",
"384 82 OFFCURVE",
"389 68 QCURVE SMOOTH",
"406 18 OFFCURVE",
"484 18 QCURVE SMOOTH",
"519 18 OFFCURVE",
"565 34 OFFCURVE",
"565 47 QCURVE SMOOTH",
"565 65 OFFCURVE",
"547 65 QCURVE SMOOTH",
"543 65 OFFCURVE",
"527 63 QCURVE",
"499 57 OFFCURVE",
"493 63 QCURVE SMOOTH",
"489 67 OFFCURVE",
"489 217 QCURVE SMOOTH",
"489 264 OFFCURVE",
"491 409 OFFCURVE",
"491 416 QCURVE SMOOTH",
"491 568 OFFCURVE",
"483 652 QCURVE",
"481 668 OFFCURVE",
"481 685 QCURVE",
"480 702 OFFCURVE",
"463 710 QCURVE",
"450 718 OFFCURVE",
"435 718 QCURVE SMOOTH",
"428 718 OFFCURVE",
"377 714 QCURVE"
);
}
);
width = 630;
}
);
note = d;
unicode = 0064;
changeCount = 1;
},
{
glyphname = e;
lastChange = "2019-08-01 17:43:18 +0000";
layers = (
{
layerId = "E500A8E6-E294-45A2-B471-DD4095F9D5BF";
paths = (
{
closed = 1;
nodes = (
"365 353 OFFCURVE",
"417 278 OFFCURVE",
"417 263 QCURVE SMOOTH",
"417 261 OFFCURVE",
"416 259 QCURVE",
"414 256 OFFCURVE",
"335 256 QCURVE SMOOTH",
"194 256 OFFCURVE",
"189 262 QCURVE SMOOTH",
"186 264 OFFCURVE",
"186 269 QCURVE SMOOTH",
"186 284 OFFCURVE",
"225 336 OFFCURVE",
"247 350 QCURVE",
"266 361 OFFCURVE",
"279 374 QCURVE",
"291 387 OFFCURVE",
"304 387 QCURVE SMOOTH",
"320 387 OFFCURVE",
"340 371 QCURVE SMOOTH"
);
},
{
closed = 1;
nodes = (
"240 416 OFFCURVE",
"220 408 QCURVE SMOOTH",
"204 402 OFFCURVE",
"204 397 QCURVE SMOOTH",
"204 394 OFFCURVE",
"192 394 OFFCURVE",
"158 377 QCURVE SMOOTH",
"107 351 OFFCURVE",
"81 295 QCURVE SMOOTH",
"64 259 OFFCURVE",
"64 226 QCURVE SMOOTH",
"64 181 OFFCURVE",
"93 125 QCURVE SMOOTH",
"109 93 OFFCURVE",
"150 62 OFFCURVE",
"198 45 QCURVE SMOOTH",
"239 32 OFFCURVE",
"298 32 QCURVE SMOOTH",
"384 32 OFFCURVE",
"423 58 QCURVE",
"425 59 OFFCURVE",
"454 75 OFFCURVE",
"477 90 OFFCURVE",
"477 95 QCURVE SMOOTH",
"477 98 OFFCURVE",
"462 98 QCURVE SMOOTH",
"421 98 OFFCURVE",
"389 86 QCURVE SMOOTH",
"368 78 OFFCURVE",
"332 78 QCURVE SMOOTH",
"247 78 OFFCURVE",
"217 110 QCURVE SMOOTH",
"202 126 OFFCURVE",
"178 174 OFFCURVE",
"178 189 QCURVE SMOOTH",
"178 206 LINE",
"300 206 LINE SMOOTH",
"416 206 OFFCURVE",
"488 213 OFFCURVE",
"503 227 QCURVE",
"521 242 OFFCURVE",
"521 271 QCURVE SMOOTH",
"521 303 OFFCURVE",
"498 339 QCURVE",
"498 340 OFFCURVE",
"481 369 OFFCURVE",
"463 394 OFFCURVE",
"460 394 QCURVE SMOOTH",
"453 394 OFFCURVE",
"451 401 QCURVE",
"448 407 OFFCURVE",
"425 424 QCURVE SMOOTH",
"409 435 OFFCURVE",
"390 441 OFFCURVE",
"365 442 QCURVE",
"361 442 OFFCURVE",
"347 443 OFFCURVE",
"345 443 QCURVE SMOOTH",
"301 443 OFFCURVE",
"259 425 QCURVE"
);
}
);
width = 587;
}
);
note = e;
unicode = 0065;
changeCount = 1;
},
{
glyphname = f;
lastChange = "2019-08-01 17:43:18 +0000";
layers = (
{
layerId = "E500A8E6-E294-45A2-B471-DD4095F9D5BF";
paths = (
{
closed = 1;
nodes = (
"141 691 OFFCURVE",
"95 669 OFFCURVE",
"90 660 QCURVE",
"87 653 OFFCURVE",
"75 633 QCURVE SMOOTH",
"68 623 OFFCURVE",
"66 594 OFFCURVE",
"66 531 QCURVE SMOOTH",
"66 410 LINE SMOOTH",
"66 280 OFFCURVE",
"63 250 QCURVE SMOOTH",
"60 205 OFFCURVE",
"60 118 QCURVE SMOOTH",
"61 52 OFFCURVE",
"76 5 OFFCURVE",
"98 5 QCURVE SMOOTH",
"107 5 OFFCURVE",
"121 9 QCURVE",
"159 20 OFFCURVE",
"160 58 QCURVE SMOOTH",
"169 217 OFFCURVE",
"169 339 QCURVE",
"168 407 LINE",
"207 407 LINE SMOOTH",
"246 407 OFFCURVE",
"259 417 QCURVE SMOOTH",
"273 428 LINE",
"262 438 LINE",
"252 448 OFFCURVE",
"223 449 QCURVE",
"214 449 OFFCURVE",
"202 450 QCURVE SMOOTH",
"190 451 LINE",
"185 454 OFFCURVE",
"171 454 QCURVE SMOOTH",
"156 454 OFFCURVE",
"156 470 OFFCURVE",
"146 493 QCURVE",
"136 514 OFFCURVE",
"136 553 QCURVE SMOOTH",
"136 578 OFFCURVE",
"140 594 OFFCURVE",
"153 607 QCURVE",
"174 630 OFFCURVE",
"181 630 QCURVE SMOOTH",
"186 630 OFFCURVE",
"201 608 QCURVE",
"216 584 OFFCURVE",
"225 584 QCURVE SMOOTH",
"227 584 OFFCURVE",
"230 585 OFFCURVE",
"231 585 QCURVE",
"268 593 OFFCURVE",
"286 606 QCURVE",
"291 609 OFFCURVE",
"291 618 QCURVE SMOOTH",
"291 640 OFFCURVE",
"277 656 QCURVE",
"273 663 OFFCURVE",
"263 681 OFFCURVE",
"253 689 OFFCURVE",
"237 694 QCURVE",
"214 702 OFFCURVE",
"202 702 QCURVE SMOOTH",
"195 702 OFFCURVE",
"167 696 QCURVE SMOOTH"
);
}
);
width = 357;
}
);
note = f;
unicode = 0066;
changeCount = 1;
},
{
glyphname = g;
lastChange = "2019-08-01 17:43:18 +0000";
layers = (
{
layerId = "E500A8E6-E294-45A2-B471-DD4095F9D5BF";
paths = (
{
closed = 1;
nodes = (
"388 403 OFFCURVE",
"390 313 QCURVE SMOOTH",
"390 264 LINE SMOOTH",
"390 219 OFFCURVE",
"383 198 QCURVE SMOOTH",
"363 141 OFFCURVE",
"300 58 OFFCURVE",
"277 58 QCURVE SMOOTH",
"258 58 OFFCURVE",
"205 85 OFFCURVE",
"195 100 QCURVE SMOOTH",
"168 142 OFFCURVE",
"168 201 QCURVE SMOOTH",
"168 252 OFFCURVE",
"186 290 QCURVE SMOOTH",
"208 333 OFFCURVE",
"238 373 OFFCURVE",
"260 387 QCURVE SMOOTH",
"302 413 OFFCURVE",
"359 413 QCURVE SMOOTH",
"378 413 OFFCURVE",
"383 408 QCURVE"
);
},
{
closed = 1;
nodes = (
"386 512 OFFCURVE",
"382 485 QCURVE",
"379 458 OFFCURVE",
"376 458 QCURVE SMOOTH",
"361 458 OFFCURVE",
"261 439 OFFCURVE",
"240 432 QCURVE SMOOTH",
"158 404 OFFCURVE",
"126 366 QCURVE SMOOTH",
"105 341 OFFCURVE",
"105 336 QCURVE SMOOTH",
"105 334 OFFCURVE",
"90 302 QCURVE SMOOTH",
"64 246 OFFCURVE",
"64 205 QCURVE SMOOTH",
"64 141 OFFCURVE",
"86 100 QCURVE SMOOTH",
"95 81 OFFCURVE",
"150 33 OFFCURVE",
"168 26 QCURVE SMOOTH",
"193 17 OFFCURVE",
"197 13 QCURVE",
"212 3 OFFCURVE",
"279 3 QCURVE SMOOTH",
"286 3 LINE",
"311 4 OFFCURVE",
"371 24 OFFCURVE",
"383 34 QCURVE",
"394 45 LINE",
"394 28 LINE SMOOTH",
"394 24 OFFCURVE",
"392 1 OFFCURVE",
"388 -40 OFFCURVE",
"386 -53 QCURVE SMOOTH",
"375 -156 OFFCURVE",
"343 -178 QCURVE",
"320 -191 OFFCURVE",
"288 -191 QCURVE SMOOTH",
"239 -191 OFFCURVE",
"207 -165 QCURVE SMOOTH",
"184 -147 OFFCURVE",
"182 -147 QCURVE SMOOTH",
"178 -147 OFFCURVE",
"164 -133 QCURVE",
"153 -119 OFFCURVE",
"138 -109 QCURVE",
"130 -102 OFFCURVE",
"120 -79 OFFCURVE",
"113 -74 QCURVE",
"108 -72 OFFCURVE",
"106 -72 QCURVE SMOOTH",
"94 -72 OFFCURVE",
"94 -126 QCURVE SMOOTH",
"94 -167 LINE",
"115 -189 LINE SMOOTH",
"135 -209 OFFCURVE",
"159 -221 OFFCURVE",
"190 -228 QCURVE SMOOTH",
"218 -235 OFFCURVE",
"254 -235 QCURVE SMOOTH",
"313 -235 OFFCURVE",
"414 -201 OFFCURVE",
"425 -176 QCURVE",
"461 -124 OFFCURVE",
"467 -60 QCURVE SMOOTH",
"469 -34 OFFCURVE",
"473 -26 QCURVE",
"481 -12 OFFCURVE",
"481 131 QCURVE SMOOTH",
"481 149 LINE",
"480 297 OFFCURVE",
"471 390 OFFCURVE",
"459 443 QCURVE SMOOTH",
"442 511 OFFCURVE",
"434 519 QCURVE SMOOTH",
"424 528 OFFCURVE",
"413 528 QCURVE SMOOTH",
"400 528 OFFCURVE",
"393 519 QCURVE"
);
}
);
width = 543;
}
);
note = g;
unicode = 0067;
changeCount = 1;
},
{
glyphname = h;
lastChange = "2019-08-01 17:43:18 +0000";
layers = (
{
layerId = "E500A8E6-E294-45A2-B471-DD4095F9D5BF";
paths = (
{
closed = 1;
nodes = (
"66 695 OFFCURVE",
"66 679 QCURVE SMOOTH",
"66 676 OFFCURVE",
"69 672 QCURVE",
"74 664 OFFCURVE",
"99 664 QCURVE SMOOTH",
"123 664 OFFCURVE",
"124 655 QCURVE",
"124 654 OFFCURVE",
"124 626 OFFCURVE",
"125 578 OFFCURVE",
"126 517 OFFCURVE",
"126 439 OFFCURVE",
"126 401 QCURVE SMOOTH",
"126 162 OFFCURVE",
"131 106 QCURVE SMOOTH",
"135 56 LINE",
"116 47 LINE SMOOTH",
"99 39 OFFCURVE",
"99 27 QCURVE SMOOTH",
"99 20 OFFCURVE",
"109 17 QCURVE SMOOTH",
"133 9 OFFCURVE",
"215 9 QCURVE SMOOTH",
"250 9 OFFCURVE",
"265 19 QCURVE",
"278 29 OFFCURVE",
"278 36 QCURVE SMOOTH",
"278 45 OFFCURVE",
"252 45 QCURVE SMOOTH",
"236 45 OFFCURVE",
"229 49 OFFCURVE",
"231 56 QCURVE",
"235 75 OFFCURVE",
"237 144 QCURVE SMOOTH",
"240 223 LINE",
"256 241 LINE SMOOTH",
"274 261 OFFCURVE",
"274 266 QCURVE SMOOTH",
"274 274 OFFCURVE",
"292 311 QCURVE SMOOTH",
"306 340 OFFCURVE",
"354 394 OFFCURVE",
"366 394 QCURVE SMOOTH",
"392 394 OFFCURVE",
"401 173 QCURVE SMOOTH",
"405 97 OFFCURVE",
"414 78 QCURVE SMOOTH",
"423 58 LINE",
"409 52 LINE",
"402 49 OFFCURVE",
"399 44 QCURVE",
"388 32 OFFCURVE",
"402 27 QCURVE SMOOTH",
"414 24 OFFCURVE",
"483 24 QCURVE SMOOTH",
"511 24 LINE SMOOTH",
"534 24 OFFCURVE",
"544 27 OFFCURVE",
"544 34 QCURVE SMOOTH",
"544 44 OFFCURVE",
"529 49 QCURVE",
"514 56 LINE",
"521 78 LINE",
"526 90 OFFCURVE",
"526 112 QCURVE SMOOTH",
"526 123 LINE",
"523 152 OFFCURVE",
"521 206 QCURVE SMOOTH",
"516 363 OFFCURVE",
"482 405 QCURVE SMOOTH",
"452 445 OFFCURVE",
"394 445 QCURVE SMOOTH",
"391 445 LINE SMOOTH",
"346 443 OFFCURVE",
"308 427 OFFCURVE",
"281 396 QCURVE SMOOTH",
"247 358 OFFCURVE",
"244 358 QCURVE SMOOTH",
"243 358 OFFCURVE",
"243 388 QCURVE",
"244 408 OFFCURVE",
"244 476 QCURVE SMOOTH",
"244 570 OFFCURVE",
"241 623 QCURVE SMOOTH",
"239 656 OFFCURVE",
"225 684 OFFCURVE",
"201 699 QCURVE SMOOTH",
"183 710 OFFCURVE",
"160 710 QCURVE SMOOTH",
"141 710 OFFCURVE",
"118 706 QCURVE SMOOTH"
);
}
);
width = 607;
}
);
note = h;
unicode = 0068;
changeCount = 1;
},
{
glyphname = i;
lastChange = "2019-08-01 17:43:18 +0000";
layers = (
{
layerId = "E500A8E6-E294-45A2-B471-DD4095F9D5BF";
paths = (
{
closed = 1;
nodes = (
"116 432 OFFCURVE",
"64 392 OFFCURVE",
"64 384 QCURVE SMOOTH",
"64 378 OFFCURVE",
"85 365 OFFCURVE",
"97 365 QCURVE SMOOTH",
"101 365 LINE",
"103 365 LINE SMOOTH",
"109 365 OFFCURVE",
"112 319 OFFCURVE",
"112 204 QCURVE SMOOTH",
"112 43 LINE",
"126 29 LINE SMOOTH",
"141 16 OFFCURVE",
"170 12 QCURVE SMOOTH",
"178 11 OFFCURVE",
"191 11 QCURVE SMOOTH",
"218 11 OFFCURVE",
"222 35 QCURVE SMOOTH",
"225 55 OFFCURVE",
"225 212 QCURVE SMOOTH",
"225 369 OFFCURVE",
"222 389 QCURVE SMOOTH",
"213 443 OFFCURVE",
"173 443 QCURVE SMOOTH",
"152 443 OFFCURVE",
"133 436 QCURVE"
);
},
{
closed = 1;
nodes = (
"109 534 OFFCURVE",
"139 508 OFFCURVE",
"160 508 QCURVE SMOOTH",
"190 508 OFFCURVE",
"206 531 QCURVE",
"217 546 OFFCURVE",
"217 557 QCURVE SMOOTH",
"217 563 OFFCURVE",
"216 568 QCURVE SMOOTH",
"212 588 OFFCURVE",
"202 594 QCURVE",
"176 614 OFFCURVE",
"156 614 QCURVE SMOOTH",
"139 614 OFFCURVE",
"109 577 OFFCURVE",
"109 556 QCURVE SMOOTH"
);
}
);
width = 288;
}
);
note = i;
unicode = 0069;
changeCount = 1;
},
{
glyphname = j;
lastChange = "2019-08-01 17:43:18 +0000";
layers = (
{
layerId = "E500A8E6-E294-45A2-B471-DD4095F9D5BF";
paths = (
{
closed = 1;
nodes = (
"347 315 OFFCURVE",
"346 354 OFFCURVE",
"346 363 QCURVE SMOOTH",
"346 425 OFFCURVE",
"324 440 QCURVE SMOOTH",
"312 449 OFFCURVE",
"289 449 QCURVE SMOOTH",
"270 449 OFFCURVE",
"260 443 QCURVE",
"244 436 LINE",
"244 219 LINE SMOOTH",
"244 64 OFFCURVE",
"240 -9 OFFCURVE",
"231 -38 QCURVE SMOOTH",
"208 -117 OFFCURVE",
"181 -133 QCURVE",
"169 -139 OFFCURVE",
"163 -139 QCURVE SMOOTH",
"130 -139 OFFCURVE",
"129 -41 QCURVE",
"129 40 OFFCURVE",
"103 52 QCURVE SMOOTH",
"87 60 OFFCURVE",
"82 43 QCURVE",
"66 -21 OFFCURVE",
"66 -64 QCURVE SMOOTH",
"66 -107 OFFCURVE",
"70 -121 QCURVE",
"74 -130 OFFCURVE",
"114 -166 OFFCURVE",
"125 -172 QCURVE SMOOTH",
"135 -176 OFFCURVE",
"151 -176 QCURVE SMOOTH",
"179 -176 OFFCURVE",
"241 -144 OFFCURVE",
"261 -118 QCURVE SMOOTH",
"281 -93 OFFCURVE",
"281 -86 QCURVE SMOOTH",
"281 -84 OFFCURVE",
"291 -61 QCURVE",
"299 -45 OFFCURVE",
"325 35 OFFCURVE",
"328 54 QCURVE SMOOTH",
"340 159 OFFCURVE",
"340 164 QCURVE SMOOTH",
"340 170 OFFCURVE",
"347 282 OFFCURVE",
"347 301 QCURVE SMOOTH",
"347 309 LINE SMOOTH"
);
},
{
closed = 1;
nodes = (
"236 573 OFFCURVE",
"229 548 QCURVE",
"229 547 OFFCURVE",
"228 542 OFFCURVE",
"228 541 QCURVE SMOOTH",
"228 514 OFFCURVE",
"270 514 QCURVE SMOOTH",
"296 514 OFFCURVE",
"316 531 OFFCURVE",
"316 550 QCURVE SMOOTH",
"316 573 OFFCURVE",
"304 581 QCURVE SMOOTH",
"288 592 OFFCURVE",
"269 592 QCURVE SMOOTH",
"256 592 OFFCURVE",
"251 587 QCURVE"
);
}
);
width = 412;
}
);
note = j;
unicode = 006A;
changeCount = 1;
},
{
glyphname = k;
lastChange = "2019-08-01 17:43:18 +0000";
layers = (
{
layerId = "E500A8E6-E294-45A2-B471-DD4095F9D5BF";
paths = (
{
closed = 1;
nodes = (
"389 135 OFFCURVE",
"377 152 QCURVE SMOOTH",
"367 169 OFFCURVE",
"359 189 QCURVE",
"354 203 OFFCURVE",
"328 248 OFFCURVE",
"322 265 QCURVE SMOOTH",
"312 296 OFFCURVE",
"296 303 QCURVE",
"281 311 OFFCURVE",
"281 320 QCURVE SMOOTH",
"281 327 OFFCURVE",
"289 339 QCURVE",
"301 355 OFFCURVE",
"344 428 OFFCURVE",
"344 433 QCURVE SMOOTH",
"344 439 OFFCURVE",
"316 439 OFFCURVE",
"299 418 QCURVE SMOOTH",
"259 371 OFFCURVE",
"235 323 QCURVE SMOOTH",
"229 311 OFFCURVE",
"216 296 QCURVE",
"205 281 LINE",
"207 304 LINE SMOOTH",
"216 374 OFFCURVE",
"216 560 QCURVE SMOOTH",
"216 599 LINE",
"214 701 OFFCURVE",
"206 710 QCURVE",
"199 719 OFFCURVE",
"183 719 QCURVE SMOOTH",
"171 719 OFFCURVE",
"166 714 QCURVE SMOOTH",
"161 709 OFFCURVE",
"141 714 QCURVE",
"121 719 OFFCURVE",
"102 719 QCURVE SMOOTH",
"77 719 OFFCURVE",
"69 711 QCURVE SMOOTH",
"64 707 OFFCURVE",
"64 700 QCURVE SMOOTH",
"64 687 OFFCURVE",
"82 685 QCURVE",
"109 683 OFFCURVE",
"118 670 OFFCURVE",
"121 630 QCURVE",
"122 618 OFFCURVE",
"122 545 QCURVE SMOOTH",
"122 422 OFFCURVE",
"116 88 OFFCURVE",
"114 87 QCURVE",
"112 85 OFFCURVE",
"99 82 QCURVE",
"89 81 OFFCURVE",
"71 59 OFFCURVE",
"71 49 QCURVE SMOOTH",
"71 31 OFFCURVE",
"98 31 QCURVE SMOOTH",
"102 31 OFFCURVE",
"116 33 QCURVE SMOOTH",
"135 36 OFFCURVE",
"136 34 QCURVE",
"137 33 OFFCURVE",
"148 33 QCURVE SMOOTH",
"220 33 OFFCURVE",
"240 43 QCURVE",
"256 50 OFFCURVE",
"256 62 QCURVE SMOOTH",
"256 81 OFFCURVE",
"222 87 QCURVE SMOOTH",
"205 90 LINE",
"205 149 LINE SMOOTH",
"205 208 OFFCURVE",
"212 213 QCURVE",
"220 221 OFFCURVE",
"220 226 QCURVE SMOOTH",
"220 233 OFFCURVE",
"231 248 QCURVE SMOOTH",
"240 259 OFFCURVE",
"243 259 QCURVE SMOOTH",
"250 259 OFFCURVE",
"261 221 QCURVE SMOOTH",
"275 178 OFFCURVE",
"299 123 QCURVE SMOOTH",
"309 97 OFFCURVE",
"309 88 OFFCURVE",
"316 72 QCURVE",
"324 56 OFFCURVE",
"316 48 QCURVE SMOOTH",
"309 41 OFFCURVE",
"311 34 OFFCURVE",
"319 28 QCURVE",
"338 12 OFFCURVE",
"394 12 QCURVE SMOOTH",
"413 12 LINE",
"484 16 OFFCURVE",
"484 39 QCURVE SMOOTH",
"484 45 OFFCURVE",
"471 49 OFFCURVE",
"446 49 QCURVE SMOOTH",
"419 49 OFFCURVE",
"409 52 OFFCURVE",
"409 60 QCURVE SMOOTH",
"409 67 OFFCURVE",
"389 121 OFFCURVE",
"389 127 QCURVE SMOOTH"
);
}
);
width = 550;
}
);
note = k;
unicode = 006B;
changeCount = 1;
},
{
glyphname = l;
lastChange = "2019-08-01 17:43:18 +0000";
layers = (
{
layerId = "E500A8E6-E294-45A2-B471-DD4095F9D5BF";
paths = (
{
closed = 1;
nodes = (
"90 718 OFFCURVE",
"66 702 OFFCURVE",
"66 694 QCURVE SMOOTH",
"66 689 OFFCURVE",
"93 684 OFFCURVE",
"123 681 OFFCURVE",
"125 679 QCURVE SMOOTH",
"135 670 OFFCURVE",
"137 384 QCURVE SMOOTH",
"139 134 OFFCURVE",
"145 101 QCURVE",
"150 62 OFFCURVE",
"150 60 QCURVE SMOOTH",
"150 55 OFFCURVE",
"195 34 OFFCURVE",
"210 34 QCURVE SMOOTH",
"250 34 OFFCURVE",
"259 52 QCURVE SMOOTH",
"260 55 OFFCURVE",
"260 72 QCURVE SMOOTH",
"260 94 OFFCURVE",
"259 106 QCURVE SMOOTH",
"254 164 OFFCURVE",
"254 282 QCURVE SMOOTH",
"254 350 OFFCURVE",
"256 373 QCURVE SMOOTH",
"259 393 OFFCURVE",
"267 561 QCURVE SMOOTH",
"271 638 OFFCURVE",
"273 639 QCURVE SMOOTH",
"275 641 OFFCURVE",
"267 652 QCURVE SMOOTH",
"260 661 OFFCURVE",
"260 684 QCURVE SMOOTH",
"260 724 OFFCURVE",
"227 739 QCURVE",
"215 745 OFFCURVE",
"205 745 QCURVE SMOOTH",
"197 745 OFFCURVE",
"182 740 QCURVE",
"176 738 OFFCURVE",
"150 729 OFFCURVE",
"135 723 OFFCURVE",
"113 718 OFFCURVE",
"102 718 QCURVE SMOOTH"
);
}
);
width = 336;
}
);
note = l;
unicode = 006C;
changeCount = 1;
},
{
glyphname = m;
lastChange = "2019-08-01 17:43:18 +0000";
layers = (
{
layerId = "E500A8E6-E294-45A2-B471-DD4095F9D5BF";
paths = (
{
closed = 1;
nodes = (
"86 461 OFFCURVE",
"67 449 OFFCURVE",
"64 436 QCURVE SMOOTH",
"63 430 OFFCURVE",
"72 426 OFFCURVE",
"112 426 OFFCURVE",
"121 422 OFFCURVE",
"123 411 QCURVE",
"125 395 OFFCURVE",
"125 307 QCURVE SMOOTH",
"125 160 OFFCURVE",
"122 101 QCURVE SMOOTH",
"120 59 OFFCURVE",
"115 43 OFFCURVE",
"106 41 QCURVE SMOOTH",
"90 36 OFFCURVE",
"87 33 QCURVE",
"82 28 OFFCURVE",
"82 5 OFFCURVE",
"87 1 QCURVE",
"90 -2 OFFCURVE",
"124 -2 QCURVE SMOOTH",
"218 -2 OFFCURVE",
"230 5 QCURVE",
"243 18 OFFCURVE",
"228 35 QCURVE",
"220 43 OFFCURVE",
"220 100 QCURVE SMOOTH",
"220 147 LINE SMOOTH",
"220 246 OFFCURVE",
"227 262 QCURVE SMOOTH",
"236 285 OFFCURVE",
"279 353 OFFCURVE",
"297 370 QCURVE SMOOTH",
"337 408 OFFCURVE",
"373 408 QCURVE SMOOTH",
"377 408 OFFCURVE",
"379 407 QCURVE",
"398 402 OFFCURVE",
"398 310 QCURVE SMOOTH",
"398 264 OFFCURVE",
"392 128 QCURVE SMOOTH",
"389 40 LINE",
"374 35 LINE",
"351 29 OFFCURVE",
"351 16 QCURVE SMOOTH",
"351 12 OFFCURVE",
"354 9 QCURVE SMOOTH",
"363 -1 OFFCURVE",
"439 -1 QCURVE SMOOTH",
"460 -1 OFFCURVE",
"467 1 QCURVE SMOOTH",
"485 4 OFFCURVE",
"488 18 QCURVE",
"491 45 OFFCURVE",
"493 156 QCURVE SMOOTH",
"497 280 LINE",
"513 305 LINE SMOOTH",
"528 328 OFFCURVE",
"593 400 OFFCURVE",
"605 404 QCURVE",
"612 407 OFFCURVE",
"615 407 QCURVE SMOOTH",
"627 407 OFFCURVE",
"634 371 QCURVE",
"644 327 OFFCURVE",
"649 147 QCURVE SMOOTH",
"651 52 OFFCURVE",
"656 43 QCURVE",
"661 33 OFFCURVE",
"657 29 OFFCURVE",
"639 28 QCURVE SMOOTH",
"626 27 OFFCURVE",
"619 22 OFFCURVE",
"619 14 QCURVE SMOOTH",
"619 3 OFFCURVE",
"652 -3 OFFCURVE",
"723 -3 QCURVE SMOOTH",
"825 -3 OFFCURVE",
"825 16 QCURVE",
"823 20 LINE",
"821 27 OFFCURVE",
"773 28 QCURVE SMOOTH",
"772 28 LINE SMOOTH",
"758 28 OFFCURVE",
"752 32 OFFCURVE",
"754 40 QCURVE SMOOTH",
"759 57 OFFCURVE",
"761 196 QCURVE SMOOTH",
"761 205 LINE SMOOTH",
"761 275 OFFCURVE",
"741 410 OFFCURVE",
"727 426 QCURVE",
"721 434 OFFCURVE",
"697 448 QCURVE SMOOTH",
"682 457 OFFCURVE",
"669 457 QCURVE SMOOTH",
"660 457 OFFCURVE",
"638 454 QCURVE SMOOTH",
"572 445 OFFCURVE",
"520 393 QCURVE SMOOTH",
"494 366 OFFCURVE",
"490 366 QCURVE SMOOTH",
"486 366 OFFCURVE",
"483 371 QCURVE SMOOTH",
"476 380 OFFCURVE",
"476 396 OFFCURVE",
"453 424 OFFCURVE",
"444 430 QCURVE",
"419 443 OFFCURVE",
"391 443 QCURVE SMOOTH",
"373 443 OFFCURVE",
"355 439 QCURVE SMOOTH",
"291 422 OFFCURVE",
"245 371 QCURVE SMOOTH",
"228 351 LINE",
"224 381 LINE SMOOTH",
"222 408 OFFCURVE",
"205 458 OFFCURVE",
"199 462 QCURVE",
"190 466 OFFCURVE",
"158 466 QCURVE SMOOTH",
"133 466 OFFCURVE",
"109 463 QCURVE"
);
}
);
width = 890;
}
);
note = m;
unicode = 006D;
changeCount = 1;
},
{
glyphname = n;
lastChange = "2019-08-01 17:43:18 +0000";
layers = (
{
layerId = "E500A8E6-E294-45A2-B471-DD4095F9D5BF";
paths = (
{
closed = 1;
nodes = (
"74 441 OFFCURVE",
"62 424 OFFCURVE",
"66 420 QCURVE SMOOTH",
"70 416 OFFCURVE",
"92 416 QCURVE SMOOTH",
"109 416 OFFCURVE",
"118 411 QCURVE",
"129 405 OFFCURVE",
"135 216 QCURVE SMOOTH",
"138 83 OFFCURVE",
"141 63 QCURVE",
"144 55 OFFCURVE",
"140 47 OFFCURVE",
"129 42 QCURVE SMOOTH",
"114 36 OFFCURVE",
"106 24 QCURVE SMOOTH",
"99 13 OFFCURVE",
"110 10 QCURVE SMOOTH",
"121 6 OFFCURVE",
"184 6 QCURVE SMOOTH",
"271 6 OFFCURVE",
"285 11 QCURVE",
"294 17 OFFCURVE",
"294 31 QCURVE SMOOTH",
"294 43 OFFCURVE",
"285 49 QCURVE",
"274 54 OFFCURVE",
"258 54 QCURVE SMOOTH",
"239 54 LINE",
"238 80 LINE SMOOTH",
"237 121 OFFCURVE",
"232 186 OFFCURVE",
"232 194 QCURVE SMOOTH",
"232 238 OFFCURVE",
"256 288 QCURVE SMOOTH",
"279 334 LINE SMOOTH",
"294 366 OFFCURVE",
"320 394 OFFCURVE",
"339 400 QCURVE SMOOTH",
"354 404 OFFCURVE",
"362 402 OFFCURVE",
"367 396 QCURVE SMOOTH",
"374 387 OFFCURVE",
"374 376 QCURVE SMOOTH",
"374 371 OFFCURVE",
"379 350 QCURVE",
"384 336 OFFCURVE",
"394 180 OFFCURVE",
"394 118 QCURVE SMOOTH",
"394 68 OFFCURVE",
"391 45 OFFCURVE",
"382 36 QCURVE SMOOTH",
"369 24 OFFCURVE",
"369 19 QCURVE SMOOTH",
"369 11 OFFCURVE",
"443 11 QCURVE SMOOTH",
"500 11 OFFCURVE",
"537 19 OFFCURVE",
"542 34 QCURVE",
"543 36 OFFCURVE",
"543 41 QCURVE SMOOTH",
"543 56 OFFCURVE",
"518 56 QCURVE SMOOTH",
"501 56 LINE",
"504 119 LINE",
"504 137 LINE SMOOTH",
"504 192 OFFCURVE",
"490 335 OFFCURVE",
"482 361 QCURVE SMOOTH",
"466 416 OFFCURVE",
"428 431 QCURVE",
"399 440 OFFCURVE",
"366 441 QCURVE",
"355 442 OFFCURVE",
"340 442 QCURVE SMOOTH",
"322 442 OFFCURVE",
"299 419 OFFCURVE",
"285 419 OFFCURVE",
"240 369 OFFCURVE",
"232 350 QCURVE",
"222 330 OFFCURVE",
"217 330 QCURVE SMOOTH",
"209 330 OFFCURVE",
"193 386 QCURVE SMOOTH",
"182 427 OFFCURVE",
"159 449 OFFCURVE",
"124 450 QCURVE SMOOTH",
"89 450 OFFCURVE",
"83 446 QCURVE"
);
}
);
width = 608;
}
);
note = n;
unicode = 006E;
changeCount = 1;
},
{
glyphname = o;
lastChange = "2019-08-01 17:43:18 +0000";
layers = (
{
layerId = "E500A8E6-E294-45A2-B471-DD4095F9D5BF";
paths = (
{
closed = 1;
nodes = (
"331 365 OFFCURVE",
"345 319 QCURVE SMOOTH",
"351 302 OFFCURVE",
"351 250 QCURVE SMOOTH",
"351 197 OFFCURVE",
"345 177 QCURVE",
"335 128 OFFCURVE",
"284 65 OFFCURVE",
"258 65 QCURVE SMOOTH",
"256 65 OFFCURVE",
"252 66 OFFCURVE",
"251 66 QCURVE",
"210 73 OFFCURVE",
"183 147 QCURVE SMOOTH",
"166 192 OFFCURVE",
"166 228 QCURVE SMOOTH",
"166 266 OFFCURVE",
"183 331 QCURVE SMOOTH",
"194 374 OFFCURVE",
"218 404 OFFCURVE",
"243 404 QCURVE SMOOTH",
"255 404 OFFCURVE",
"263 403 QCURVE",
"285 399 OFFCURVE",
"296 392 QCURVE"
);
},
{
closed = 1;
nodes = (
"224 439 OFFCURVE",
"223 443 QCURVE",
"220 448 OFFCURVE",
"213 448 QCURVE SMOOTH",
"194 448 OFFCURVE",
"153 425 QCURVE SMOOTH",
"122 408 OFFCURVE",
"106 393 OFFCURVE",
"95 371 QCURVE SMOOTH",
"63 305 OFFCURVE",
"63 224 QCURVE SMOOTH",
"63 59 OFFCURVE",
"201 13 QCURVE SMOOTH",
"231 4 OFFCURVE",
"258 4 QCURVE SMOOTH",
"294 4 OFFCURVE",
"328 19 QCURVE",
"351 31 OFFCURVE",
"412 81 OFFCURVE",
"423 98 QCURVE SMOOTH",
"461 157 OFFCURVE",
"461 250 QCURVE SMOOTH",
"461 267 OFFCURVE",
"460 275 QCURVE",
"455 321 OFFCURVE",
"451 351 OFFCURVE",
"429 402 OFFCURVE",
"409 416 QCURVE SMOOTH",
"391 430 OFFCURVE",
"339 457 OFFCURVE",
"332 457 QCURVE SMOOTH",
"320 457 OFFCURVE",
"247 448 OFFCURVE",
"239 445 QCURVE"
);
}
);
width = 526;
}
);
note = o;
unicode = 006F;
changeCount = 1;
},
{
glyphname = p;
lastChange = "2019-08-01 17:43:18 +0000";
layers = (
{
layerId = "E500A8E6-E294-45A2-B471-DD4095F9D5BF";
paths = (
{
closed = 1;
nodes = (
"445 312 OFFCURVE",
"445 242 QCURVE SMOOTH",
"445 239 OFFCURVE",
"444 227 OFFCURVE",
"444 225 QCURVE",
"439 190 OFFCURVE",
"434 175 QCURVE",
"427 159 OFFCURVE",
"427 150 QCURVE SMOOTH",
"427 134 OFFCURVE",
"382 77 OFFCURVE",
"360 65 QCURVE",
"346 57 OFFCURVE",
"328 66 QCURVE",
"308 74 OFFCURVE",
"289 94 OFFCURVE",
"279 113 QCURVE SMOOTH",
"268 139 OFFCURVE",
"258 149 QCURVE",
"246 162 OFFCURVE",
"246 175 QCURVE SMOOTH",
"246 177 OFFCURVE",
"247 186 OFFCURVE",
"247 189 QCURVE",
"248 209 OFFCURVE",
"281 272 OFFCURVE",
"293 284 QCURVE",
"299 288 OFFCURVE",
"308 304 QCURVE",
"311 309 OFFCURVE",
"322 330 OFFCURVE",
"323 333 QCURVE",
"331 348 OFFCURVE",
"378 388 OFFCURVE",
"389 388 QCURVE SMOOTH",
"396 388 OFFCURVE",
"412 362 QCURVE"
);
},
{
closed = 1;
nodes = (
"521 142 OFFCURVE",
"530 163 QCURVE",
"557 212 OFFCURVE",
"557 277 QCURVE SMOOTH",
"557 304 OFFCURVE",
"551 317 QCURVE",
"509 419 OFFCURVE",
"500 419 QCURVE SMOOTH",
"498 419 OFFCURVE",
"482 428 QCURVE",
"465 441 OFFCURVE",
"430 441 QCURVE SMOOTH",
"390 441 OFFCURVE",
"339 423 QCURVE SMOOTH",
"311 412 OFFCURVE",
"282 384 QCURVE SMOOTH",
"255 357 OFFCURVE",
"255 350 QCURVE SMOOTH",
"255 349 LINE",
"253 350 LINE",
"248 354 OFFCURVE",
"239 434 OFFCURVE",
"237 438 QCURVE",
"235 443 OFFCURVE",
"201 458 OFFCURVE",
"193 458 QCURVE SMOOTH",
"191 458 LINE",
"185 456 LINE SMOOTH",
"176 453 OFFCURVE",
"171 450 QCURVE",
"155 445 OFFCURVE",
"139 447 QCURVE",
"136 448 OFFCURVE",
"126 448 QCURVE SMOOTH",
"83 448 OFFCURVE",
"68 435 QCURVE",
"64 432 OFFCURVE",
"64 427 QCURVE SMOOTH",
"64 420 OFFCURVE",
"82 409 OFFCURVE",
"93 409 QCURVE SMOOTH",
"95 409 LINE SMOOTH",
"117 409 OFFCURVE",
"128 404 QCURVE SMOOTH",
"136 401 OFFCURVE",
"141 387 OFFCURVE",
"144 357 QCURVE SMOOTH",
"148 290 OFFCURVE",
"148 104 QCURVE SMOOTH",
"148 -42 OFFCURVE",
"145 -102 QCURVE SMOOTH",
"140 -179 LINE",
"124 -186 LINE",
"101 -197 OFFCURVE",
"101 -210 QCURVE SMOOTH",
"101 -212 OFFCURVE",
"106 -217 OFFCURVE",
"197 -232 OFFCURVE",
"213 -232 QCURVE SMOOTH",
"231 -232 OFFCURVE",
"240 -236 QCURVE",
"241 -237 OFFCURVE",
"245 -237 QCURVE SMOOTH",
"255 -237 OFFCURVE",
"282 -214 OFFCURVE",
"282 -204 QCURVE SMOOTH",
"282 -183 OFFCURVE",
"239 -179 QCURVE",
"208 -174 OFFCURVE",
"208 -165 QCURVE SMOOTH",
"208 -158 OFFCURVE",
"213 -150 QCURVE",
"228 -118 OFFCURVE",
"233 -29 QCURVE SMOOTH",
"235 -9 OFFCURVE",
"236 10 OFFCURVE",
"240 28 OFFCURVE",
"246 33 OFFCURVE",
"252 33 QCURVE SMOOTH",
"261 33 OFFCURVE",
"278 26 QCURVE",
"299 19 OFFCURVE",
"322 19 QCURVE SMOOTH",
"393 19 OFFCURVE",
"454 64 QCURVE SMOOTH",
"476 79 OFFCURVE",
"481 79 QCURVE SMOOTH",
"486 79 OFFCURVE",
"486 83 QCURVE SMOOTH",
"486 86 OFFCURVE",
"521 133 OFFCURVE",
"521 136 QCURVE SMOOTH"
);
}
);
width = 621;
}
);
note = p;
unicode = 0070;
changeCount = 1;
},
{
glyphname = q;
lastChange = "2019-08-01 17:43:18 +0000";
layers = (
{
layerId = "E500A8E6-E294-45A2-B471-DD4095F9D5BF";
paths = (
{
closed = 1;
nodes = (
"300 390 OFFCURVE",
"339 318 OFFCURVE",
"347 295 QCURVE SMOOTH",
"373 217 OFFCURVE",
"373 188 QCURVE SMOOTH",
"373 187 OFFCURVE",
"373 183 QCURVE",
"371 181 LINE",
"369 170 OFFCURVE",
"330 126 OFFCURVE",
"309 111 QCURVE SMOOTH",
"293 100 OFFCURVE",
"278 100 QCURVE SMOOTH",
"266 100 OFFCURVE",
"258 101 QCURVE",
"237 102 OFFCURVE",
"222 109 OFFCURVE",
"213 120 QCURVE SMOOTH",
"193 143 OFFCURVE",
"183 174 OFFCURVE",
"183 210 QCURVE SMOOTH",
"183 275 OFFCURVE",
"213 321 QCURVE SMOOTH",
"218 331 OFFCURVE",
"218 339 QCURVE SMOOTH",
"218 344 OFFCURVE",
"276 399 OFFCURVE",
"282 399 QCURVE SMOOTH",
"288 399 OFFCURVE",
"292 395 QCURVE"
);
},
{
closed = 1;
nodes = (
"145 401 OFFCURVE",
"113 362 QCURVE SMOOTH",
"64 302 OFFCURVE",
"64 208 QCURVE SMOOTH",
"64 179 OFFCURVE",
"71 158 QCURVE SMOOTH",
"94 93 OFFCURVE",
"137 71 QCURVE SMOOTH",
"189 45 OFFCURVE",
"260 45 QCURVE SMOOTH",
"314 45 OFFCURVE",
"335 63 QCURVE",
"339 66 OFFCURVE",
"352 68 OFFCURVE",
"360 64 OFFCURVE",
"360 60 QCURVE",
"351 -9 OFFCURVE",
"351 -156 QCURVE SMOOTH",
"351 -174 OFFCURVE",
"352 -176 QCURVE",
"357 -191 OFFCURVE",
"378 -216 OFFCURVE",
"391 -219 QCURVE SMOOTH",
"400 -221 OFFCURVE",
"416 -221 QCURVE SMOOTH",
"450 -221 OFFCURVE",
"500 -216 QCURVE",
"508 -216 OFFCURVE",
"508 -210 QCURVE SMOOTH",
"508 -208 OFFCURVE",
"521 -201 QCURVE",
"535 -196 OFFCURVE",
"532 -185 QCURVE SMOOTH",
"531 -178 OFFCURVE",
"518 -174 OFFCURVE",
"489 -174 QCURVE SMOOTH",
"446 -174 LINE",
"446 -126 LINE SMOOTH",
"446 -24 OFFCURVE",
"469 194 QCURVE SMOOTH",
"475 244 OFFCURVE",
"475 313 QCURVE SMOOTH",
"475 359 OFFCURVE",
"473 378 QCURVE SMOOTH",
"469 410 LINE",
"485 408 LINE",
"491 408 LINE SMOOTH",
"509 408 OFFCURVE",
"539 424 OFFCURVE",
"539 433 QCURVE SMOOTH",
"539 451 OFFCURVE",
"462 451 QCURVE SMOOTH",
"407 451 OFFCURVE",
"398 438 QCURVE",
"394 433 OFFCURVE",
"370 446 QCURVE",
"351 457 OFFCURVE",
"331 457 QCURVE SMOOTH",
"313 457 OFFCURVE",
"252 438 QCURVE SMOOTH"
);
}
);
width = 604;
}
);
note = q;
unicode = 0071;
changeCount = 1;
},
{
glyphname = r;
lastChange = "2019-08-01 17:43:18 +0000";
layers = (
{
layerId = "E500A8E6-E294-45A2-B471-DD4095F9D5BF";
paths = (
{
closed = 1;
nodes = (
"93 451 OFFCURVE",
"64 434 OFFCURVE",
"64 426 QCURVE SMOOTH",
"64 412 OFFCURVE",
"109 412 QCURVE SMOOTH",
"126 412 OFFCURVE",
"135 409 OFFCURVE",
"137 397 QCURVE",
"147 354 OFFCURVE",
"160 179 QCURVE",
"160 175 OFFCURVE",
"168 81 QCURVE SMOOTH",
"170 55 LINE",
"150 52 LINE SMOOTH",
"131 50 OFFCURVE",
"105 33 OFFCURVE",
"105 14 OFFCURVE",
"126 9 OFFCURVE",
"167 9 QCURVE SMOOTH",
"182 9 LINE SMOOTH",
"324 9 OFFCURVE",
"324 47 QCURVE SMOOTH",
"324 56 OFFCURVE",
"313 63 OFFCURVE",
"292 65 QCURVE",
"285 66 OFFCURVE",
"281 87 OFFCURVE",
"278 132 QCURVE SMOOTH",
"274 201 OFFCURVE",
"270 226 QCURVE SMOOTH",
"267 256 LINE",
"289 281 LINE",
"384 384 OFFCURVE",
"408 384 QCURVE SMOOTH",
"437 384 OFFCURVE",
"490 410 OFFCURVE",
"490 425 QCURVE SMOOTH",
"490 443 OFFCURVE",
"447 443 QCURVE SMOOTH",
"425 443 OFFCURVE",
"406 436 QCURVE SMOOTH",
"371 425 OFFCURVE",
"353 419 QCURVE SMOOTH",
"327 410 OFFCURVE",
"279 379 OFFCURVE",
"279 371 QCURVE SMOOTH",
"279 364 OFFCURVE",
"270 359 QCURVE SMOOTH",
"268 358 OFFCURVE",
"265 358 QCURVE SMOOTH",
"254 358 OFFCURVE",
"254 399 QCURVE SMOOTH",
"254 442 OFFCURVE",
"224 453 QCURVE SMOOTH",
"207 458 OFFCURVE",
"170 458 QCURVE SMOOTH",
"144 458 OFFCURVE",
"112 454 QCURVE SMOOTH"
);
}
);
width = 554;
}
);
note = r;
unicode = 0072;
changeCount = 1;
},
{
glyphname = s;
lastChange = "2019-08-01 17:43:18 +0000";
layers = (
{
layerId = "E500A8E6-E294-45A2-B471-DD4095F9D5BF";
paths = (
{
closed = 1;
nodes = (
"174 419 OFFCURVE",
"154 389 QCURVE",
"143 373 OFFCURVE",
"143 328 QCURVE SMOOTH",
"143 296 OFFCURVE",
"147 278 OFFCURVE",
"161 257 QCURVE SMOOTH",
"181 229 OFFCURVE",
"198 216 QCURVE SMOOTH",
"228 192 OFFCURVE",
"246 179 QCURVE SMOOTH",
"288 149 OFFCURVE",
"288 106 QCURVE SMOOTH",
"288 87 OFFCURVE",
"281 73 OFFCURVE",
"267 65 QCURVE SMOOTH",
"251 56 OFFCURVE",
"228 48 QCURVE",
"218 45 OFFCURVE",
"214 45 QCURVE SMOOTH",
"197 45 OFFCURVE",
"164 78 QCURVE SMOOTH",
"135 106 OFFCURVE",
"135 127 QCURVE SMOOTH",
"135 136 OFFCURVE",
"109 164 QCURVE SMOOTH",
"85 190 LINE",
"74 181 LINE",
"64 173 OFFCURVE",
"64 158 QCURVE SMOOTH",
"64 147 OFFCURVE",
"66 137 QCURVE",
"68 108 OFFCURVE",
"98 41 OFFCURVE",
"115 26 QCURVE SMOOTH",
"138 6 OFFCURVE",
"177 6 QCURVE SMOOTH",
"232 6 OFFCURVE",
"304 43 QCURVE SMOOTH",
"352 68 OFFCURVE",
"390 112 OFFCURVE",
"390 144 QCURVE SMOOTH",
"390 196 OFFCURVE",
"339 231 QCURVE SMOOTH",
"319 244 OFFCURVE",
"315 250 QCURVE",
"313 254 OFFCURVE",
"308 254 QCURVE SMOOTH",
"305 254 OFFCURVE",
"274 285 QCURVE SMOOTH",
"244 316 LINE",
"244 350 LINE SMOOTH",
"244 410 OFFCURVE",
"271 417 QCURVE",
"273 417 LINE SMOOTH",
"283 417 OFFCURVE",
"331 394 QCURVE SMOOTH",
"383 369 OFFCURVE",
"412 334 QCURVE SMOOTH",
"443 298 OFFCURVE",
"457 298 QCURVE SMOOTH",
"462 298 OFFCURVE",
"468 305 QCURVE",
"474 311 OFFCURVE",
"474 335 QCURVE SMOOTH",
"474 351 OFFCURVE",
"471 356 QCURVE",
"467 367 OFFCURVE",
"407 413 OFFCURVE",
"384 422 QCURVE",
"298 456 OFFCURVE",
"263 456 QCURVE SMOOTH",
"245 456 OFFCURVE",
"235 450 QCURVE"
);
}
);
width = 539;
}
);
note = s;
unicode = 0073;
changeCount = 1;
},
{
glyphname = t;
lastChange = "2019-08-01 17:43:18 +0000";
layers = (
{
layerId = "E500A8E6-E294-45A2-B471-DD4095F9D5BF";
paths = (
{
closed = 1;
nodes = (
"170 689 OFFCURVE",
"163 639 OFFCURVE",
"162 558 QCURVE SMOOTH",
"161 472 LINE",
"120 461 LINE SMOOTH",
"78 449 OFFCURVE",
"71 441 QCURVE",
"64 432 OFFCURVE",
"64 427 QCURVE SMOOTH",
"64 419 OFFCURVE",
"91 419 QCURVE SMOOTH",
"103 419 OFFCURVE",
"141 416 QCURVE",
"164 412 LINE",
"163 277 LINE",
"163 234 LINE SMOOTH",
"163 155 OFFCURVE",
"173 86 OFFCURVE",
"187 55 QCURVE SMOOTH",
"205 17 OFFCURVE",
"279 17 QCURVE SMOOTH",
"358 17 OFFCURVE",
"358 57 QCURVE SMOOTH",
"358 68 OFFCURVE",
"352 78 QCURVE SMOOTH",
"339 97 OFFCURVE",
"325 97 OFFCURVE",
"309 81 QCURVE SMOOTH",
"290 63 LINE",
"282 78 LINE",
"274 95 OFFCURVE",
"271 112 QCURVE SMOOTH",
"268 136 OFFCURVE",
"268 263 QCURVE SMOOTH",
"268 331 OFFCURVE",
"269 351 QCURVE SMOOTH",
"271 401 LINE",
"312 402 LINE SMOOTH",
"370 402 OFFCURVE",
"384 431 QCURVE SMOOTH",
"389 440 OFFCURVE",
"379 449 QCURVE SMOOTH",
"369 459 OFFCURVE",
"322 461 QCURVE SMOOTH",
"274 463 OFFCURVE",
"271 465 QCURVE SMOOTH",
"268 469 OFFCURVE",
"266 579 QCURVE SMOOTH",
"263 678 OFFCURVE",
"253 709 OFFCURVE",
"222 709 QCURVE SMOOTH",
"197 709 OFFCURVE",
"183 699 QCURVE SMOOTH"
);
}
);
width = 452;
}
);
note = t;
unicode = 0074;
changeCount = 1;
},
{
glyphname = u;
lastChange = "2019-08-01 17:43:18 +0000";
layers = (
{
layerId = "E500A8E6-E294-45A2-B471-DD4095F9D5BF";
paths = (
{
closed = 1;
nodes = (
"71 449 OFFCURVE",
"66 428 QCURVE",
"66 427 OFFCURVE",
"64 423 OFFCURVE",
"64 422 QCURVE SMOOTH",
"64 410 OFFCURVE",
"75 410 QCURVE SMOOTH",
"77 410 OFFCURVE",
"86 412 QCURVE",
"97 416 OFFCURVE",
"102 416 QCURVE SMOOTH",
"115 416 OFFCURVE",
"118 404 QCURVE",
"120 400 OFFCURVE",
"124 339 QCURVE SMOOTH",
"132 197 OFFCURVE",
"135 162 QCURVE SMOOTH",
"137 135 OFFCURVE",
"151 102 QCURVE",
"160 82 OFFCURVE",
"174 68 OFFCURVE",
"195 58 QCURVE SMOOTH",
"240 36 OFFCURVE",
"275 36 QCURVE SMOOTH",
"302 36 OFFCURVE",
"330 50 QCURVE SMOOTH",
"371 71 OFFCURVE",
"392 125 QCURVE SMOOTH",
"405 156 OFFCURVE",
"407 156 OFFCURVE",
"413 125 OFFCURVE",
"417 80 OFFCURVE",
"417 63 QCURVE SMOOTH",
"417 43 OFFCURVE",
"429 31 QCURVE",
"438 21 OFFCURVE",
"458 17 OFFCURVE",
"503 17 QCURVE SMOOTH",
"567 17 OFFCURVE",
"578 25 QCURVE",
"592 33 OFFCURVE",
"592 41 QCURVE SMOOTH",
"592 47 OFFCURVE",
"559 58 OFFCURVE",
"544 58 QCURVE SMOOTH",
"537 58 OFFCURVE",
"534 79 OFFCURVE",
"532 125 QCURVE",
"532 178 OFFCURVE",
"527 224 QCURVE SMOOTH",
"512 325 OFFCURVE",
"512 363 QCURVE SMOOTH",
"512 381 OFFCURVE",
"515 390 QCURVE",
"520 399 OFFCURVE",
"535 399 QCURVE SMOOTH",
"553 399 OFFCURVE",
"585 417 OFFCURVE",
"585 427 QCURVE SMOOTH",
"585 432 OFFCURVE",
"582 435 QCURVE SMOOTH",
"577 440 OFFCURVE",
"544 442 QCURVE SMOOTH",
"526 443 OFFCURVE",
"496 450 OFFCURVE",
"485 450 QCURVE SMOOTH",
"482 450 OFFCURVE",
"457 448 QCURVE SMOOTH",
"422 445 OFFCURVE",
"398 445 QCURVE SMOOTH",
"383 445 OFFCURVE",
"369 431 QCURVE SMOOTH",
"357 418 OFFCURVE",
"357 411 QCURVE SMOOTH",
"357 403 OFFCURVE",
"382 403 QCURVE SMOOTH",
"406 403 LINE",
"401 388 LINE",
"397 370 OFFCURVE",
"397 340 QCURVE SMOOTH",
"397 312 OFFCURVE",
"373 220 OFFCURVE",
"359 194 QCURVE SMOOTH",
"321 124 OFFCURVE",
"301 98 QCURVE SMOOTH",
"292 87 OFFCURVE",
"284 83 OFFCURVE",
"275 88 QCURVE",
"244 102 OFFCURVE",
"239 210 QCURVE SMOOTH",
"238 232 OFFCURVE",
"233 325 OFFCURVE",
"233 336 QCURVE",
"232 347 OFFCURVE",
"232 364 QCURVE SMOOTH",
"232 394 OFFCURVE",
"237 396 QCURVE",
"243 400 OFFCURVE",
"243 407 QCURVE SMOOTH",
"243 416 OFFCURVE",
"224 438 QCURVE SMOOTH",
"213 451 OFFCURVE",
"199 458 OFFCURVE",
"171 458 OFFCURVE",
"131 449 OFFCURVE",
"116 449 QCURVE SMOOTH"
);
}
);
width = 657;
}
);
note = u;
unicode = 0075;
changeCount = 1;
},
{
glyphname = v;
lastChange = "2019-08-01 17:43:18 +0000";
layers = (
{
layerId = "E500A8E6-E294-45A2-B471-DD4095F9D5BF";
paths = (
{
closed = 1;
nodes = (
"245 231 OFFCURVE",
"267 189 QCURVE SMOOTH",
"290 146 OFFCURVE",
"290 136 OFFCURVE",
"309 103 QCURVE SMOOTH",
"328 71 OFFCURVE",
"328 66 QCURVE SMOOTH",
"328 64 OFFCURVE",
"323 64 QCURVE SMOOTH",
"322 64 LINE SMOOTH",
"316 64 OFFCURVE",
"301 51 QCURVE",
"286 40 LINE",
"301 36 LINE SMOOTH",
"311 34 OFFCURVE",
"327 34 QCURVE SMOOTH",
"340 34 OFFCURVE",
"346 35 QCURVE",
"401 41 OFFCURVE",
"414 41 QCURVE SMOOTH",
"430 41 OFFCURVE",
"439 34 OFFCURVE",
"447 34 QCURVE SMOOTH",
"468 34 OFFCURVE",
"473 47 QCURVE",
"476 55 OFFCURVE",
"465 66 QCURVE SMOOTH",
"453 78 LINE",
"463 93 LINE SMOOTH",
"470 103 OFFCURVE",
"484 157 OFFCURVE",
"488 165 QCURVE SMOOTH",
"494 181 OFFCURVE",
"494 189 QCURVE SMOOTH",
"494 202 OFFCURVE",
"503 213 QCURVE SMOOTH",
"512 227 OFFCURVE",
"518 258 QCURVE SMOOTH",
"520 271 OFFCURVE",
"550 358 OFFCURVE",
"550 385 QCURVE SMOOTH",
"550 403 OFFCURVE",
"562 413 OFFCURVE",
"584 416 QCURVE",
"607 417 OFFCURVE",
"619 424 OFFCURVE",
"624 438 QCURVE",
"627 442 OFFCURVE",
"627 449 QCURVE SMOOTH",
"627 459 OFFCURVE",
"590 465 OFFCURVE",
"532 465 QCURVE SMOOTH",
"450 465 LINE",
"436 453 LINE",
"427 443 OFFCURVE",
"427 439 QCURVE SMOOTH",
"427 431 OFFCURVE",
"461 426 QCURVE SMOOTH",
"477 424 OFFCURVE",
"484 418 OFFCURVE",
"482 411 QCURVE",
"470 351 OFFCURVE",
"447 284 QCURVE",
"409 156 OFFCURVE",
"405 156 QCURVE SMOOTH",
"402 156 OFFCURVE",
"361 241 OFFCURVE",
"354 261 QCURVE SMOOTH",
"322 350 OFFCURVE",
"296 393 QCURVE SMOOTH",
"282 416 OFFCURVE",
"282 441 QCURVE SMOOTH",
"282 466 LINE",
"262 470 LINE",
"236 476 OFFCURVE",
"147 476 QCURVE SMOOTH",
"115 476 OFFCURVE",
"105 474 QCURVE SMOOTH",
"91 473 OFFCURVE",
"64 459 OFFCURVE",
"64 448 OFFCURVE",
"97 435 OFFCURVE",
"110 435 QCURVE SMOOTH",
"115 435 LINE",
"129 438 OFFCURVE",
"135 434 OFFCURVE",
"135 418 OFFCURVE",
"140 413 OFFCURVE",
"148 413 QCURVE SMOOTH",
"162 413 OFFCURVE",
"168 408 QCURVE",
"176 397 OFFCURVE",
"229 286 OFFCURVE",
"229 278 QCURVE SMOOTH",
"229 273 OFFCURVE",
"245 248 OFFCURVE",
"245 242 QCURVE SMOOTH"
);
}
);
width = 692;
}
);
note = v;
unicode = 0076;
changeCount = 1;
},
{
glyphname = w;
lastChange = "2019-08-01 17:43:18 +0000";
layers = (
{
layerId = "E500A8E6-E294-45A2-B471-DD4095F9D5BF";
paths = (
{
closed = 1;
nodes = (
"520 113 OFFCURVE",
"523 113 QCURVE SMOOTH",
"528 113 OFFCURVE",
"534 90 QCURVE SMOOTH",
"538 72 OFFCURVE",
"538 70 QCURVE SMOOTH",
"538 64 OFFCURVE",
"532 55 QCURVE SMOOTH",
"524 42 OFFCURVE",
"527 40 QCURVE SMOOTH",
"536 31 OFFCURVE",
"611 31 QCURVE SMOOTH",
"677 31 OFFCURVE",
"693 39 QCURVE",
"710 45 OFFCURVE",
"710 57 QCURVE SMOOTH",
"710 78 OFFCURVE",
"675 78 QCURVE SMOOTH",
"667 78 OFFCURVE",
"662 77 QCURVE",
"660 77 OFFCURVE",
"656 75 OFFCURVE",
"654 75 QCURVE SMOOTH",
"642 75 OFFCURVE",
"642 89 QCURVE SMOOTH",
"642 97 OFFCURVE",
"645 114 QCURVE",
"647 124 OFFCURVE",
"647 150 QCURVE SMOOTH",
"647 158 OFFCURVE",
"659 209 OFFCURVE",
"659 212 QCURVE SMOOTH",
"659 239 OFFCURVE",
"682 287 QCURVE",
"688 301 OFFCURVE",
"721 401 OFFCURVE",
"726 412 QCURVE",
"735 439 LINE",
"767 439 LINE SMOOTH",
"799 439 OFFCURVE",
"810 449 QCURVE SMOOTH",
"819 458 OFFCURVE",
"819 465 QCURVE SMOOTH",
"819 473 OFFCURVE",
"808 478 QCURVE",
"789 485 OFFCURVE",
"742 485 QCURVE SMOOTH",
"696 485 OFFCURVE",
"680 477 QCURVE",
"665 468 OFFCURVE",
"682 448 QCURVE",
"687 443 OFFCURVE",
"687 438 QCURVE SMOOTH",
"687 431 OFFCURVE",
"668 382 QCURVE SMOOTH",
"650 336 OFFCURVE",
"600 229 OFFCURVE",
"597 225 QCURVE",
"596 224 OFFCURVE",
"595 224 QCURVE SMOOTH",
"589 224 OFFCURVE",
"580 247 OFFCURVE",
"580 258 QCURVE SMOOTH",
"580 275 OFFCURVE",
"574 281 QCURVE SMOOTH",
"572 284 OFFCURVE",
"562 334 QCURVE SMOOTH",
"550 413 OFFCURVE",
"538 420 QCURVE",
"534 423 OFFCURVE",
"526 423 QCURVE SMOOTH",
"509 423 OFFCURVE",
"465 411 OFFCURVE",
"457 403 QCURVE",
"445 394 OFFCURVE",
"435 361 QCURVE",
"406 279 OFFCURVE",
"331 159 QCURVE SMOOTH",
"325 150 OFFCURVE",
"322 149 OFFCURVE",
"316 156 QCURVE",
"313 160 OFFCURVE",
"313 171 QCURVE SMOOTH",
"313 174 OFFCURVE",
"304 216 QCURVE SMOOTH",
"300 229 OFFCURVE",
"291 271 OFFCURVE",
"290 273 QCURVE",
"253 411 OFFCURVE",
"253 428 QCURVE",
"252 440 OFFCURVE",
"244 448 OFFCURVE",
"228 455 QCURVE SMOOTH",
"210 462 OFFCURVE",
"193 462 QCURVE SMOOTH",
"170 462 OFFCURVE",
"151 450 QCURVE",
"137 443 OFFCURVE",
"107 443 QCURVE SMOOTH",
"75 443 OFFCURVE",
"69 434 QCURVE",
"64 423 LINE",
"64 420 OFFCURVE",
"105 416 QCURVE",
"138 413 OFFCURVE",
"152 401 OFFCURVE",
"159 370 QCURVE SMOOTH",
"166 340 OFFCURVE",
"175 316 QCURVE",
"194 258 OFFCURVE",
"212 151 QCURVE SMOOTH",
"216 125 OFFCURVE",
"225 101 QCURVE SMOOTH",
"232 83 OFFCURVE",
"232 75 QCURVE SMOOTH",
"232 64 OFFCURVE",
"215 64 QCURVE SMOOTH",
"205 64 OFFCURVE",
"186 49 OFFCURVE",
"186 42 QCURVE SMOOTH",
"186 40 OFFCURVE",
"189 37 QCURVE SMOOTH",
"194 32 OFFCURVE",
"254 27 OFFCURVE",
"254 20 OFFCURVE",
"265 18 OFFCURVE",
"275 21 OFFCURVE",
"276 25 QCURVE",
"279 32 OFFCURVE",
"279 25 QCURVE SMOOTH",
"279 19 OFFCURVE",
"316 19 QCURVE SMOOTH",
"352 19 OFFCURVE",
"361 28 QCURVE SMOOTH",
"369 36 OFFCURVE",
"369 45 QCURVE SMOOTH",
"369 64 OFFCURVE",
"348 64 QCURVE SMOOTH",
"337 64 OFFCURVE",
"337 71 QCURVE SMOOTH",
"337 97 OFFCURVE",
"411 210 QCURVE SMOOTH",
"450 269 OFFCURVE",
"454 278 QCURVE SMOOTH",
"466 300 OFFCURVE",
"471 275 QCURVE SMOOTH",
"473 271 OFFCURVE",
"499 185 OFFCURVE",
"499 178 QCURVE SMOOTH",
"499 173 OFFCURVE",
"520 129 OFFCURVE",
"520 124 QCURVE SMOOTH"
);
}
);
width = 884;
}
);
note = w;
unicode = 0077;
changeCount = 1;
},
{
glyphname = x;
lastChange = "2019-08-01 17:43:18 +0000";
layers = (
{
layerId = "E500A8E6-E294-45A2-B471-DD4095F9D5BF";
paths = (
{
closed = 1;
nodes = (
"355 366 OFFCURVE",
"342 353 QCURVE SMOOTH",
"331 342 OFFCURVE",
"325 341 OFFCURVE",
"319 347 QCURVE",
"316 350 OFFCURVE",
"298 381 QCURVE SMOOTH",
"288 400 OFFCURVE",
"232 472 OFFCURVE",
"227 476 QCURVE",
"217 480 OFFCURVE",
"201 480 QCURVE SMOOTH",
"190 480 OFFCURVE",
"145 474 OFFCURVE",
"136 474 QCURVE SMOOTH",
"117 474 OFFCURVE",
"76 455 OFFCURVE",
"76 436 OFFCURVE",
"100 436 QCURVE SMOOTH",
"121 436 OFFCURVE",
"137 424 QCURVE",
"171 393 OFFCURVE",
"202 332 QCURVE SMOOTH",
"217 304 OFFCURVE",
"223 298 QCURVE SMOOTH",
"230 292 OFFCURVE",
"230 285 QCURVE SMOOTH",
"230 277 OFFCURVE",
"239 258 QCURVE SMOOTH",
"247 241 LINE",
"223 209 LINE SMOOTH",
"195 172 OFFCURVE",
"182 151 QCURVE SMOOTH",
"162 123 OFFCURVE",
"105 64 OFFCURVE",
"95 64 QCURVE SMOOTH",
"84 64 OFFCURVE",
"72 50 QCURVE",
"63 41 OFFCURVE",
"63 35 QCURVE SMOOTH",
"63 26 OFFCURVE",
"105 26 QCURVE SMOOTH",
"109 26 OFFCURVE",
"129 27 OFFCURVE",
"136 27 QCURVE",
"194 29 OFFCURVE",
"229 34 OFFCURVE",
"229 42 QCURVE SMOOTH",
"229 55 OFFCURVE",
"212 59 QCURVE SMOOTH",
"195 64 LINE",
"210 80 LINE",
"222 91 OFFCURVE",
"254 135 QCURVE",
"276 167 OFFCURVE",
"290 167 OFFCURVE",
"315 126 QCURVE SMOOTH",
"335 94 OFFCURVE",
"352 73 QCURVE SMOOTH",
"370 50 OFFCURVE",
"370 43 QCURVE SMOOTH",
"370 40 OFFCURVE",
"361 35 OFFCURVE",
"359 26 QCURVE",
"358 20 OFFCURVE",
"365 16 OFFCURVE",
"375 17 QCURVE",
"465 22 OFFCURVE",
"516 31 OFFCURVE",
"537 40 QCURVE SMOOTH",
"566 54 OFFCURVE",
"566 62 QCURVE SMOOTH",
"566 68 OFFCURVE",
"550 68 QCURVE SMOOTH",
"536 68 OFFCURVE",
"509 62 QCURVE SMOOTH",
"494 58 OFFCURVE",
"482 54 QCURVE",
"471 75 LINE",
"467 88 OFFCURVE",
"435 140 OFFCURVE",
"394 201 OFFCURVE",
"391 206 QCURVE SMOOTH",
"374 235 OFFCURVE",
"369 246 QCURVE",
"363 257 OFFCURVE",
"363 262 QCURVE SMOOTH",
"363 272 OFFCURVE",
"406 330 QCURVE SMOOTH",
"459 402 OFFCURVE",
"459 433 QCURVE SMOOTH",
"459 442 OFFCURVE",
"463 448 OFFCURVE",
"475 451 QCURVE SMOOTH",
"494 457 OFFCURVE",
"494 470 QCURVE SMOOTH",
"494 476 OFFCURVE",
"489 477 QCURVE",
"486 477 LINE SMOOTH",
"473 477 OFFCURVE",
"424 469 QCURVE SMOOTH",
"366 457 OFFCURVE",
"358 449 QCURVE SMOOTH",
"347 439 OFFCURVE",
"355 434 QCURVE",
"363 428 OFFCURVE",
"374 428 QCURVE SMOOTH",
"385 428 OFFCURVE",
"385 426 QCURVE SMOOTH",
"385 425 OFFCURVE",
"355 372 OFFCURVE",
"355 370 QCURVE SMOOTH"
);
}
);
width = 631;
}
);
note = x;
unicode = 0078;
changeCount = 1;
},
{
glyphname = y;
lastChange = "2019-08-01 17:43:18 +0000";
layers = (
{
layerId = "E500A8E6-E294-45A2-B471-DD4095F9D5BF";
paths = (
{
closed = 1;
nodes = (
"516 453 OFFCURVE",
"493 450 QCURVE SMOOTH",
"451 446 OFFCURVE",
"440 434 QCURVE",
"427 417 OFFCURVE",
"448 409 QCURVE",
"463 404 OFFCURVE",
"463 402 QCURVE SMOOTH",
"463 394 OFFCURVE",
"432 287 OFFCURVE",
"423 265 QCURVE SMOOTH",
"408 228 OFFCURVE",
"408 223 QCURVE SMOOTH",
"408 218 OFFCURVE",
"404 211 QCURVE",
"400 206 OFFCURVE",
"391 181 QCURVE SMOOTH",
"386 167 OFFCURVE",
"376 140 QCURVE",
"369 124 OFFCURVE",
"369 118 QCURVE SMOOTH",
"369 112 OFFCURVE",
"359 121 QCURVE",
"348 129 OFFCURVE",
"348 135 QCURVE SMOOTH",
"348 142 OFFCURVE",
"343 148 QCURVE",
"335 158 OFFCURVE",
"315 220 OFFCURVE",
"312 228 QCURVE",
"307 238 OFFCURVE",
"282 309 QCURVE SMOOTH",
"270 340 OFFCURVE",
"255 376 QCURVE",
"250 387 OFFCURVE",
"250 403 OFFCURVE",
"259 407 QCURVE",
"265 408 OFFCURVE",
"275 418 QCURVE SMOOTH",
"281 424 OFFCURVE",
"278 431 OFFCURVE",
"270 440 QCURVE",
"259 455 LINE",
"177 455 LINE",
"154 455 LINE SMOOTH",
"100 455 OFFCURVE",
"64 443 OFFCURVE",
"64 425 QCURVE SMOOTH",
"64 403 OFFCURVE",
"107 403 QCURVE SMOOTH",
"125 403 OFFCURVE",
"135 400 OFFCURVE",
"138 390 QCURVE SMOOTH",
"170 297 OFFCURVE",
"171 293 QCURVE SMOOTH",
"175 279 OFFCURVE",
"187 247 OFFCURVE",
"206 204 OFFCURVE",
"212 189 QCURVE SMOOTH",
"233 132 OFFCURVE",
"277 55 QCURVE SMOOTH",
"285 41 OFFCURVE",
"307 31 QCURVE",
"329 21 OFFCURVE",
"329 16 QCURVE SMOOTH",
"329 1 OFFCURVE",
"268 -132 OFFCURVE",
"251 -155 QCURVE SMOOTH",
"238 -171 OFFCURVE",
"231 -171 QCURVE SMOOTH",
"223 -171 OFFCURVE",
"198 -141 OFFCURVE",
"189 -141 QCURVE SMOOTH",
"182 -141 OFFCURVE",
"163 -134 QCURVE",
"154 -129 OFFCURVE",
"144 -129 QCURVE SMOOTH",
"124 -129 OFFCURVE",
"124 -158 QCURVE SMOOTH",
"124 -183 OFFCURVE",
"152 -202 QCURVE SMOOTH",
"185 -225 OFFCURVE",
"228 -225 QCURVE SMOOTH",
"271 -225 OFFCURVE",
"297 -199 QCURVE SMOOTH",
"329 -166 OFFCURVE",
"344 -124 QCURVE",
"350 -104 OFFCURVE",
"354 -102 QCURVE",
"370 -90 OFFCURVE",
"413 64 QCURVE SMOOTH",
"429 121 OFFCURVE",
"439 147 QCURVE SMOOTH",
"443 156 OFFCURVE",
"467 228 OFFCURVE",
"471 238 QCURVE",
"477 251 OFFCURVE",
"508 373 OFFCURVE",
"509 392 QCURVE",
"511 401 OFFCURVE",
"518 408 OFFCURVE",
"532 410 QCURVE",
"555 415 OFFCURVE",
"568 424 QCURVE SMOOTH",
"583 434 OFFCURVE",
"588 434 QCURVE SMOOTH",
"593 434 OFFCURVE",
"612 456 OFFCURVE",
"612 463 QCURVE SMOOTH",
"612 473 OFFCURVE",
"575 473 OFFCURVE",
"546 463 QCURVE SMOOTH"
);
}
);
width = 679;
}
);
note = y;
unicode = 0079;
changeCount = 1;
},
{
glyphname = z;
lastChange = "2019-08-01 17:43:18 +0000";
layers = (
{
layerId = "E500A8E6-E294-45A2-B471-DD4095F9D5BF";
paths = (
{
closed = 1;
nodes = (
"260 439 OFFCURVE",
"205 439 QCURVE SMOOTH",
"130 438 OFFCURVE",
"90 422 OFFCURVE",
"86 392 QCURVE SMOOTH",
"83 367 OFFCURVE",
"90 363 QCURVE",
"99 358 OFFCURVE",
"103 358 QCURVE SMOOTH",
"116 358 OFFCURVE",
"128 373 QCURVE",
"139 387 LINE",
"210 389 LINE SMOOTH",
"221 389 OFFCURVE",
"258 390 OFFCURVE",
"265 390 QCURVE SMOOTH",
"274 390 OFFCURVE",
"294 389 OFFCURVE",
"296 389 QCURVE",
"311 386 LINE",
"254 316 LINE SMOOTH",
"216 267 OFFCURVE",
"129 165 OFFCURVE",
"102 133 QCURVE",
"84 108 OFFCURVE",
"75 98 QCURVE SMOOTH",
"64 88 OFFCURVE",
"64 77 QCURVE SMOOTH",
"64 59 OFFCURVE",
"105 35 OFFCURVE",
"135 35 QCURVE SMOOTH",
"137 35 OFFCURVE",
"145 36 OFFCURVE",
"147 36 QCURVE",
"215 41 OFFCURVE",
"252 43 QCURVE SMOOTH",
"353 48 OFFCURVE",
"391 63 QCURVE SMOOTH",
"405 68 OFFCURVE",
"439 68 OFFCURVE",
"452 86 QCURVE SMOOTH",
"465 102 OFFCURVE",
"462 114 QCURVE SMOOTH",
"460 128 OFFCURVE",
"460 131 QCURVE SMOOTH",
"460 134 OFFCURVE",
"430 134 OFFCURVE",
"405 100 OFFCURVE",
"378 97 QCURVE SMOOTH",
"350 95 OFFCURVE",
"317 89 QCURVE SMOOTH",
"286 85 OFFCURVE",
"238 85 QCURVE SMOOTH",
"194 85 OFFCURVE",
"194 89 QCURVE SMOOTH",
"194 100 OFFCURVE",
"246 149 QCURVE SMOOTH",
"265 167 OFFCURVE",
"336 261 OFFCURVE",
"391 336 OFFCURVE",
"396 338 QCURVE",
"399 340 OFFCURVE",
"399 346 QCURVE SMOOTH",
"399 353 OFFCURVE",
"417 369 QCURVE SMOOTH",
"434 384 OFFCURVE",
"445 405 QCURVE SMOOTH",
"452 418 OFFCURVE",
"452 425 QCURVE SMOOTH",
"452 435 OFFCURVE",
"417 441 OFFCURVE",
"365 443 QCURVE",
"354 443 OFFCURVE",
"315 445 OFFCURVE",
"308 445 QCURVE SMOOTH",
"299 445 OFFCURVE",
"277 443 OFFCURVE",
"276 443 QCURVE"
);
}
);
width = 527;
}
);
note = z;
unicode = 007A;
changeCount = 1;
},
{
glyphname = aacute;
lastChange = "2019-08-01 17:43:18 +0000";
layers = (
{
layerId = "E500A8E6-E294-45A2-B471-DD4095F9D5BF";
paths = (
{
closed = 1;
nodes = (
"322 220 OFFCURVE",
"323 192 OFFCURVE",
"323 187 QCURVE SMOOTH",
"323 154 OFFCURVE",
"313 133 OFFCURVE",
"296 121 QCURVE",
"245 90 OFFCURVE",
"205 90 QCURVE SMOOTH",
"186 90 OFFCURVE",
"148 116 OFFCURVE",
"143 132 QCURVE",
"136 149 OFFCURVE",
"136 163 QCURVE SMOOTH",
"136 175 OFFCURVE",
"141 183 QCURVE",
"161 209 OFFCURVE",
"177 219 QCURVE",
"197 233 OFFCURVE",
"205 240 QCURVE SMOOTH",
"218 251 OFFCURVE",
"224 251 QCURVE SMOOTH",
"235 251 OFFCURVE",
"270 271 QCURVE",
"286 281 OFFCURVE",
"304 281 QCURVE SMOOTH",
"320 281 LINE",
"322 231 LINE"
);
},
{
closed = 1;
nodes = (
"205 451 OFFCURVE",
"161 424 QCURVE SMOOTH",
"136 408 OFFCURVE",
"117 381 OFFCURVE",
"116 361 QCURVE",
"116 351 LINE SMOOTH",
"116 338 OFFCURVE",
"133 330 QCURVE SMOOTH",
"151 321 LINE",
"171 343 LINE SMOOTH",
"198 372 OFFCURVE",
"261 410 OFFCURVE",
"282 410 QCURVE SMOOTH",
"289 410 OFFCURVE",
"291 409 QCURVE",
"300 407 OFFCURVE",
"316 362 OFFCURVE",
"316 340 QCURVE SMOOTH",
"316 331 OFFCURVE",
"311 326 OFFCURVE",
"298 325 QCURVE",
"290 324 OFFCURVE",
"245 308 OFFCURVE",
"190 285 OFFCURVE",
"181 281 QCURVE SMOOTH",
"154 271 OFFCURVE",
"101 224 QCURVE SMOOTH",
"64 189 OFFCURVE",
"64 143 QCURVE SMOOTH",
"64 126 OFFCURVE",
"71 112 QCURVE",
"91 77 OFFCURVE",
"141 54 QCURVE SMOOTH",
"170 40 OFFCURVE",
"206 40 QCURVE SMOOTH",
"244 40 OFFCURVE",
"288 55 QCURVE SMOOTH",
"331 70 LINE",
"339 55 LINE",
"346 43 OFFCURVE",
"371 31 OFFCURVE",
"376 26 QCURVE",
"385 18 OFFCURVE",
"400 18 QCURVE SMOOTH",
"404 18 OFFCURVE",
"434 20 QCURVE",
"496 28 OFFCURVE",
"496 49 QCURVE SMOOTH",
"496 57 OFFCURVE",
"484 64 OFFCURVE",
"468 66 QCURVE SMOOTH",
"443 70 OFFCURVE",
"437 72 QCURVE",
"431 75 OFFCURVE",
"431 196 QCURVE SMOOTH",
"431 287 OFFCURVE",
"428 330 OFFCURVE",
"416 363 QCURVE SMOOTH",
"402 405 OFFCURVE",
"381 427 QCURVE",
"359 447 OFFCURVE",
"347 447 OFFCURVE",
"331 454 QCURVE",
"313 464 OFFCURVE",
"293 464 QCURVE SMOOTH",
"288 464 OFFCURVE",
"255 459 QCURVE SMOOTH"
);
}
);
width = 561;
}
);
note = aacute;
unicode = 00E1;
changeCount = 1;
},
{
glyphname = eacute;
lastChange = "2019-08-01 17:43:18 +0000";
layers = (
{
layerId = "E500A8E6-E294-45A2-B471-DD4095F9D5BF";
paths = (
{
closed = 1;
nodes = (
"375 303 OFFCURVE",
"375 296 QCURVE SMOOTH",
"375 287 OFFCURVE",
"304 284 QCURVE",
"284 284 OFFCURVE",
"259 278 QCURVE",
"207 269 OFFCURVE",
"193 269 QCURVE SMOOTH",
"187 269 OFFCURVE",
"186 270 QCURVE",
"185 272 LINE",
"185 287 OFFCURVE",
"238 340 QCURVE SMOOTH",
"274 377 OFFCURVE",
"279 378 QCURVE",
"283 378 LINE SMOOTH",
"301 378 OFFCURVE",
"346 332 QCURVE SMOOTH"
);
},
{
closed = 1;
nodes = (
"215 424 OFFCURVE",
"158 395 QCURVE SMOOTH",
"117 376 OFFCURVE",
"64 261 OFFCURVE",
"64 196 QCURVE SMOOTH",
"64 174 OFFCURVE",
"68 154 QCURVE SMOOTH",
"71 129 OFFCURVE",
"89 90 OFFCURVE",
"102 90 OFFCURVE",
"108 82 QCURVE SMOOTH",
"115 73 OFFCURVE",
"153 56 QCURVE SMOOTH",
"190 39 OFFCURVE",
"240 34 QCURVE SMOOTH",
"259 32 OFFCURVE",
"281 32 QCURVE SMOOTH",
"301 32 OFFCURVE",
"329 42 QCURVE SMOOTH",
"360 54 OFFCURVE",
"385 71 OFFCURVE",
"406 97 QCURVE SMOOTH",
"421 116 OFFCURVE",
"421 123 QCURVE SMOOTH",
"421 124 OFFCURVE",
"419 128 QCURVE",
"414 135 OFFCURVE",
"409 135 QCURVE SMOOTH",
"404 135 OFFCURVE",
"346 91 OFFCURVE",
"307 83 QCURVE SMOOTH",
"278 78 OFFCURVE",
"254 78 QCURVE SMOOTH",
"215 78 OFFCURVE",
"204 88 QCURVE",
"195 96 OFFCURVE",
"185 96 QCURVE",
"160 102 OFFCURVE",
"160 154 QCURVE SMOOTH",
"160 156 OFFCURVE",
"161 167 OFFCURVE",
"161 171 QCURVE",
"163 206 OFFCURVE",
"169 225 OFFCURVE",
"177 225 QCURVE SMOOTH",
"244 225 OFFCURVE",
"284 231 QCURVE SMOOTH",
"436 252 OFFCURVE",
"457 259 QCURVE SMOOTH",
"474 265 OFFCURVE",
"474 301 QCURVE SMOOTH",
"474 326 OFFCURVE",
"407 401 QCURVE SMOOTH",
"376 434 OFFCURVE",
"301 434 QCURVE SMOOTH",
"291 434 OFFCURVE",
"273 432 QCURVE SMOOTH"
);
},
{
closed = 1;
nodes = (
"359 629 OFFCURVE",
"338 626 QCURVE",
"316 623 OFFCURVE",
"309 611 QCURVE",
"304 600 OFFCURVE",
"292 595 QCURVE",
"279 587 OFFCURVE",
"273 574 QCURVE",
"267 561 OFFCURVE",
"244 533 QCURVE SMOOTH",
"225 511 OFFCURVE",
"225 502 QCURVE SMOOTH",
"225 492 OFFCURVE",
"240 487 QCURVE",
"243 486 OFFCURVE",
"248 486 QCURVE SMOOTH",
"259 486 OFFCURVE",
"282 497 QCURVE SMOOTH",
"312 512 OFFCURVE",
"316 512 QCURVE SMOOTH",
"328 512 OFFCURVE",
"376 538 OFFCURVE",
"391 551 QCURVE SMOOTH",
"413 571 OFFCURVE",
"428 576 QCURVE",
"440 578 OFFCURVE",
"457 600 OFFCURVE",
"457 611 QCURVE SMOOTH",
"457 626 OFFCURVE",
"447 632 QCURVE",
"437 640 OFFCURVE",
"411 640 QCURVE SMOOTH",
"397 640 OFFCURVE",
"381 635 QCURVE SMOOTH"
);
}
);
width = 538;
}
);
note = eacute;
unicode = 00E9;
changeCount = 1;
},
{
glyphname = iacute;
lastChange = "2019-08-01 17:43:18 +0000";
layers = (
{
layerId = "E500A8E6-E294-45A2-B471-DD4095F9D5BF";
paths = (
{
closed = 1;
nodes = (
"63 29 OFFCURVE",
"76 18 OFFCURVE",
"83 18 QCURVE SMOOTH",
"87 18 OFFCURVE",
"90 20 QCURVE SMOOTH",
"95 26 OFFCURVE",
"85 43 OFFCURVE",
"74 44 QCURVE SMOOTH",
"63 45 OFFCURVE",
"63 36 QCURVE SMOOTH"
);
},
{
closed = 1;
nodes = (
"74 441 OFFCURVE",
"74 431 QCURVE SMOOTH",
"74 423 OFFCURVE",
"86 417 QCURVE SMOOTH",
"94 413 OFFCURVE",
"99 413 QCURVE SMOOTH",
"101 413 OFFCURVE",
"109 415 OFFCURVE",
"113 415 QCURVE SMOOTH",
"118 415 OFFCURVE",
"123 413 QCURVE SMOOTH",
"139 410 LINE",
"137 382 LINE SMOOTH",
"130 302 OFFCURVE",
"125 275 QCURVE SMOOTH",
"122 258 OFFCURVE",
"112 114 OFFCURVE",
"112 86 QCURVE SMOOTH",
"112 78 LINE",
"116 35 OFFCURVE",
"125 35 QCURVE SMOOTH",
"130 35 OFFCURVE",
"144 28 QCURVE SMOOTH",
"153 24 OFFCURVE",
"170 24 QCURVE SMOOTH",
"186 24 OFFCURVE",
"198 25 QCURVE SMOOTH",
"220 27 OFFCURVE",
"222 68 QCURVE SMOOTH",
"227 137 OFFCURVE",
"237 198 QCURVE SMOOTH",
"240 218 OFFCURVE",
"251 346 OFFCURVE",
"254 365 QCURVE",
"258 392 LINE",
"250 401 OFFCURVE",
"215 436 OFFCURVE",
"206 446 QCURVE",
"171 446 LINE SMOOTH",
"146 446 OFFCURVE",
"118 449 QCURVE SMOOTH",
"101 451 OFFCURVE",
"87 446 QCURVE"
);
},
{
closed = 1;
nodes = (
"255 647 OFFCURVE",
"228 616 QCURVE SMOOTH",
"205 591 OFFCURVE",
"168 525 OFFCURVE",
"168 510 QCURVE SMOOTH",
"168 505 OFFCURVE",
"169 504 QCURVE",
"175 497 OFFCURVE",
"187 497 QCURVE SMOOTH",
"202 497 OFFCURVE",
"214 504 QCURVE",
"232 514 OFFCURVE",
"268 538 OFFCURVE",
"282 545 QCURVE",
"300 553 OFFCURVE",
"365 619 OFFCURVE",
"365 638 OFFCURVE",
"350 646 QCURVE SMOOTH",
"339 652 OFFCURVE",
"324 652 QCURVE SMOOTH",
"321 652 OFFCURVE",
"279 649 QCURVE"
);
}
);
width = 430;
}
);
note = iacute;
unicode = 00ED;
changeCount = 1;
},
{
glyphname = ntilde;
lastChange = "2019-08-01 17:43:18 +0000";
layers = (
{
layerId = "E500A8E6-E294-45A2-B471-DD4095F9D5BF";
paths = (
{
closed = 1;
nodes = (
"245 -11 OFFCURVE",
"317 4 OFFCURVE",
"321 8 QCURVE SMOOTH",
"322 9 OFFCURVE",
"322 10 QCURVE SMOOTH",
"322 16 OFFCURVE",
"301 36 OFFCURVE",
"292 39 QCURVE",
"281 41 OFFCURVE",
"277 48 OFFCURVE",
"279 65 QCURVE",
"283 85 OFFCURVE",
"285 165 QCURVE SMOOTH",
"288 219 OFFCURVE",
"292 255 OFFCURVE",
"304 281 QCURVE SMOOTH",
"321 323 OFFCURVE",
"371 392 OFFCURVE",
"384 392 QCURVE SMOOTH",
"393 392 OFFCURVE",
"398 381 QCURVE",
"416 335 OFFCURVE",
"422 152 QCURVE SMOOTH",
"423 116 OFFCURVE",
"423 73 QCURVE SMOOTH",
"423 32 OFFCURVE",
"413 25 QCURVE",
"402 17 LINE",
"414 9 LINE",
"425 2 OFFCURVE",
"497 2 QCURVE SMOOTH",
"549 2 OFFCURVE",
"573 5 OFFCURVE",
"582 13 QCURVE SMOOTH",
"592 22 OFFCURVE",
"593 27 OFFCURVE",
"587 33 QCURVE",
"573 41 OFFCURVE",
"555 41 QCURVE SMOOTH",
"534 41 LINE",
"535 120 LINE SMOOTH",
"535 309 OFFCURVE",
"523 332 QCURVE",
"519 339 OFFCURVE",
"516 361 QCURVE SMOOTH",
"511 411 OFFCURVE",
"478 439 QCURVE SMOOTH",
"462 453 OFFCURVE",
"435 453 QCURVE SMOOTH",
"421 453 OFFCURVE",
"404 449 OFFCURVE",
"394 446 OFFCURVE",
"377 438 OFFCURVE",
"370 434 QCURVE",
"352 426 OFFCURVE",
"299 373 OFFCURVE",
"281 346 QCURVE SMOOTH",
"262 317 OFFCURVE",
"258 317 QCURVE SMOOTH",
"255 317 OFFCURVE",
"248 350 OFFCURVE",
"244 390 OFFCURVE",
"243 393 QCURVE",
"237 410 OFFCURVE",
"237 426 QCURVE SMOOTH",
"237 441 OFFCURVE",
"231 445 QCURVE",
"222 449 OFFCURVE",
"148 449 QCURVE SMOOTH",
"103 449 OFFCURVE",
"93 447 QCURVE",
"64 442 OFFCURVE",
"64 432 QCURVE SMOOTH",
"64 417 OFFCURVE",
"115 417 QCURVE SMOOTH",
"147 417 LINE",
"147 393 LINE SMOOTH",
"147 185 OFFCURVE",
"158 81 QCURVE",
"160 67 OFFCURVE",
"160 50 QCURVE SMOOTH",
"160 37 OFFCURVE",
"151 31 OFFCURVE",
"137 31 QCURVE SMOOTH",
"125 31 OFFCURVE",
"114 24 QCURVE",
"103 17 OFFCURVE",
"113 8 QCURVE SMOOTH",
"123 -3 OFFCURVE",
"148 -3 QCURVE SMOOTH",
"164 -3 OFFCURVE",
"210 -12 OFFCURVE",
"228 -12 QCURVE"
);
},
{
closed = 1;
nodes = (
"187 612 OFFCURVE",
"128 551 QCURVE SMOOTH",
"114 538 OFFCURVE",
"114 531 QCURVE SMOOTH",
"114 523 OFFCURVE",
"135 519 QCURVE SMOOTH",
"152 516 OFFCURVE",
"161 524 QCURVE",
"169 532 OFFCURVE",
"176 532 QCURVE SMOOTH",
"178 532 OFFCURVE",
"190 543 QCURVE SMOOTH",
"199 553 OFFCURVE",
"262 583 OFFCURVE",
"285 583 OFFCURVE",
"307 563 QCURVE SMOOTH",
"330 542 OFFCURVE",
"336 542 QCURVE SMOOTH",
"343 542 OFFCURVE",
"351 532 QCURVE SMOOTH",
"358 523 OFFCURVE",
"368 523 QCURVE SMOOTH",
"375 523 OFFCURVE",
"382 516 QCURVE SMOOTH",
"388 510 OFFCURVE",
"431 510 QCURVE SMOOTH",
"467 510 OFFCURVE",
"476 515 QCURVE",
"491 520 OFFCURVE",
"498 522 QCURVE",
"507 523 OFFCURVE",
"538 557 OFFCURVE",
"538 565 QCURVE SMOOTH",
"538 578 OFFCURVE",
"544 578 QCURVE SMOOTH",
"549 578 OFFCURVE",
"557 606 OFFCURVE",
"557 616 QCURVE SMOOTH",
"557 622 OFFCURVE",
"554 624 QCURVE SMOOTH",
"551 627 OFFCURVE",
"543 627 QCURVE SMOOTH",
"520 627 OFFCURVE",
"493 600 QCURVE SMOOTH",
"469 576 OFFCURVE",
"461 572 QCURVE",
"459 571 OFFCURVE",
"455 571 QCURVE SMOOTH",
"442 571 OFFCURVE",
"413 591 QCURVE SMOOTH",
"384 611 LINE",
"383 610 LINE",
"383 607 OFFCURVE",
"366 617 QCURVE SMOOTH",
"350 627 OFFCURVE",
"314 627 QCURVE SMOOTH",
"294 627 OFFCURVE",
"270 624 QCURVE SMOOTH"
);
}
);
width = 659;
}
);
note = ntilde;
unicode = 00F1;
changeCount = 1;
},
{
glyphname = oacute;
lastChange = "2019-08-01 17:43:18 +0000";
layers = (
{
layerId = "E500A8E6-E294-45A2-B471-DD4095F9D5BF";
paths = (
{
closed = 1;
nodes = (
"342 385 OFFCURVE",
"362 339 OFFCURVE",
"362 285 QCURVE SMOOTH",
"362 271 LINE SMOOTH",
"362 155 OFFCURVE",
"336 120 QCURVE",
"325 105 OFFCURVE",
"325 102 QCURVE",
"324 90 OFFCURVE",
"262 41 OFFCURVE",
"250 41 QCURVE SMOOTH",
"209 41 OFFCURVE",
"179 119 OFFCURVE",
"179 221 QCURVE SMOOTH",
"179 330 OFFCURVE",
"189 388 OFFCURVE",
"210 411 QCURVE SMOOTH",
"220 422 OFFCURVE",
"235 422 QCURVE SMOOTH",
"247 422 OFFCURVE",
"256 420 QCURVE SMOOTH",
"289 417 OFFCURVE",
"309 405 QCURVE"
);
},
{
closed = 1;
nodes = (
"215 463 OFFCURVE",
"137 430 OFFCURVE",
"121 409 QCURVE SMOOTH",
"75 349 OFFCURVE",
"75 318 QCURVE SMOOTH",
"75 298 OFFCURVE",
"71 295 QCURVE SMOOTH",
"63 287 OFFCURVE",
"63 209 QCURVE SMOOTH",
"63 154 OFFCURVE",
"68 125 QCURVE SMOOTH",
"74 86 OFFCURVE",
"93 56 QCURVE SMOOTH",
"100 45 OFFCURVE",
"114 32 OFFCURVE",
"121 26 OFFCURVE",
"137 14 OFFCURVE",
"141 11 QCURVE",
"150 3 OFFCURVE",
"213 -14 OFFCURVE",
"235 -17 QCURVE",
"246 -17 LINE SMOOTH",
"307 -17 OFFCURVE",
"354 24 QCURVE SMOOTH",
"400 62 OFFCURVE",
"428 148 OFFCURVE",
"428 254 QCURVE SMOOTH",
"428 293 OFFCURVE",
"405 397 OFFCURVE",
"396 397 QCURVE SMOOTH",
"391 397 OFFCURVE",
"391 403 QCURVE SMOOTH",
"391 411 OFFCURVE",
"365 432 OFFCURVE",
"348 438 QCURVE SMOOTH",
"331 443 OFFCURVE",
"319 450 QCURVE",
"307 457 OFFCURVE",
"298 457 QCURVE SMOOTH",
"286 457 OFFCURVE",
"283 461 QCURVE",
"278 464 OFFCURVE",
"253 464 QCURVE SMOOTH"
);
},
{
closed = 1;
nodes = (
"300 633 OFFCURVE",
"286 611 QCURVE SMOOTH",
"279 600 OFFCURVE",
"218 541 OFFCURVE",
"213 531 QCURVE",
"205 519 OFFCURVE",
"204 510 OFFCURVE",
"209 505 QCURVE",
"220 496 OFFCURVE",
"235 496 QCURVE SMOOTH",
"267 496 OFFCURVE",
"296 527 QCURVE SMOOTH",
"314 547 OFFCURVE",
"355 579 OFFCURVE",
"363 579 QCURVE SMOOTH",
"365 579 LINE",
"367 579 LINE SMOOTH",
"378 579 OFFCURVE",
"421 611 OFFCURVE",
"421 622 QCURVE SMOOTH",
"421 633 OFFCURVE",
"391 647 OFFCURVE",
"369 647 QCURVE SMOOTH",
"354 647 OFFCURVE",
"338 643 QCURVE"
);
}
);
width = 491;
}
);
note = oacute;
unicode = 00F3;
changeCount = 1;
},
{
glyphname = uacute;
lastChange = "2019-08-01 17:43:18 +0000";
layers = (
{
layerId = "E500A8E6-E294-45A2-B471-DD4095F9D5BF";
paths = (
{
closed = 1;
nodes = (
"85 453 OFFCURVE",
"74 442 QCURVE",
"64 435 OFFCURVE",
"64 431 OFFCURVE",
"71 425 QCURVE",
"79 417 OFFCURVE",
"90 417 QCURVE SMOOTH",
"92 417 OFFCURVE",
"99 418 OFFCURVE",
"100 418 QCURVE SMOOTH",
"106 418 OFFCURVE",
"112 415 OFFCURVE",
"116 401 OFFCURVE",
"117 385 OFFCURVE",
"118 365 QCURVE SMOOTH",
"120 349 OFFCURVE",
"123 254 QCURVE SMOOTH",
"125 154 OFFCURVE",
"169 58 OFFCURVE",
"222 35 QCURVE SMOOTH",
"247 24 OFFCURVE",
"302 22 QCURVE SMOOTH",
"329 22 LINE SMOOTH",
"359 22 OFFCURVE",
"381 36 QCURVE SMOOTH",
"406 51 OFFCURVE",
"431 77 QCURVE SMOOTH",
"457 102 LINE",
"459 82 LINE SMOOTH",
"461 63 OFFCURVE",
"438 42 OFFCURVE",
"438 34 QCURVE SMOOTH",
"438 27 OFFCURVE",
"452 24 QCURVE",
"458 22 OFFCURVE",
"503 22 QCURVE SMOOTH",
"535 22 LINE SMOOTH",
"603 22 OFFCURVE",
"612 32 QCURVE SMOOTH",
"616 36 OFFCURVE",
"616 42 QCURVE SMOOTH",
"616 55 OFFCURVE",
"598 55 QCURVE SMOOTH",
"597 55 OFFCURVE",
"592 54 OFFCURVE",
"590 54 OFFCURVE",
"584 52 OFFCURVE",
"582 52 QCURVE SMOOTH",
"552 52 OFFCURVE",
"547 70 QCURVE",
"547 71 OFFCURVE",
"546 79 OFFCURVE",
"546 82 QCURVE SMOOTH",
"546 90 OFFCURVE",
"549 113 QCURVE",
"550 120 OFFCURVE",
"550 141 QCURVE SMOOTH",
"550 163 OFFCURVE",
"547 195 QCURVE SMOOTH",
"546 206 OFFCURVE",
"541 331 QCURVE SMOOTH",
"538 415 OFFCURVE",
"534 430 QCURVE",
"530 439 OFFCURVE",
"518 442 OFFCURVE",
"494 442 QCURVE SMOOTH",
"488 442 OFFCURVE",
"435 445 OFFCURVE",
"421 445 QCURVE SMOOTH",
"362 445 OFFCURVE",
"362 426 QCURVE SMOOTH",
"362 411 OFFCURVE",
"388 411 QCURVE SMOOTH",
"396 411 LINE",
"401 411 LINE SMOOTH",
"416 411 OFFCURVE",
"424 389 OFFCURVE",
"424 344 QCURVE SMOOTH",
"424 186 OFFCURVE",
"368 106 QCURVE SMOOTH",
"332 58 OFFCURVE",
"302 58 QCURVE SMOOTH",
"296 58 LINE",
"270 63 OFFCURVE",
"258 68 OFFCURVE",
"258 75 QCURVE SMOOTH",
"258 85 OFFCURVE",
"254 88 QCURVE SMOOTH",
"230 112 OFFCURVE",
"230 269 QCURVE SMOOTH",
"230 298 OFFCURVE",
"231 303 QCURVE SMOOTH",
"236 323 OFFCURVE",
"232 324 QCURVE",
"228 326 OFFCURVE",
"225 369 QCURVE SMOOTH",
"222 417 OFFCURVE",
"213 443 OFFCURVE",
"199 449 QCURVE",
"185 456 OFFCURVE",
"171 456 QCURVE SMOOTH",
"170 456 OFFCURVE",
"135 454 OFFCURVE",
"122 454 QCURVE SMOOTH"
);
}
